<svg width="435" height="87" viewBox="0 0 435 87" fill="none" xmlns="http://www.w3.org/2000/svg">
<mask id="mask0_714_2571" style="mask-type:luminance" maskUnits="userSpaceOnUse" x="0" y="0" width="435" height="87">
<path d="M435 0H0V87H435V0Z" fill="#D8D8D8"/>
</mask>
<g mask="url(#mask0_714_2571)">
<path fill-rule="evenodd" clip-rule="evenodd" d="M192.822 21.5879L181.367 79.0905H184.015L195.47 21.5879H192.822Z" fill="#D8D8D8"/>
<path fill-rule="evenodd" clip-rule="evenodd" d="M134.463 23.3691H130.178C126.557 23.3691 126.344 26.2992 126.344 28.19V45.5208C126.344 47.4138 126.557 50.3438 130.178 50.3438H134.463C138.084 50.3438 138.306 47.4138 138.306 45.5208V28.19C138.306 26.2992 138.084 23.3691 134.463 23.3691ZM132.324 47.0083C131.689 47.0083 131.173 46.5302 131.173 45.937C131.173 45.9242 131.18 45.9114 131.18 45.8964V27.8187V27.7376L131.186 27.6608C131.246 27.1294 131.727 26.7068 132.32 26.7068C132.91 26.7068 133.4 27.1294 133.457 27.6608L133.464 27.7376V27.8187V45.8964C133.464 45.9114 133.468 45.9242 133.468 45.937C133.468 46.5302 132.952 47.0083 132.324 47.0083Z" fill="#D8D8D8"/>
<path fill-rule="evenodd" clip-rule="evenodd" d="M53.8438 23.3691H63.7096V26.7196H59.0142V50.3438H53.8438V23.3691Z" fill="#D8D8D8"/>
<path fill-rule="evenodd" clip-rule="evenodd" d="M70.1988 40.2091L71.0893 26.7154H71.3812L72.2674 40.2091H70.1988ZM64.4766 50.3438H69.532L70.0177 43.1733H72.457L72.9342 50.3438H77.9982L75.2969 23.3691H67.1736L64.4766 50.3438Z" fill="#D8D8D8"/>
<path fill-rule="evenodd" clip-rule="evenodd" d="M85.4013 40.9004V45.9773C85.4013 46.6709 85.9105 46.8672 86.2108 46.8672C86.6902 46.8672 87.0225 46.4404 87.0225 45.9773V39.7053C87.0225 38.8581 86.8777 37.9361 84.9497 37.9361H82.8533V34.9677H85.0242C86.5027 34.9677 87.0225 34.6155 87.0225 32.9702V27.6008C87.0225 27.142 86.6902 26.7195 86.2108 26.7195C85.9105 26.7195 85.4013 26.9115 85.4013 27.6008V32.0013H80.2266V28.1898C80.2266 26.3012 80.4524 23.3711 84.0677 23.3711H88.3562C91.9778 23.3711 92.1973 26.3012 92.1973 28.1898V32.5092C92.1973 35.4307 90.2373 36.2396 88.6842 36.1627V36.4359C92.1547 36.3527 92.1973 39.1291 92.1973 40.0958V45.5228C92.1973 47.4157 91.9778 50.3458 88.3562 50.3458H84.0677C80.4524 50.3458 80.2266 47.4157 80.2266 45.5228V40.9004H85.4013Z" fill="#D8D8D8"/>
<path fill-rule="evenodd" clip-rule="evenodd" d="M95.6016 23.3691H107.57V50.3438H102.745V26.7196H100.423V50.3438H95.6016V23.3691Z" fill="#D8D8D8"/>
<path fill-rule="evenodd" clip-rule="evenodd" d="M116.489 38.201V26.7196H117.848C118.408 26.7196 118.815 27.2211 118.815 28.0641V36.8565C118.815 37.7058 118.408 38.201 117.848 38.201H116.489ZM111.32 50.346H116.489V41.1737H119.444C123.065 41.1737 123.643 38.2479 123.643 36.3507V28.19C123.643 26.3014 123.065 23.3691 119.444 23.3691H111.32V50.346Z" fill="#D8D8D8"/>
<path fill-rule="evenodd" clip-rule="evenodd" d="M154.812 23.3691H161.54V50.3438H156.365V33.427H156.18L153.517 50.3438H149.384L146.723 33.427H146.542V50.3438H141.367V23.3691H148.084L151.442 42.3261L154.812 23.3691Z" fill="#D8D8D8"/>
<path fill-rule="evenodd" clip-rule="evenodd" d="M43.2864 13.9483C41.6545 6.77995 37.5535 0.949663 36.9932 0C36.1006 1.33806 32.8347 6.48118 31.173 12.192C29.3621 18.56 29.0937 24.2068 29.7179 29.7725C30.3421 35.3317 32.6898 41.0404 32.6898 41.0404C33.9361 44.0409 35.8045 47.2484 37.0209 48.8255C38.7998 46.5057 42.9051 39.5871 44.1791 30.545C44.8885 25.5193 44.9162 21.1124 43.2864 13.9483ZM36.9932 47.0414C36.1922 45.5283 34.9395 42.6452 34.8223 38.1914C34.7904 33.8763 36.516 30.1843 37.0209 29.4118C37.4726 30.1843 38.9489 33.4004 39.1279 37.8009C39.2493 42.1074 37.8262 45.4963 36.9932 47.0414ZM42.8156 26.1104C42.7538 28.8463 42.4279 31.7315 42.0124 33.4537C42.1637 30.4852 41.8037 26.2918 41.1198 23.016C40.4402 19.7402 38.5037 14.2791 36.9613 11.7459C35.5424 14.1532 33.7848 18.8823 32.8666 22.9904C31.9421 27.0942 31.9144 32.0623 31.9144 33.554C31.6694 32.2885 31.0558 27.8198 31.2326 23.319C31.3775 19.6036 32.2424 15.7921 32.7175 14.0337C34.5284 8.17564 36.5799 4.43034 36.9613 3.8328C37.3469 4.43034 39.9332 9.04207 41.2711 13.8864C42.6026 18.7372 42.8689 23.3766 42.8156 26.1104Z" fill="#D8D8D8"/>
<path fill-rule="evenodd" clip-rule="evenodd" d="M26.9666 50.339V58.8177C26.9772 58.807 26.9879 58.7942 27.0049 58.7835C29.9619 55.83 34.7596 55.83 37.7187 58.7835C40.6821 61.7307 40.6821 66.5281 37.7187 69.4774C37.708 69.4902 37.6974 69.5008 37.6825 69.5136V69.5158C37.6654 69.5286 37.6526 69.5414 37.6399 69.5563C34.6829 72.4779 30.8247 73.944 26.9666 73.944C23.0978 73.944 19.2183 72.4629 16.2635 69.5222C11.0568 64.3214 10.4326 56.2802 14.4079 50.4051C14.9405 49.6113 15.5583 48.8579 16.2635 48.158C19.2183 45.2087 23.0978 43.7383 26.9666 43.7383V23.5137C12.0815 23.5137 0 35.5584 0 50.4051C0 65.2647 12.0815 77.3094 26.9666 77.3094C34.7383 77.3094 41.7281 74.0272 46.6451 68.7902V50.339H26.9666Z" fill="#D8D8D8"/>
<path fill-rule="evenodd" clip-rule="evenodd" d="M109.443 65.1852H109.023V70.642H109.443C110.05 70.642 110.269 70.4691 110.269 69.782V66.0153C110.269 65.326 110.05 65.1852 109.443 65.1852ZM153.176 68.8323H152.569V71.8883H153.176C153.787 71.8883 153.972 71.7325 153.972 71.0646V69.6539C153.972 68.9838 153.787 68.8323 153.176 68.8323ZM105.105 66.0473V69.7969C105.105 70.4841 105.325 70.642 105.928 70.642H106.369V65.1852H105.928C105.325 65.1852 105.105 65.3602 105.105 66.0473ZM53.8438 77.3089H161.533V59.3271H53.8438V77.3089ZM65.5332 73.9584H62.8021V68.8323H61.4003V73.9584H58.6691V62.2466H61.4003V66.7665H62.8021V62.2466H65.5332V73.9584ZM88.173 64.4596H84.4384V66.7623H87.781V68.9838H84.4384V71.7432H88.173V73.9669H81.622V62.2359H88.173V64.4596ZM112.918 69.782C112.918 72.1593 111.712 72.7996 109.023 72.7996V73.9584H106.369V72.7996C103.672 72.7996 102.451 72.1593 102.451 69.782V66.122C102.451 63.7319 103.623 63.1237 106.369 63.1237V62.2466H109.023V63.1237C111.752 63.1237 112.918 63.7319 112.918 66.122V69.782ZM133.921 64.4596H131.853V73.9669H129.256V64.4596H127.04V62.2359H133.921V64.4596ZM156.699 70.9386C156.699 73.5017 155.534 73.9584 152.569 73.9584H149.837V62.2466H152.569V66.7665H153.024C155.707 66.7665 156.699 67.3939 156.699 69.735V70.9386Z" fill="#D8D8D8"/>
<path fill-rule="evenodd" clip-rule="evenodd" d="M134.463 23.3691H130.178C126.557 23.3691 126.344 26.2992 126.344 28.19V45.5209C126.344 47.4138 126.557 50.3439 130.178 50.3439H134.463C138.084 50.3439 138.306 47.4138 138.306 45.5209V28.19C138.306 26.2992 138.084 23.3691 134.463 23.3691ZM132.324 47.0083C131.689 47.0083 131.173 46.5303 131.173 45.937C131.173 45.9242 131.18 45.9114 131.18 45.8965V27.8187V27.7376L131.186 27.6608C131.246 27.1294 131.727 26.7068 132.32 26.7068C132.91 26.7068 133.4 27.1294 133.457 27.6608L133.464 27.7376V27.8187V45.8965C133.464 45.9114 133.468 45.9242 133.468 45.937C133.468 46.5303 132.952 47.0083 132.324 47.0083Z" fill="#D8D8D8"/>
<path fill-rule="evenodd" clip-rule="evenodd" d="M53.8438 23.3691H63.7096V26.7196H59.0142V50.3439H53.8438V23.3691Z" fill="#D8D8D8"/>
<path fill-rule="evenodd" clip-rule="evenodd" d="M70.1988 40.2092L71.0893 26.7154H71.3812L72.2674 40.2092H70.1988ZM64.4766 50.3439H69.532L70.0177 43.1734H72.457L72.9343 50.3439H77.9982L75.2969 23.3691H67.1736L64.4766 50.3439Z" fill="#D8D8D8"/>
<path fill-rule="evenodd" clip-rule="evenodd" d="M85.4013 40.9004V45.9774C85.4013 46.671 85.9105 46.8673 86.2109 46.8673C86.6902 46.8673 87.0226 46.4405 87.0226 45.9774V39.7053C87.0226 38.8581 86.8777 37.9362 84.9497 37.9362H82.8534V34.9677H85.0242C86.5027 34.9677 87.0226 34.6156 87.0226 32.9702V27.6008C87.0226 27.142 86.6902 26.7195 86.2109 26.7195C85.9105 26.7195 85.4013 26.9115 85.4013 27.6008V32.0013H80.2266V28.1898C80.2266 26.3012 80.4524 23.3711 84.0677 23.3711H88.3562C91.9779 23.3711 92.1973 26.3012 92.1973 28.1898V32.5092C92.1973 35.4308 90.2373 36.2396 88.6843 36.1628V36.4359C92.1547 36.3527 92.1973 39.1291 92.1973 40.0959V45.5228C92.1973 47.4158 91.9779 50.3459 88.3562 50.3459H84.0677C80.4524 50.3459 80.2266 47.4158 80.2266 45.5228V40.9004H85.4013Z" fill="#D8D8D8"/>
<path fill-rule="evenodd" clip-rule="evenodd" d="M95.6016 23.3691H107.57V50.3439H102.745V26.7196H100.423V50.3439H95.6016V23.3691Z" fill="#D8D8D8"/>
<path fill-rule="evenodd" clip-rule="evenodd" d="M116.489 38.201V26.7196H117.848C118.408 26.7196 118.815 27.2212 118.815 28.0641V36.8565C118.815 37.7059 118.408 38.201 117.848 38.201H116.489ZM111.32 50.346H116.489V41.1738H119.444C123.065 41.1738 123.643 38.2479 123.643 36.3507V28.19C123.643 26.3014 123.065 23.3691 119.444 23.3691H111.32V50.346Z" fill="#D8D8D8"/>
<path fill-rule="evenodd" clip-rule="evenodd" d="M154.812 23.3691H161.54V50.3439H156.365V33.4271H156.18L153.517 50.3439H149.384L146.723 33.4271H146.542V50.3439H141.367V23.3691H148.084L151.442 42.3262L154.812 23.3691Z" fill="#D8D8D8"/>
<path fill-rule="evenodd" clip-rule="evenodd" d="M43.2865 13.9483C41.6546 6.77997 37.5535 0.949665 36.9932 0C36.1006 1.33807 32.8347 6.4812 31.173 12.192C29.3621 18.5601 29.0937 24.2069 29.7179 29.7725C30.3421 35.3318 32.6898 41.0405 32.6898 41.0405C33.9361 44.041 35.8045 47.2485 37.0209 48.8256C38.7998 46.5059 42.9051 39.5872 44.1791 30.5451C44.8885 25.5193 44.9162 21.1124 43.2865 13.9483ZM36.9932 47.0415C36.1922 45.5285 34.9395 42.6453 34.8224 38.1915C34.7904 33.8764 36.516 30.1844 37.0209 29.4119C37.4726 30.1844 38.949 33.4005 39.1279 37.801C39.2493 42.1075 37.8262 45.4964 36.9932 47.0415ZM42.8156 26.1105C42.7539 28.8464 42.4279 31.7316 42.0125 33.4538C42.1637 30.4853 41.8037 26.2919 41.1198 23.016C40.4402 19.7402 38.5037 14.2791 36.9613 11.746C35.5424 14.1532 33.7849 18.8823 32.8667 22.9904C31.9421 27.0943 31.9144 32.0624 31.9144 33.5541C31.6694 32.2886 31.0558 27.8199 31.2326 23.3191C31.3775 19.6037 32.2424 15.7922 32.7175 14.0337C34.5284 8.17566 36.5799 4.43035 36.9613 3.83281C37.3469 4.43035 39.9332 9.0421 41.2711 13.8865C42.6026 18.7372 42.8689 23.3767 42.8156 26.1105Z" fill="#D8D8D8"/>
<path fill-rule="evenodd" clip-rule="evenodd" d="M26.9666 50.3391V58.8178C26.9773 58.8071 26.9879 58.7943 27.005 58.7836C29.962 55.83 34.7597 55.83 37.7188 58.7836C40.6822 61.7308 40.6822 66.5282 37.7188 69.4775C37.7081 69.4903 37.6975 69.501 37.6826 69.5138V69.5159C37.6655 69.5287 37.6527 69.5415 37.64 69.5564C34.683 72.478 30.8248 73.9441 26.9666 73.9441C23.0978 73.9441 19.2184 72.4631 16.2635 69.5223C11.0568 64.3215 10.4326 56.2803 14.4079 50.4052C14.9405 49.6113 15.5583 48.858 16.2635 48.158C19.2184 45.2087 23.0978 43.7383 26.9666 43.7383V23.5137C12.0815 23.5137 0 35.5584 0 50.4052C0 65.2648 12.0815 77.3096 26.9666 77.3096C34.7384 77.3096 41.7282 74.0273 46.6452 68.7903V50.3391H26.9666Z" fill="#D8D8D8"/>
<path fill-rule="evenodd" clip-rule="evenodd" d="M109.443 65.1852H109.023V70.642H109.443C110.05 70.642 110.27 70.4692 110.27 69.782V66.0154C110.27 65.326 110.05 65.1852 109.443 65.1852ZM153.176 68.8323H152.569V71.8883H153.176C153.787 71.8883 153.973 71.7326 153.973 71.0646V69.654C153.973 68.9839 153.787 68.8323 153.176 68.8323ZM105.106 66.0474V69.7969C105.106 70.4841 105.325 70.642 105.928 70.642H106.369V65.1852H105.928C105.325 65.1852 105.106 65.3602 105.106 66.0474ZM53.8438 77.3089H161.534V59.3271H53.8438V77.3089ZM65.5333 73.9584H62.8021V68.8323H61.4003V73.9584H58.6691V62.2466H61.4003V66.7666H62.8021V62.2466H65.5333V73.9584ZM88.1731 64.4596H84.4385V66.7623H87.7811V68.9839H84.4385V71.7432H88.1731V73.9669H81.6221V62.2359H88.1731V64.4596ZM112.918 69.782C112.918 72.1594 111.712 72.7996 109.023 72.7996V73.9584H106.369V72.7996C103.672 72.7996 102.451 72.1594 102.451 69.782V66.1221C102.451 63.7319 103.623 63.1237 106.369 63.1237V62.2466H109.023V63.1237C111.752 63.1237 112.918 63.7319 112.918 66.1221V69.782ZM133.921 64.4596H131.853V73.9669H129.256V64.4596H127.04V62.2359H133.921V64.4596ZM156.7 70.9387C156.7 73.5017 155.534 73.9584 152.569 73.9584H149.838V62.2466H152.569V66.7666H153.025C155.707 66.7666 156.7 67.394 156.7 69.7351V70.9387Z" fill="#D8D8D8"/>
<path fill-rule="evenodd" clip-rule="evenodd" d="M192.822 21.5879L181.367 79.0907H184.015L195.47 21.5879H192.822Z" fill="#D8D8D8"/>
</g>
<mask id="mask1_714_2571" style="mask-type:luminance" maskUnits="userSpaceOnUse" x="0" y="0" width="435" height="87">
<path d="M435 0H0V87H435V0Z" fill="#D8D8D8"/>
</mask>
<g mask="url(#mask1_714_2571)">
<path d="M227.06 32.3255H220.345V45.8738H217.023V29.502H227.06V32.3255Z" fill="#D8D8D8"/>
<path d="M226.383 45.8738L232.077 29.502H235.257L240.951 45.8738H237.416L236.419 42.7655H230.938L229.942 45.8738H226.383ZM231.816 39.9657H235.518L233.667 34.2L231.816 39.9657Z" fill="#D8D8D8"/>
<path d="M246.35 35.9792H248.13C249.079 35.9792 249.751 35.7973 250.147 35.4334C250.542 35.0696 250.74 34.5872 250.74 33.9861C250.74 33.4166 250.558 32.9539 250.194 32.598C249.83 32.2421 249.198 32.0642 248.296 32.0642C247.41 32.0642 246.754 32.25 246.327 32.6218C245.9 32.9935 245.583 33.472 245.378 34.0573H242.459C242.522 33.3296 242.724 32.6692 243.064 32.076C243.404 31.4829 243.843 30.9806 244.381 30.5694C244.919 30.1581 245.532 29.8417 246.22 29.6203C246.908 29.3988 247.64 29.2881 248.415 29.2881C249.158 29.2881 249.87 29.379 250.55 29.5609C251.23 29.7429 251.831 30.0157 252.353 30.3795C252.875 30.7434 253.291 31.2021 253.599 31.7557C253.908 32.3094 254.062 32.95 254.062 33.6776C254.062 34.5318 253.872 35.2436 253.492 35.8131C253.113 36.3825 252.591 36.865 251.926 37.2604C252.733 37.5926 253.378 38.0869 253.86 38.7434C254.343 39.3999 254.584 40.2105 254.584 41.1754C254.584 41.9189 254.445 42.5912 254.169 43.1923C253.892 43.7934 253.488 44.3074 252.959 44.7345C252.429 45.1616 251.78 45.4938 251.013 45.7311C250.246 45.9684 249.372 46.087 248.391 46.087C246.635 46.087 245.204 45.6876 244.096 44.8888C242.989 44.0899 242.277 42.8364 241.961 41.128H245.14C245.441 41.8714 245.825 42.4172 246.291 42.7652C246.758 43.1132 247.418 43.2872 248.272 43.2872C250.265 43.2872 251.262 42.5358 251.262 41.0331C251.262 39.5304 250.202 38.779 248.083 38.779H246.35V35.9792Z" fill="#D8D8D8"/>
<path d="M270.161 29.502V45.8738H266.84V32.3255H260.908V45.8738H257.586V29.502H270.161Z" fill="#D8D8D8"/>
<path d="M277.306 40.108V45.8738H273.984V29.502H279.845C281.727 29.502 283.218 29.937 284.318 30.807C285.417 31.677 285.967 32.9899 285.967 34.7457C285.967 36.4857 285.425 37.8144 284.341 38.7319C283.258 39.6493 281.759 40.108 279.845 40.108H277.306ZM279.37 37.3082C280.525 37.3082 281.36 37.1026 281.874 36.6913C282.388 36.28 282.645 35.6315 282.645 34.7457C282.645 33.9548 282.388 33.3537 281.874 32.9424C281.36 32.5311 280.525 32.3255 279.37 32.3255H277.306V37.3082H279.37Z" fill="#D8D8D8"/>
<path d="M300.63 38.8502C300.63 40.0998 300.476 41.1794 300.167 42.0889C299.859 42.9985 299.428 43.7499 298.874 44.343C298.32 44.9362 297.656 45.3752 296.881 45.6599C296.106 45.9446 295.26 46.087 294.342 46.087C293.425 46.087 292.582 45.9446 291.815 45.6599C291.048 45.3752 290.388 44.9362 289.834 44.343C289.28 43.7499 288.849 42.9985 288.541 42.0889C288.232 41.1794 288.078 40.0998 288.078 38.8502V36.5249C288.078 35.2594 288.232 34.1719 288.541 33.2624C288.849 32.3529 289.28 31.6015 289.834 31.0083C290.388 30.4151 291.048 29.9801 291.815 29.7033C292.582 29.4265 293.425 29.2881 294.342 29.2881C295.26 29.2881 296.106 29.4265 296.881 29.7033C297.656 29.9801 298.32 30.4151 298.874 31.0083C299.428 31.6015 299.859 32.3529 300.167 33.2624C300.476 34.1719 300.63 35.2594 300.63 36.5249V38.8502ZM291.4 38.8502C291.4 40.4162 291.649 41.5472 292.147 42.2432C292.646 42.9392 293.377 43.2872 294.342 43.2872C295.307 43.2872 296.043 42.9392 296.549 42.2432C297.055 41.5472 297.308 40.4162 297.308 38.8502V36.5249C297.308 34.9589 297.055 33.8279 296.549 33.1319C296.043 32.4359 295.307 32.0879 294.342 32.0879C293.377 32.0879 292.646 32.4359 292.147 33.1319C291.649 33.8279 291.4 34.9589 291.4 36.5249V38.8502Z" fill="#D8D8D8"/>
<path d="M311.672 38.4234L316.228 29.502H319.384V45.8738H316.204V35.7185L312.645 42.9316H310.628L307.117 35.7897V45.8738H303.961V29.502H307.069L311.672 38.4234Z" fill="#D8D8D8"/>
<path d="M326.541 36.0032H332.211V29.502H335.533V45.8738H332.211V38.803H326.541V45.8738H323.219V29.502H326.541V36.0032Z" fill="#D8D8D8"/>
<path d="M349.586 29.502V32.3255H342.705V36.0032H348.874V38.803H342.705V43.074H349.586V45.8738H339.383V29.502H349.586Z" fill="#D8D8D8"/>
<path d="M358.542 29.502H361.864V30.6883C362.813 30.6883 363.691 30.7951 364.498 31.0086C365.304 31.2222 366.004 31.586 366.597 32.1001C367.191 32.6142 367.657 33.2944 367.997 34.1406C368.337 34.9869 368.508 36.0428 368.508 37.3082V38.0675C368.508 39.333 368.337 40.3888 367.997 41.2351C367.657 42.0814 367.191 42.7615 366.597 43.2756C366.004 43.7897 365.304 44.1535 364.498 44.3671C363.691 44.5806 362.813 44.6874 361.864 44.6874V45.8738H358.542V44.6874C357.593 44.6874 356.711 44.5806 355.896 44.3671C355.082 44.1535 354.378 43.7897 353.785 43.2756C353.192 42.7615 352.729 42.0814 352.397 41.2351C352.065 40.3888 351.898 39.333 351.898 38.0675V37.3082C351.898 36.0428 352.065 34.9869 352.397 34.1406C352.729 33.2944 353.192 32.6142 353.785 32.1001C354.378 31.586 355.082 31.2222 355.896 31.0086C356.711 30.7951 357.593 30.6883 358.542 30.6883V29.502ZM361.864 41.8876C362.418 41.8876 362.9 41.8283 363.311 41.7096C363.723 41.591 364.067 41.3893 364.343 41.1046C364.62 40.8199 364.83 40.4323 364.972 39.942C365.115 39.4516 365.186 38.8268 365.186 38.0675V37.3082C365.186 36.549 365.115 35.9241 364.972 35.4338C364.83 34.9434 364.62 34.5559 364.343 34.2711C364.067 33.9864 363.723 33.7847 363.311 33.6661C362.9 33.5475 362.418 33.4881 361.864 33.4881V41.8876ZM358.542 33.4881C357.988 33.4881 357.506 33.5475 357.095 33.6661C356.683 33.7847 356.339 33.9864 356.063 34.2711C355.786 34.5559 355.576 34.9434 355.434 35.4338C355.291 35.9241 355.22 36.549 355.22 37.3082V38.0675C355.22 38.8268 355.291 39.4516 355.434 39.942C355.576 40.4323 355.786 40.8199 356.063 41.1046C356.339 41.3893 356.683 41.591 357.095 41.7096C357.506 41.8283 357.988 41.8876 358.542 41.8876V33.4881Z" fill="#D8D8D8"/>
<path d="M382.182 29.502V32.3255H377.674V45.8738H374.352V32.3255H369.844V29.502H382.182Z" fill="#D8D8D8"/>
<path d="M387.916 29.502V35.505H390.454C391.546 35.505 392.475 35.6394 393.242 35.9083C394.01 36.1772 394.642 36.549 395.141 37.0235C395.639 37.498 396.003 38.0517 396.232 38.6844C396.461 39.3171 396.576 39.9894 396.576 40.7012C396.576 41.413 396.461 42.0814 396.232 42.7062C396.003 43.331 395.639 43.8767 395.141 44.3434C394.642 44.81 394.01 45.1817 393.242 45.4585C392.475 45.7354 391.546 45.8738 390.454 45.8738H384.594V29.502H387.916ZM387.916 38.3048V43.074H390.265C391.356 43.074 392.127 42.8604 392.578 42.4333C393.029 42.0062 393.254 41.4289 393.254 40.7012C393.254 39.9578 393.029 39.3725 392.578 38.9454C392.127 38.5183 391.356 38.3048 390.265 38.3048H387.916Z" fill="#D8D8D8"/>
<path d="M225.619 61.4699C225.461 60.6948 225.152 60.0858 224.693 59.6429C224.235 59.2 223.602 58.9785 222.795 58.9785C221.83 58.9785 221.099 59.3265 220.6 60.0225C220.102 60.7185 219.853 61.8495 219.853 63.4155V65.7408C219.853 67.2752 220.102 68.3983 220.6 69.1101C221.099 69.8219 221.83 70.1778 222.795 70.1778C223.634 70.1778 224.27 69.9722 224.705 69.5609C225.14 69.1496 225.445 68.5248 225.619 67.6864H228.775C228.506 69.5372 227.865 70.8817 226.853 71.7201C225.84 72.5584 224.488 72.9776 222.795 72.9776C221.878 72.9776 221.035 72.8353 220.268 72.5505C219.501 72.2658 218.841 71.8268 218.287 71.2337C217.733 70.6405 217.302 69.8891 216.994 68.9796C216.685 68.07 216.531 66.9904 216.531 65.7408V63.4155C216.531 62.1501 216.685 61.0626 216.994 60.153C217.302 59.2435 217.733 58.4921 218.287 57.8989C218.841 57.3058 219.501 56.8708 220.268 56.5939C221.035 56.3171 221.878 56.1787 222.795 56.1787C224.425 56.1787 225.765 56.6098 226.817 57.4718C227.869 58.3339 228.529 59.6666 228.798 61.4699H225.619Z" fill="#D8D8D8"/>
<path d="M235.041 62.8939H240.711V56.3926H244.033V72.7644H240.711V65.6937H235.041V72.7644H231.719V56.3926H235.041V62.8939Z" fill="#D8D8D8"/>
<path d="M246.18 72.7644L251.874 56.3926H255.054L260.748 72.7644H257.213L256.216 69.6561H250.735L249.739 72.7644H246.18ZM251.613 66.8563H255.315L253.464 61.0906L251.613 66.8563Z" fill="#D8D8D8"/>
<path d="M273.663 59.2161H266.212V62.3956H268.751C269.843 62.3956 270.772 62.53 271.539 62.7989C272.306 63.0678 272.939 63.4396 273.437 63.9141C273.936 64.3887 274.299 64.9384 274.529 65.5632C274.758 66.188 274.873 66.8563 274.873 67.5681C274.873 68.2799 274.758 68.9522 274.529 69.5849C274.299 70.2177 273.936 70.7673 273.437 71.234C272.939 71.7006 272.306 72.0723 271.539 72.3492C270.772 72.626 269.843 72.7644 268.751 72.7644H262.891V56.3926H273.663V59.2161ZM266.212 65.1954V69.9646H268.561C269.653 69.9646 270.424 69.751 270.875 69.3239C271.326 68.8968 271.551 68.3116 271.551 67.5681C271.551 66.8405 271.326 66.2631 270.875 65.836C270.424 65.4089 269.653 65.1954 268.561 65.1954H266.212Z" fill="#D8D8D8"/>
<path d="M285.142 65.4801L280.23 72.7644H276.078L282.034 64.5548L276.505 56.3926H280.468L285.142 63.7718V56.3926H288.464V63.7718L293.138 56.3926H297.1L291.572 64.4361L297.528 72.7644H293.352L288.464 65.4801V72.7644H285.142V65.4801Z" fill="#D8D8D8"/>
<path d="M309.992 56.3926V59.2161H303.111V62.8939H309.28V65.6937H303.111V69.9646H309.992V72.7644H299.789V56.3926H309.992Z" fill="#D8D8D8"/>
<path d="M316.212 62.8939H321.883V56.3926H325.205V72.7644H321.883V65.6937H316.212V72.7644H312.891V56.3926H316.212V62.8939Z" fill="#D8D8D8"/>
<path d="M332.377 56.3926V66.6665L339.21 56.3926H341.867V72.7644H338.546V62.6091L331.783 72.7644H329.055V56.3926H332.377Z" fill="#D8D8D8"/>
<path d="M355.906 56.3926V59.2161H349.025V62.8939H355.194V65.6937H349.025V69.9646H355.906V72.7644H345.703V56.3926H355.906Z" fill="#D8D8D8"/>
</g>
</svg>
