<svg width="435" height="87" viewBox="0 0 435 87" fill="none" xmlns="http://www.w3.org/2000/svg">
<mask id="mask0_714_2389" style="mask-type:luminance" maskUnits="userSpaceOnUse" x="0" y="0" width="435" height="87">
<path d="M435 0H0V87H435V0Z" fill="#D8D8D8"/>
</mask>
<g mask="url(#mask0_714_2389)">
<path fill-rule="evenodd" clip-rule="evenodd" d="M192.822 21.5879L181.367 79.0905H184.015L195.47 21.5879H192.822Z" fill="#D8D8D8"/>
<path fill-rule="evenodd" clip-rule="evenodd" d="M134.471 23.3691H130.186C126.565 23.3691 126.352 26.2992 126.352 28.19V45.5208C126.352 47.4138 126.565 50.3438 130.186 50.3438H134.471C138.092 50.3438 138.314 47.4138 138.314 45.5208V28.19C138.314 26.2992 138.092 23.3691 134.471 23.3691ZM132.332 47.0083C131.697 47.0083 131.181 46.5302 131.181 45.937C131.181 45.9242 131.188 45.9114 131.188 45.8964V27.8187V27.7376L131.194 27.6608C131.254 27.1294 131.735 26.7068 132.327 26.7068C132.917 26.7068 133.407 27.1294 133.465 27.6608L133.471 27.7376V27.8187V45.8964C133.471 45.9114 133.476 45.9242 133.476 45.937C133.476 46.5302 132.96 47.0083 132.332 47.0083Z" fill="#D8D8D8"/>
<path fill-rule="evenodd" clip-rule="evenodd" d="M53.8438 23.3701H63.7096V26.7206H59.0142V50.3448H53.8438V23.3701Z" fill="#D8D8D8"/>
<path fill-rule="evenodd" clip-rule="evenodd" d="M70.2066 40.2091L71.0971 26.7154H71.389L72.2752 40.2091H70.2066ZM64.4844 50.3438H69.5398L70.0255 43.1733H72.4648L72.9421 50.3438H78.006L75.3047 23.3691H67.1815L64.4844 50.3438Z" fill="#D8D8D8"/>
<path fill-rule="evenodd" clip-rule="evenodd" d="M85.4013 40.8984V45.9754C85.4013 46.669 85.9105 46.8653 86.2108 46.8653C86.6902 46.8653 87.0225 46.4385 87.0225 45.9754V39.7033C87.0225 38.8561 86.8777 37.9342 84.9497 37.9342H82.8533V34.9657H85.0242C86.5027 34.9657 87.0225 34.6136 87.0225 32.9682V27.5989C87.0225 27.14 86.6902 26.7175 86.2108 26.7175C85.9105 26.7175 85.4013 26.9096 85.4013 27.5989V31.9993H80.2266V28.1879C80.2266 26.2992 80.4524 23.3691 84.0677 23.3691H88.3562C91.9778 23.3691 92.1973 26.2992 92.1973 28.1879V32.5072C92.1973 35.4288 90.2373 36.2376 88.6842 36.1608V36.4339C92.1547 36.3507 92.1973 39.1271 92.1973 40.0939V45.5208C92.1973 47.4137 91.9778 50.3438 88.3562 50.3438H84.0677C80.4524 50.3438 80.2266 47.4137 80.2266 45.5208V40.8984H85.4013Z" fill="#D8D8D8"/>
<path fill-rule="evenodd" clip-rule="evenodd" d="M95.6016 23.3691H107.57V50.3438H102.745V26.7196H100.423V50.3438H95.6016V23.3691Z" fill="#D8D8D8"/>
<path fill-rule="evenodd" clip-rule="evenodd" d="M116.489 38.2V26.7187H117.848C118.408 26.7187 118.815 27.2202 118.815 28.0631V36.8555C118.815 37.7049 118.408 38.2 117.848 38.2H116.489ZM111.32 50.345H116.489V41.1727H119.444C123.065 41.1727 123.643 38.2469 123.643 36.3497V28.189C123.643 26.3004 123.065 23.3682 119.444 23.3682H111.32V50.345Z" fill="#D8D8D8"/>
<path fill-rule="evenodd" clip-rule="evenodd" d="M154.804 23.3691H161.532V50.3438H156.357V33.427H156.172L153.509 50.3438H149.376L146.715 33.427H146.534V50.3438H141.359V23.3691H148.077L151.434 42.3261L154.804 23.3691Z" fill="#D8D8D8"/>
<path fill-rule="evenodd" clip-rule="evenodd" d="M43.2864 13.9483C41.6545 6.77995 37.5535 0.949663 36.9932 0C36.1006 1.33806 32.8347 6.48118 31.173 12.192C29.3621 18.56 29.0937 24.2068 29.7179 29.7725C30.3421 35.3317 32.6898 41.0404 32.6898 41.0404C33.9361 44.0409 35.8045 47.2484 37.0209 48.8255C38.7998 46.5057 42.9051 39.5871 44.1791 30.545C44.8885 25.5193 44.9162 21.1124 43.2864 13.9483ZM36.9932 47.0414C36.1922 45.5283 34.9395 42.6452 34.8224 38.1914C34.7904 33.8763 36.516 30.1843 37.0209 29.4118C37.4726 30.1843 38.9489 33.4004 39.1279 37.8009C39.2493 42.1074 37.8262 45.4963 36.9932 47.0414ZM42.8156 26.1104C42.7538 28.8463 42.4279 31.7315 42.0124 33.4537C42.1637 30.4852 41.8037 26.2918 41.1198 23.016C40.4402 19.7402 38.5037 14.2791 36.9613 11.7459C35.5424 14.1532 33.7848 18.8823 32.8666 22.9904C31.9421 27.0942 31.9144 32.0623 31.9144 33.554C31.6694 32.2885 31.0558 27.8198 31.2326 23.319C31.3775 19.6036 32.2424 15.7921 32.7175 14.0337C34.5284 8.17564 36.5799 4.43034 36.9613 3.8328C37.3469 4.43034 39.9332 9.04207 41.2711 13.8864C42.6026 18.7372 42.8689 23.3766 42.8156 26.1104Z" fill="#D8D8D8"/>
<path fill-rule="evenodd" clip-rule="evenodd" d="M26.9666 50.339V58.8177C26.9772 58.807 26.9879 58.7942 27.0049 58.7835C29.9619 55.83 34.7596 55.83 37.7187 58.7835C40.6821 61.7307 40.6821 66.5281 37.7187 69.4774C37.708 69.4902 37.6974 69.5008 37.6825 69.5136V69.5158C37.6654 69.5286 37.6526 69.5414 37.6399 69.5563C34.6829 72.4779 30.8247 73.944 26.9666 73.944C23.0978 73.944 19.2183 72.4629 16.2635 69.5222C11.0568 64.3214 10.4326 56.2802 14.4079 50.4051C14.9405 49.6113 15.5583 48.8579 16.2635 48.158C19.2183 45.2087 23.0978 43.7383 26.9666 43.7383V23.5137C12.0815 23.5137 0 35.5584 0 50.4051C0 65.2647 12.0815 77.3094 26.9666 77.3094C34.7383 77.3094 41.7281 74.0272 46.6451 68.7902V50.339H26.9666Z" fill="#D8D8D8"/>
<path fill-rule="evenodd" clip-rule="evenodd" d="M109.443 65.1852H109.023V70.642H109.443C110.05 70.642 110.269 70.4691 110.269 69.782V66.0153C110.269 65.326 110.05 65.1852 109.443 65.1852ZM153.176 68.8323H152.569V71.8883H153.176C153.787 71.8883 153.972 71.7325 153.972 71.0646V69.6539C153.972 68.9838 153.787 68.8323 153.176 68.8323ZM105.105 66.0473V69.7969C105.105 70.4841 105.325 70.642 105.928 70.642H106.369V65.1852H105.928C105.325 65.1852 105.105 65.3602 105.105 66.0473ZM53.8438 77.3089H161.533V59.3271H53.8438V77.3089ZM65.5332 73.9584H62.8021V68.8323H61.4003V73.9584H58.6691V62.2466H61.4003V66.7665H62.8021V62.2466H65.5332V73.9584ZM88.173 64.4596H84.4384V66.7623H87.781V68.9838H84.4384V71.7432H88.173V73.9669H81.622V62.2359H88.173V64.4596ZM112.918 69.782C112.918 72.1593 111.712 72.7996 109.023 72.7996V73.9584H106.369V72.7996C103.672 72.7996 102.451 72.1593 102.451 69.782V66.122C102.451 63.7319 103.623 63.1237 106.369 63.1237V62.2466H109.023V63.1237C111.752 63.1237 112.918 63.7319 112.918 66.122V69.782ZM133.921 64.4596H131.853V73.9669H129.256V64.4596H127.04V62.2359H133.921V64.4596ZM156.699 70.9386C156.699 73.5017 155.534 73.9584 152.569 73.9584H149.837V62.2466H152.569V66.7665H153.024C155.707 66.7665 156.699 67.3939 156.699 69.735V70.9386Z" fill="#D8D8D8"/>
<path fill-rule="evenodd" clip-rule="evenodd" d="M134.471 23.3691H130.186C126.565 23.3691 126.352 26.2992 126.352 28.19V45.5209C126.352 47.4138 126.565 50.3439 130.186 50.3439H134.471C138.092 50.3439 138.314 47.4138 138.314 45.5209V28.19C138.314 26.2992 138.092 23.3691 134.471 23.3691ZM132.332 47.0083C131.697 47.0083 131.181 46.5303 131.181 45.937C131.181 45.9242 131.188 45.9114 131.188 45.8965V27.8187V27.7376L131.194 27.6608C131.254 27.1294 131.735 26.7068 132.327 26.7068C132.917 26.7068 133.407 27.1294 133.465 27.6608L133.471 27.7376V27.8187V45.8965C133.471 45.9114 133.476 45.9242 133.476 45.937C133.476 46.5303 132.96 47.0083 132.332 47.0083Z" fill="#D8D8D8"/>
<path fill-rule="evenodd" clip-rule="evenodd" d="M53.8438 23.3701H63.7096V26.7206H59.0142V50.3449H53.8438V23.3701Z" fill="#D8D8D8"/>
<path fill-rule="evenodd" clip-rule="evenodd" d="M70.2066 40.2092L71.0971 26.7154H71.389L72.2753 40.2092H70.2066ZM64.4844 50.3439H69.5398L70.0256 43.1734H72.4649L72.9421 50.3439H78.006L75.3047 23.3691H67.1815L64.4844 50.3439Z" fill="#D8D8D8"/>
<path fill-rule="evenodd" clip-rule="evenodd" d="M85.4013 40.8985V45.9754C85.4013 46.669 85.9105 46.8654 86.2109 46.8654C86.6902 46.8654 87.0226 46.4385 87.0226 45.9754V39.7034C87.0226 38.8562 86.8777 37.9342 84.9497 37.9342H82.8534V34.9657H85.0242C86.5027 34.9657 87.0226 34.6136 87.0226 32.9682V27.5989C87.0226 27.1401 86.6902 26.7175 86.2109 26.7175C85.9105 26.7175 85.4013 26.9096 85.4013 27.5989V31.9994H80.2266V28.1879C80.2266 26.2992 80.4524 23.3691 84.0677 23.3691H88.3562C91.9779 23.3691 92.1973 26.2992 92.1973 28.1879V32.5073C92.1973 35.4288 90.2373 36.2376 88.6843 36.1608V36.434C92.1547 36.3507 92.1973 39.1272 92.1973 40.0939V45.5209C92.1973 47.4138 91.9779 50.3439 88.3562 50.3439H84.0677C80.4524 50.3439 80.2266 47.4138 80.2266 45.5209V40.8985H85.4013Z" fill="#D8D8D8"/>
<path fill-rule="evenodd" clip-rule="evenodd" d="M95.6016 23.3691H107.57V50.3439H102.745V26.7196H100.423V50.3439H95.6016V23.3691Z" fill="#D8D8D8"/>
<path fill-rule="evenodd" clip-rule="evenodd" d="M116.489 38.2V26.7187H117.848C118.408 26.7187 118.815 27.2202 118.815 28.0631V36.8555C118.815 37.7049 118.408 38.2 117.848 38.2H116.489ZM111.32 50.3451H116.489V41.1728H119.444C123.065 41.1728 123.643 38.247 123.643 36.3498V28.189C123.643 26.3004 123.065 23.3682 119.444 23.3682H111.32V50.3451Z" fill="#D8D8D8"/>
<path fill-rule="evenodd" clip-rule="evenodd" d="M154.804 23.3691H161.532V50.3439H156.357V33.4271H156.172L153.509 50.3439H149.376L146.715 33.4271H146.534V50.3439H141.359V23.3691H148.077L151.434 42.3262L154.804 23.3691Z" fill="#D8D8D8"/>
<path fill-rule="evenodd" clip-rule="evenodd" d="M43.2865 13.9483C41.6546 6.77997 37.5535 0.949665 36.9932 0C36.1006 1.33807 32.8347 6.4812 31.173 12.192C29.3621 18.5601 29.0937 24.2069 29.7179 29.7725C30.3421 35.3318 32.6898 41.0405 32.6898 41.0405C33.9361 44.041 35.8045 47.2485 37.0209 48.8256C38.7998 46.5059 42.9051 39.5872 44.1791 30.5451C44.8885 25.5193 44.9162 21.1124 43.2865 13.9483ZM36.9932 47.0415C36.1922 45.5285 34.9395 42.6453 34.8224 38.1915C34.7904 33.8764 36.516 30.1844 37.0209 29.4119C37.4726 30.1844 38.949 33.4005 39.1279 37.801C39.2493 42.1075 37.8262 45.4964 36.9932 47.0415ZM42.8156 26.1105C42.7539 28.8464 42.4279 31.7316 42.0125 33.4538C42.1637 30.4853 41.8037 26.2919 41.1198 23.016C40.4402 19.7402 38.5037 14.2791 36.9613 11.746C35.5424 14.1532 33.7849 18.8823 32.8667 22.9904C31.9421 27.0943 31.9144 32.0624 31.9144 33.5541C31.6694 32.2886 31.0558 27.8199 31.2326 23.3191C31.3775 19.6037 32.2424 15.7922 32.7175 14.0337C34.5284 8.17566 36.5799 4.43035 36.9613 3.83281C37.3469 4.43035 39.9332 9.0421 41.2711 13.8865C42.6026 18.7372 42.8689 23.3767 42.8156 26.1105Z" fill="#D8D8D8"/>
<path fill-rule="evenodd" clip-rule="evenodd" d="M26.9666 50.3391V58.8178C26.9773 58.8071 26.9879 58.7943 27.005 58.7836C29.962 55.83 34.7597 55.83 37.7188 58.7836C40.6822 61.7308 40.6822 66.5282 37.7188 69.4775C37.7081 69.4903 37.6975 69.501 37.6826 69.5138V69.5159C37.6655 69.5287 37.6527 69.5415 37.64 69.5564C34.683 72.478 30.8248 73.9441 26.9666 73.9441C23.0978 73.9441 19.2184 72.4631 16.2635 69.5223C11.0568 64.3215 10.4326 56.2803 14.4079 50.4052C14.9405 49.6113 15.5583 48.858 16.2635 48.158C19.2184 45.2087 23.0978 43.7383 26.9666 43.7383V23.5137C12.0815 23.5137 0 35.5584 0 50.4052C0 65.2648 12.0815 77.3096 26.9666 77.3096C34.7384 77.3096 41.7282 74.0273 46.6452 68.7903V50.3391H26.9666Z" fill="#D8D8D8"/>
<path fill-rule="evenodd" clip-rule="evenodd" d="M109.443 65.1852H109.023V70.642H109.443C110.05 70.642 110.27 70.4692 110.27 69.782V66.0154C110.27 65.326 110.05 65.1852 109.443 65.1852ZM153.176 68.8323H152.569V71.8883H153.176C153.787 71.8883 153.973 71.7326 153.973 71.0646V69.654C153.973 68.9839 153.787 68.8323 153.176 68.8323ZM105.106 66.0474V69.7969C105.106 70.4841 105.325 70.642 105.928 70.642H106.369V65.1852H105.928C105.325 65.1852 105.106 65.3602 105.106 66.0474ZM53.8438 77.3089H161.534V59.3271H53.8438V77.3089ZM65.5333 73.9584H62.8021V68.8323H61.4003V73.9584H58.6691V62.2466H61.4003V66.7666H62.8021V62.2466H65.5333V73.9584ZM88.1731 64.4596H84.4385V66.7623H87.7811V68.9839H84.4385V71.7432H88.1731V73.9669H81.6221V62.2359H88.1731V64.4596ZM112.918 69.782C112.918 72.1594 111.712 72.7996 109.023 72.7996V73.9584H106.369V72.7996C103.672 72.7996 102.451 72.1594 102.451 69.782V66.1221C102.451 63.7319 103.623 63.1237 106.369 63.1237V62.2466H109.023V63.1237C111.752 63.1237 112.918 63.7319 112.918 66.1221V69.782ZM133.921 64.4596H131.853V73.9669H129.256V64.4596H127.04V62.2359H133.921V64.4596ZM156.7 70.9387C156.7 73.5017 155.534 73.9584 152.569 73.9584H149.838V62.2466H152.569V66.7666H153.025C155.707 66.7666 156.7 67.394 156.7 69.7351V70.9387Z" fill="#D8D8D8"/>
<path fill-rule="evenodd" clip-rule="evenodd" d="M192.822 21.5879L181.367 79.0907H184.015L195.47 21.5879H192.822Z" fill="#D8D8D8"/>
</g>
<mask id="mask1_714_2389" style="mask-type:luminance" maskUnits="userSpaceOnUse" x="0" y="0" width="435" height="87">
<path d="M435 0H0V87H435V0Z" fill="#D8D8D8"/>
</mask>
<g mask="url(#mask1_714_2389)">
<path d="M227.076 32.3235H220.361V45.8718H217.039V29.5H227.076V32.3235Z" fill="#D8D8D8"/>
<path d="M226.391 45.8718L232.085 29.5H235.265L240.959 45.8718H237.424L236.427 42.7635H230.946L229.95 45.8718H226.391ZM231.824 39.9637H235.526L233.675 34.198L231.824 39.9637Z" fill="#D8D8D8"/>
<path d="M246.35 35.9782H248.13C249.079 35.9782 249.751 35.7963 250.147 35.4325C250.542 35.0687 250.74 34.5862 250.74 33.9851C250.74 33.4157 250.558 32.953 250.194 32.5971C249.83 32.2412 249.198 32.0632 248.296 32.0632C247.41 32.0632 246.754 32.2491 246.327 32.6208C245.9 32.9925 245.583 33.471 245.378 34.0563H242.459C242.522 33.3287 242.724 32.6682 243.064 32.0751C243.404 31.4819 243.843 30.9797 244.381 30.5684C244.919 30.1571 245.532 29.8407 246.22 29.6193C246.908 29.3978 247.64 29.2871 248.415 29.2871C249.158 29.2871 249.87 29.3781 250.55 29.56C251.23 29.7419 251.831 30.0147 252.353 30.3786C252.875 30.7424 253.291 31.2011 253.599 31.7547C253.908 32.3084 254.062 32.949 254.062 33.6767C254.062 34.5308 253.872 35.2427 253.492 35.8121C253.113 36.3816 252.591 36.864 251.926 37.2595C252.733 37.5917 253.378 38.086 253.86 38.7424C254.343 39.3989 254.584 40.2096 254.584 41.1745C254.584 41.9179 254.445 42.5902 254.169 43.1913C253.892 43.7924 253.488 44.3065 252.959 44.7336C252.429 45.1607 251.78 45.4928 251.013 45.7301C250.246 45.9674 249.372 46.086 248.391 46.086C246.635 46.086 245.204 45.6866 244.096 44.8878C242.989 44.089 242.277 42.8354 241.961 41.127H245.14C245.441 41.8705 245.825 42.4162 246.291 42.7642C246.758 43.1122 247.418 43.2862 248.272 43.2862C250.265 43.2862 251.262 42.5348 251.262 41.0321C251.262 39.5294 250.202 38.778 248.083 38.778H246.35V35.9782Z" fill="#D8D8D8"/>
<path d="M270.161 29.5V45.8718H266.84V32.3235H260.908V45.8718H257.586V29.5H270.161Z" fill="#D8D8D8"/>
<path d="M277.306 40.1061V45.8718H273.984V29.5H279.845C281.727 29.5 283.218 29.935 284.318 30.805C285.417 31.675 285.967 32.9879 285.967 34.7437C285.967 36.4837 285.425 37.8125 284.341 38.7299C283.258 39.6474 281.759 40.1061 279.845 40.1061H277.306ZM279.37 37.3063C280.525 37.3063 281.36 37.1006 281.874 36.6894C282.388 36.2781 282.645 35.6295 282.645 34.7437C282.645 33.9528 282.388 33.3517 281.874 32.9405C281.36 32.5292 280.525 32.3235 279.37 32.3235H277.306V37.3063H279.37Z" fill="#D8D8D8"/>
<path d="M300.638 38.8492C300.638 40.0988 300.483 41.1784 300.175 42.088C299.867 42.9975 299.435 43.7489 298.882 44.3421C298.328 44.9352 297.664 45.3742 296.889 45.6589C296.114 45.9437 295.267 46.086 294.35 46.086C293.432 46.086 292.59 45.9437 291.823 45.6589C291.056 45.3742 290.395 44.9352 289.842 44.3421C289.288 43.7489 288.857 42.9975 288.549 42.088C288.24 41.1784 288.086 40.0988 288.086 38.8492V36.5239C288.086 35.2585 288.24 34.171 288.549 33.2614C288.857 32.3519 289.288 31.6005 289.842 31.0073C290.395 30.4142 291.056 29.9792 291.823 29.7023C292.59 29.4255 293.432 29.2871 294.35 29.2871C295.267 29.2871 296.114 29.4255 296.889 29.7023C297.664 29.9792 298.328 30.4142 298.882 31.0073C299.435 31.6005 299.867 32.3519 300.175 33.2614C300.483 34.171 300.638 35.2585 300.638 36.5239V38.8492ZM291.408 38.8492C291.408 40.4152 291.657 41.5462 292.155 42.2422C292.653 42.9382 293.385 43.2862 294.35 43.2862C295.315 43.2862 296.05 42.9382 296.557 42.2422C297.063 41.5462 297.316 40.4152 297.316 38.8492V36.5239C297.316 34.9579 297.063 33.8269 296.557 33.1309C296.05 32.4349 295.315 32.0869 294.35 32.0869C293.385 32.0869 292.653 32.4349 292.155 33.1309C291.657 33.8269 291.408 34.9579 291.408 36.5239V38.8492Z" fill="#D8D8D8"/>
<path d="M311.672 38.4215L316.228 29.5H319.384V45.8718H316.204V35.7165L312.645 42.9296H310.628L307.117 35.7877V45.8718H303.961V29.5H307.069L311.672 38.4215Z" fill="#D8D8D8"/>
<path d="M326.541 36.0013H332.211V29.5H335.533V45.8718H332.211V38.8011H326.541V45.8718H323.219V29.5H326.541V36.0013Z" fill="#D8D8D8"/>
<path d="M349.586 29.5V32.3235H342.705V36.0013H348.874V38.8011H342.705V43.072H349.586V45.8718H339.383V29.5H349.586Z" fill="#D8D8D8"/>
<path d="M358.542 29.5H361.864V30.6864C362.813 30.6864 363.691 30.7931 364.498 31.0067C365.304 31.2202 366.004 31.584 366.597 32.0981C367.191 32.6122 367.657 33.2924 367.997 34.1387C368.337 34.985 368.508 36.0408 368.508 37.3063V38.0655C368.508 39.331 368.337 40.3869 367.997 41.2331C367.657 42.0794 367.191 42.7596 366.597 43.2737C366.004 43.7878 365.304 44.1516 364.498 44.3651C363.691 44.5787 362.813 44.6855 361.864 44.6855V45.8718H358.542V44.6855C357.593 44.6855 356.711 44.5787 355.896 44.3651C355.082 44.1516 354.378 43.7878 353.785 43.2737C353.192 42.7596 352.729 42.0794 352.397 41.2331C352.065 40.3869 351.898 39.331 351.898 38.0655V37.3063C351.898 36.0408 352.065 34.985 352.397 34.1387C352.729 33.2924 353.192 32.6122 353.785 32.0981C354.378 31.584 355.082 31.2202 355.896 31.0067C356.711 30.7931 357.593 30.6864 358.542 30.6864V29.5ZM361.864 41.8856C362.418 41.8856 362.9 41.8263 363.311 41.7077C363.723 41.589 364.067 41.3874 364.343 41.1026C364.62 40.8179 364.83 40.4304 364.972 39.94C365.115 39.4496 365.186 38.8248 365.186 38.0655V37.3063C365.186 36.547 365.115 35.9222 364.972 35.4318C364.83 34.9415 364.62 34.5539 364.343 34.2692C364.067 33.9845 363.723 33.7828 363.311 33.6641C362.9 33.5455 362.418 33.4862 361.864 33.4862V41.8856ZM358.542 33.4862C357.988 33.4862 357.506 33.5455 357.095 33.6641C356.683 33.7828 356.339 33.9845 356.063 34.2692C355.786 34.5539 355.576 34.9415 355.434 35.4318C355.291 35.9222 355.22 36.547 355.22 37.3063V38.0655C355.22 38.8248 355.291 39.4496 355.434 39.94C355.576 40.4304 355.786 40.8179 356.063 41.1026C356.339 41.3874 356.683 41.589 357.095 41.7077C357.506 41.8263 357.988 41.8856 358.542 41.8856V33.4862Z" fill="#D8D8D8"/>
<path d="M382.182 29.5V32.3235H377.674V45.8718H374.352V32.3235H369.844V29.5H382.182Z" fill="#D8D8D8"/>
<path d="M387.908 29.5V35.503H390.447C391.538 35.503 392.467 35.6375 393.235 35.9064C394.002 36.1753 394.634 36.547 395.133 37.0215C395.631 37.4961 395.995 38.0497 396.224 38.6825C396.454 39.3152 396.568 39.9875 396.568 40.6993C396.568 41.4111 396.454 42.0794 396.224 42.7042C395.995 43.329 395.631 43.8748 395.133 44.3414C394.634 44.808 394.002 45.1798 393.235 45.4566C392.467 45.7334 391.538 45.8718 390.447 45.8718H384.586V29.5H387.908ZM387.908 38.3028V43.072H390.257C391.348 43.072 392.119 42.8585 392.57 42.4314C393.021 42.0043 393.246 41.4269 393.246 40.6993C393.246 39.9558 393.021 39.3705 392.57 38.9435C392.119 38.5164 391.348 38.3028 390.257 38.3028H387.908Z" fill="#D8D8D8"/>
<path d="M215.727 72.7634L219.523 65.9062C218.526 65.5582 217.755 65.0125 217.21 64.2691C216.664 63.5256 216.391 62.5528 216.391 61.3506C216.391 59.6897 216.949 58.448 218.064 57.6254C219.179 56.8029 220.686 56.3916 222.584 56.3916H228.373V72.7634H225.051V66.3333H222.774L219.381 72.7634H215.727ZM225.051 63.5335V59.2151H222.821C221.809 59.2151 221.038 59.3694 220.508 59.6778C219.978 59.9863 219.713 60.5439 219.713 61.3506C219.713 61.7144 219.76 62.0308 219.855 62.2997C219.95 62.5686 220.116 62.794 220.353 62.9759C220.591 63.1578 220.907 63.2962 221.302 63.3911C221.698 63.4861 222.204 63.5335 222.821 63.5335H225.051Z" fill="#D8D8D8"/>
<path d="M239.914 65.3121L244.47 56.3906H247.626V72.7624H244.446V62.6072L240.887 69.8203H238.87L235.359 62.6784V72.7624H232.203V56.3906H235.311L239.914 65.3121Z" fill="#D8D8D8"/>
<path d="M249.75 72.7624L255.445 56.3906H258.624L264.319 72.7624H260.783L259.787 69.6542H254.306L253.309 72.7624H249.75ZM255.184 66.8544H258.885L257.034 61.0886L255.184 66.8544Z" fill="#D8D8D8"/>
<path d="M278.77 56.3906V72.7624H275.449V59.2142H271.368V61.0174C271.368 62.3778 271.352 63.5246 271.32 64.4579C271.288 65.3912 271.241 66.1821 271.178 66.8306C271.114 67.4792 271.031 68.0249 270.929 68.4678C270.826 68.9107 270.703 69.322 270.561 69.7016C270.181 70.6982 269.58 71.4772 268.758 72.0388C267.935 72.6003 266.875 72.9127 265.578 72.976V69.6779C266.084 69.5988 266.496 69.4406 266.812 69.2034C267.128 68.9661 267.373 68.6181 267.547 68.1594C267.642 67.8904 267.725 67.5622 267.797 67.1747C267.868 66.7871 267.919 66.3086 267.951 65.7392C267.982 65.1697 268.006 64.4974 268.022 63.7224C268.038 62.9473 268.046 62.0456 268.046 61.0174V56.3906H278.77Z" fill="#D8D8D8"/>
</g>
</svg>
