<svg width="79" height="27" viewBox="0 0 79 27" fill="none" xmlns="http://www.w3.org/2000/svg">
<path d="M15.2719 18.5122C14.3863 16.7428 12.4848 15.4262 10.7513 14.5193C9.12587 13.6711 7.39631 12.9743 5.83864 12.0022C4.89701 11.415 4.0257 10.6465 3.54643 9.6417C2.70898 7.88272 3.30939 5.60442 4.79933 4.35566C7.1215 6.92886 9.4437 9.50335 11.7659 12.0766C12.8377 11.6238 13.9474 11.0314 14.4775 9.99006C15.044 8.877 14.7952 7.48995 14.1792 6.4043C13.3053 4.86456 11.7411 3.76977 10.0311 3.34568C8.32101 2.9216 6.48072 3.14082 4.85534 3.82588C3.53471 2.55102 2.21407 1.27616 0.89475 0C0.836139 0.0482802 0.77753 0.0978654 0.718923 0.146145C1.97052 1.43014 4.47504 3.99943 4.47504 3.99943C4.04394 4.27606 3.60113 4.52921 3.21562 4.86847C2.85746 5.18425 2.54489 5.54961 2.28701 5.95151C2.01611 6.37429 1.80642 6.84012 1.66576 7.32293C1.49645 7.90882 1.42742 8.52468 1.47171 9.13277C1.47301 9.14454 1.47301 9.15499 1.47432 9.16668C1.70484 12.0648 4.36042 13.709 6.71385 14.8507C9.06465 15.9912 12.2738 17.0964 13.5606 19.5809C14.7848 21.9427 13.0956 24.4742 10.862 25.3119C9.28084 25.9043 7.46925 25.9095 5.92591 25.2231C4.52192 24.5981 3.40577 23.4538 2.52014 22.1945C1.60455 20.891 0.90256 19.4491 0.224012 18.0059C0.0898655 18.0542 0.13545 18.0385 0 18.0855C0.606916 20.6209 1.14611 23.1732 1.61758 25.7359C1.68921 25.7386 1.76214 25.7399 1.83378 25.7412C1.85331 25.4959 1.85982 25.2492 1.87675 25.0039C1.88978 24.7899 1.89238 24.726 1.90671 24.512C1.91973 24.2823 2.0083 23.8556 2.13854 23.6599C2.29352 23.425 2.48888 23.3859 2.73633 23.472C3.0424 23.5777 3.27162 23.8034 3.51386 24.0096C3.78737 24.2445 4.05306 24.4872 4.3474 24.6973C4.63913 24.9074 4.9452 25.0966 5.26428 25.2635C5.89074 25.5924 6.55626 25.8442 7.24263 26.01C7.63985 26.1065 8.03969 26.1653 8.44471 26.2109C9.35252 26.2983 10.2746 26.237 11.1602 26.0152C13.2376 25.4972 15.2172 23.8713 15.6613 21.6974C15.8958 20.5295 15.7395 19.4465 15.2719 18.5122ZM10.4791 3.77499C11.7815 4.24213 12.9237 5.21687 13.4954 6.49564C13.7377 7.03717 13.8927 7.66611 13.7755 8.25985C13.6608 8.84046 13.2363 9.42246 12.6255 9.52162C12.1227 9.60252 11.5796 9.39505 11.1407 9.16668C10.7252 8.95008 10.3319 8.67734 9.96851 8.38248C8.87322 7.49517 7.8287 6.55045 6.78028 5.60833C6.40388 5.27037 6.02749 4.9311 5.6537 4.59184C5.62115 4.56313 5.18874 4.17559 5.16661 4.14688C6.70474 3.27914 8.76385 3.15909 10.4791 3.77499Z" fill="white"/>
<path d="M32.7385 25.9052C32.4402 25.9052 32.172 25.8426 31.9349 25.6978C31.7461 25.5803 31.5988 25.412 31.5103 25.2072L24.0983 3.19922H21.4037V3.56849C21.4037 3.56849 21.4701 3.56719 21.7958 3.56849C22.5577 3.59198 22.6149 3.95865 22.9679 4.74941C23.0395 4.9086 23.1046 5.0717 23.1593 5.23873L23.4276 6.04775L23.7767 7.13209L23.933 7.6175L23.9486 7.66579L24.1792 8.36783L17.2334 25.2163C17.0798 25.5856 16.7268 25.964 16.2723 25.9653L15.8359 25.9666V26.3346H18.6895L18.6804 25.9653L18.3223 25.9678C18.2519 25.9666 18.1725 25.964 18.097 25.9497C17.9003 25.9131 17.7818 25.7122 17.8287 25.5164C17.9054 25.198 18.1881 24.6056 18.1881 24.6056L19.3563 21.7584V21.774H28.5995L29.7846 25.3259C29.9253 25.6665 29.7743 25.9157 29.3392 25.9052H29.0149L29.024 26.2758L32.7411 26.2733L32.7385 25.9052ZM19.6051 21.1529L24.4774 9.27598L25.742 13.1306L25.8709 13.5207L27.3231 17.9416L27.3375 17.986L27.4898 18.4479L27.5536 18.6424L28.3911 21.1529H19.6051Z" fill="white"/>
<path d="M37.5293 4.12698V25.3454C37.5293 25.6508 37.8483 25.9079 38.2443 25.9079H38.3719V26.2771H35.1641V25.9079H35.3087C35.7046 25.9079 36.0263 25.6508 36.0263 25.3454V4.12698C36.0263 3.82164 35.7059 3.57502 35.31 3.57502L35.1641 3.57633V3.19922H38.3719V3.57372H38.2456C37.851 3.57372 37.5293 3.82164 37.5293 4.12698Z" fill="white"/>
<path d="M61.5805 3.19922V3.5685L61.4855 3.57372C61.1182 3.57372 60.8199 3.82034 60.8199 4.12568V25.3442C60.8199 25.3637 60.8213 25.3807 60.8238 25.399V25.4002L60.8265 25.96H60.1283L44.4996 6.10778L44.4736 25.3442C44.4736 25.6495 44.6415 25.8962 45.0088 25.8962L45.3292 25.8987L45.3305 26.2759L42.5838 26.2602L42.5825 25.9418V25.9157C43.4447 25.9053 43.4564 25.6482 43.4564 25.3442V4.9373C42.4431 3.69115 40.6797 3.5685 40.6797 3.5685V3.19922H44.2938L44.7888 3.84643L59.6192 22.6105L59.6829 4.12698C59.6829 3.82164 59.3847 3.57502 59.0174 3.57502L58.835 3.5685V3.20053H61.5805V3.19922Z" fill="white"/>
<path d="M78.9987 8.72697H78.7552C78.7552 8.72697 77.9164 6.54394 77.4737 5.90195C77.0777 5.3265 76.9162 5.06422 76.2012 4.57228C75.5995 4.18866 74.8272 4.05164 74.0027 4.00206C73.6667 3.98248 72.9361 3.98379 72.1781 3.99031C72.0257 3.99161 71.8733 4.03598 71.7574 4.13385C71.6467 4.2278 71.579 4.35176 71.579 4.48617V25.4058C71.579 25.7007 71.8994 25.9395 72.2953 25.9395L72.3148 25.9435V26.2932L69.3168 26.3075V25.9604L69.3363 25.9539C69.7309 25.9539 70.0721 25.7151 70.0721 25.4202V4.50052C70.0721 4.36611 70.007 4.24476 69.8976 4.15081C69.7817 4.05164 69.6293 4.00727 69.4756 4.00597C68.6902 3.99945 68.013 3.99553 67.6575 4.01641C66.8331 4.06599 65.9305 4.20301 65.3288 4.58663C64.6138 5.07857 64.4523 5.34086 64.0564 5.9163C63.6135 6.55829 62.7669 8.74137 62.7669 8.74137H62.5312C62.5312 8.74137 63.1369 6.01547 63.5132 4.6571L63.9496 2.75069H64.253C64.253 2.77026 64.2596 3.39268 65.0826 3.48272C65.0839 3.48272 65.0839 3.48272 65.0852 3.48272C66.4398 3.48402 67.7942 3.48403 69.1487 3.48403V3.48272L72.3774 3.46836V3.46967C73.7331 3.46967 75.0876 3.46967 76.4422 3.46836C76.4435 3.46836 76.4435 3.46836 76.4447 3.46836C77.2678 3.37833 77.2743 2.75591 77.2743 2.73633H77.5779L78.0141 4.64274C78.3932 6.00111 78.9987 8.72697 78.9987 8.72697Z" fill="white"/>
</svg>
