<svg width="183" height="42" viewBox="0 0 183 42" fill="none" xmlns="http://www.w3.org/2000/svg">
<path fill-rule="evenodd" clip-rule="evenodd" d="M81.3621 8.82812C77.9381 8.82812 74.4387 11.5894 73.5551 15.0085H109.844C110.737 11.5894 108.679 8.82812 105.255 8.82812H81.3621ZM75.1667 32.6708H99.0697C102.489 32.6708 105.983 29.9095 106.867 26.4905L107.554 23.8396C108.448 20.4206 106.39 17.6593 102.961 17.6593H72.8673C71.9837 21.0783 74.032 23.8396 77.4561 23.8396H101.359L100.671 26.4905H70.5729C69.6893 29.9045 71.7376 32.6708 75.1667 32.6708ZM119.428 8.82812C116.004 8.82812 112.515 11.5894 111.621 15.0085H147.91C148.803 11.5894 146.745 8.82812 143.326 8.82812H119.428ZM113.228 32.6708H137.131C140.555 32.6708 144.044 29.9095 144.938 26.4905L145.625 23.8396C146.509 20.4206 144.451 17.6593 141.037 17.6593H110.938C110.055 21.0783 112.113 23.8396 115.527 23.8396H139.43L138.742 26.4905H108.644C107.755 29.9045 109.814 32.6708 113.228 32.6708ZM151.299 32.6708H175.192C178.616 32.6708 182.105 29.9095 182.999 26.4905H152.9L157.494 8.83314C154.07 8.83314 150.581 11.5945 149.687 15.0135L146.71 26.4905C145.821 29.9045 147.875 32.6708 151.299 32.6708ZM42.4576 15.0085H65.5824L62.5952 26.4855H42.4526L36.2773 32.6708H60.9986C64.4176 32.6708 67.912 29.9095 68.7956 26.4905L71.7778 15.0135C72.6614 11.5945 70.613 8.83314 67.189 8.83314H36.207L42.4576 15.0085Z" fill="#D8D8D8"/>
<path fill-rule="evenodd" clip-rule="evenodd" d="M21.0539 11.1758L10.9023 21.1868L21.0539 31.2029L31.2206 21.1868L21.0539 11.1758Z" fill="#777777"/>
<path fill-rule="evenodd" clip-rule="evenodd" d="M34.9118 20.7478L28.375 27.1842H32.8785V31.8483L44.1446 20.7478L32.8785 9.65234V14.3114H28.385L34.9118 20.7478Z" fill="#777777"/>
<path fill-rule="evenodd" clip-rule="evenodd" d="M25.7656 29.7532L21.0613 34.3972L7.20453 20.7463L21.0563 7.09533L25.7606 11.7394H30.264L30.2741 7.07023L24.5205 1.41204C22.6127 -0.470679 19.515 -0.470679 17.5971 1.41204L1.43086 17.3423C-0.476955 19.225 -0.476955 22.2776 1.43086 24.1603L17.5971 40.0855C19.515 41.9683 22.6127 41.9683 24.5205 40.0855L30.2791 34.4173L30.2691 29.7532H25.7656Z" fill="#939393"/>
</svg>
