<svg width="44" height="40" viewBox="0 0 44 40" fill="none" xmlns="http://www.w3.org/2000/svg">
<path d="M40.3609 1.24183C39.0769 1.75783 2.63291 17.3888 2.63291 17.3888C2.63291 17.3888 0.867909 18.0028 1.00791 19.1368C1.14791 20.2708 2.58791 20.7898 2.58791 20.7898L11.9679 24.0018C11.9679 24.0018 14.7999 33.4498 15.3579 35.2428C15.9159 37.0388 16.3619 37.0808 16.3619 37.0808C16.8799 37.3108 17.3539 36.9438 17.3539 36.9438L23.4149 31.3218L32.8629 38.6908C35.4169 39.8248 36.3459 37.4628 36.3459 37.4628L42.8549 3.53783C43.4309 0.912834 41.7169 0.698834 40.3609 1.24183Z" stroke="#01FF02" stroke-width="2" stroke-miterlimit="10"/>
<path d="M12 24L36 8L19 28" stroke="#01FF02" stroke-width="2" stroke-miterlimit="10" stroke-linecap="round" stroke-linejoin="round"/>
<path d="M17 37L19 28L23 31" stroke="#01FF02" stroke-width="2" stroke-miterlimit="10" stroke-linecap="round" stroke-linejoin="round"/>
</svg>
