<svg width="37" height="28" viewBox="0 0 37 28" fill="none" xmlns="http://www.w3.org/2000/svg">
<path d="M18.14 0C12.5447 0 7.29043 0.423146 4.49279 1.01489C2.62879 1.43803 1.01642 2.70747 0.678719 4.6546C0.341015 6.68438 0 9.73236 0 13.5407C0 17.349 0.337704 20.311 0.76149 22.4267C1.1025 24.2879 2.71157 25.6433 4.57556 26.0664C7.54537 26.6582 12.6275 27.0813 18.2228 27.0813C23.8181 27.0813 28.9002 26.6582 31.8667 26.0664C33.734 25.6433 35.343 24.3739 35.6807 22.4267C36.0218 20.311 36.4455 17.2663 36.5283 13.458C36.5283 9.64971 36.1045 6.60174 35.6807 4.48601C35.343 2.62483 33.734 1.26944 31.8667 0.846292C28.9002 0.423146 23.732 0 18.14 0ZM18.14 1.69258C24.2419 1.69258 29.1551 2.19838 31.529 2.62152C32.8003 2.96202 33.8168 3.80831 33.9856 4.90915C34.4955 7.61663 34.8332 10.496 34.8332 13.458C34.7504 17.0944 34.3266 20.0565 33.9856 22.1722C33.734 23.7788 32.0388 24.2879 31.529 24.4598C28.4764 25.0516 23.391 25.4714 18.3055 25.4714C13.2201 25.4714 8.05192 25.1342 5.08543 24.4598C3.81407 24.1193 2.79765 23.273 2.62879 22.1722C1.95007 19.8019 1.69514 16.6713 1.69514 13.5407C1.69514 9.6464 2.03616 6.77033 2.37386 4.99511C2.62879 3.38517 4.40671 2.87607 4.83049 2.70747C7.62814 2.11573 12.7996 1.69258 18.14 1.69258ZM13.5611 6.77033V20.311L25.4271 13.5407L13.5611 6.77033ZM15.2563 9.64971L22.0368 13.5407L15.2563 17.4316V9.64971Z" fill="#04E605"/>
</svg>
