<svg width="281" height="125" viewBox="0 0 281 125" fill="none" xmlns="http://www.w3.org/2000/svg">
<path fill-rule="evenodd" clip-rule="evenodd" d="M198.177 83.9053C193.679 83.9053 189.681 83.5142 186.14 82.7537C182.62 81.9933 179.578 81.0155 177.014 79.864L179.73 67.3272H181.207C183.619 69.5217 186.487 71.2382 189.746 72.4332C193.027 73.6282 196.525 74.2366 200.306 74.2366C204.086 74.2366 206.998 73.7151 208.801 72.6722C210.605 71.6293 211.517 70.1301 211.517 68.1963C211.517 67.4793 211.365 66.8492 211.083 66.3061C210.778 65.7846 210.214 65.2631 209.366 64.7417C208.519 64.2202 207.367 63.7205 205.89 63.2208C204.412 62.721 202.522 62.1344 200.197 61.4826C197.633 60.7873 195.33 60.0268 193.288 59.2012C191.245 58.3755 189.507 57.4195 188.073 56.2897C186.639 55.1381 185.553 53.8128 184.814 52.3136C184.075 50.8144 183.706 49.0327 183.706 46.9469C183.706 41.7106 186.031 37.5172 190.681 34.3884C195.33 31.2597 201.696 29.6953 209.757 29.6953C213.646 29.6953 217.297 30.0212 220.751 30.6513C224.184 31.2814 227.117 32.1505 229.529 33.2152L226.944 45.2522H225.51C223.663 43.5791 221.251 42.1669 218.253 41.037C215.254 39.9072 211.973 39.3423 208.41 39.3423C204.847 39.3423 202.24 39.842 200.328 40.8415C198.416 41.841 197.481 43.2315 197.481 44.9914C197.481 45.8171 197.612 46.4906 197.894 47.0338C198.177 47.577 198.741 48.0985 199.632 48.6199C200.393 49.0762 201.566 49.5976 203.196 50.1408C204.825 50.684 206.715 51.2707 208.91 51.8356C214.798 53.4 218.991 55.2468 221.512 57.3543C224.032 59.4619 225.292 62.3299 225.292 65.9367C225.292 68.9568 224.597 71.6075 223.25 73.9107C221.881 76.2138 219.991 78.0606 217.601 79.4946C215.08 81.0155 212.212 82.1236 209.019 82.8189C205.825 83.5142 202.196 83.8836 198.155 83.8836L198.177 83.9053ZM180.599 40.7763H164.217L154.439 82.971H140.816L150.593 40.7763H134.211L136.536 30.6513H182.924L180.599 40.7763ZM237.525 82.7537C241.045 83.5359 245.043 83.9053 249.54 83.9053C253.582 83.9053 257.21 83.5576 260.426 82.8406C263.62 82.1454 266.488 81.0155 269.008 79.5163C271.398 78.0823 273.288 76.2355 274.657 73.9324C276.026 71.6293 276.7 68.9785 276.7 65.9584C276.7 62.3517 275.439 59.4836 272.919 57.3761C270.399 55.2685 266.183 53.4217 260.317 51.8573C258.123 51.2707 256.232 50.7057 254.603 50.1626C252.973 49.6194 251.8 49.0979 251.039 48.6416C250.17 48.1202 249.605 47.5987 249.323 47.0555C249.04 46.5124 248.91 45.8388 248.91 45.0132C248.91 43.2315 249.866 41.8627 251.778 40.8632C253.69 39.8638 256.384 39.364 259.861 39.364C263.337 39.364 266.683 39.9289 269.703 41.0588C272.702 42.1886 275.113 43.5791 276.96 45.2739H278.416L281.002 33.2369C278.59 32.1722 275.678 31.3031 272.224 30.673C268.769 30.043 265.119 29.717 261.23 29.717C253.147 29.717 246.803 31.2814 242.153 34.4102C237.503 37.5389 235.178 41.7323 235.178 46.9686C235.178 49.0545 235.548 50.8361 236.286 52.3353C237.025 53.8345 238.112 55.1599 239.546 56.3114C240.98 57.4413 242.718 58.419 244.76 59.2229C246.803 60.0486 249.106 60.809 251.669 61.5043C253.994 62.1561 255.906 62.7428 257.362 63.2425C258.84 63.7422 259.991 64.2637 260.838 64.7634C261.686 65.2849 262.251 65.8063 262.555 66.3278C262.859 66.8492 262.989 67.4793 262.989 68.2181C262.989 70.1735 262.077 71.651 260.274 72.6939C258.448 73.7368 255.624 74.2583 251.756 74.2583C247.889 74.2583 244.478 73.6499 241.197 72.4549C237.916 71.2382 235.07 69.5434 232.658 67.349H231.181L228.465 79.8857C231.028 81.0373 234.07 81.9933 237.59 82.7755L237.525 82.7537Z" fill="#D8D8D8"/>
<path fill-rule="evenodd" clip-rule="evenodd" d="M62.6402 0.0217274C53.2974 0.0217274 44.4326 2.06411 36.4587 5.71432C69.0933 31.331 93.9277 66.3122 106.921 106.573C118.284 95.2748 125.324 79.6745 125.324 62.4012C125.324 27.9415 97.252 0 62.6185 0L62.6402 0.0217274ZM62.7054 124.868C72.4828 124.868 81.7386 122.63 89.9951 118.654C84.7153 101.206 77.2411 84.7153 67.8548 69.5061C62.5533 72.0047 35.8286 91.5594 18.2511 106.486C29.6145 117.85 45.3234 124.868 62.7054 124.868ZM20.5324 16.3173C28.137 22.0968 37.4581 30.7878 45.8232 39.9133C49.7341 44.3023 53.4495 48.8433 56.9694 53.5581C50.299 57.5343 23.9219 76.0678 6.6486 90.4513C2.41175 82.0428 0 72.5479 0 62.4881C0 44.1936 7.93052 27.7242 20.5324 16.3173Z" fill="#D8D8D8"/>
<path fill-rule="evenodd" clip-rule="evenodd" d="M148.467 98.8494H150.748V103.217C150.161 103.651 149.488 103.999 148.706 104.238C147.923 104.477 147.163 104.585 146.359 104.585C145.229 104.585 144.23 104.346 143.317 103.868C142.426 103.39 141.709 102.739 141.21 101.891C140.71 101.044 140.449 100.088 140.449 99.0232C140.449 97.9585 140.71 97.0025 141.21 96.1551C141.709 95.3078 142.426 94.656 143.339 94.1779C144.252 93.6999 145.273 93.4609 146.403 93.4609C147.359 93.4609 148.206 93.613 148.988 93.9389C149.77 94.2649 150.422 94.7211 150.944 95.3295L149.336 96.807C148.554 96.0031 147.619 95.5902 146.533 95.5902C145.838 95.5902 145.229 95.7423 144.686 96.0248C144.143 96.3072 143.73 96.7201 143.426 97.2415C143.122 97.763 142.97 98.3713 142.97 99.0449C142.97 99.7184 143.122 100.305 143.426 100.827C143.73 101.348 144.143 101.761 144.664 102.043C145.186 102.326 145.794 102.478 146.489 102.478C147.206 102.478 147.858 102.326 148.445 102.022V98.8711L148.467 98.8494ZM178.559 104.412L176.473 101.413H174.17V104.412H171.672V93.6348H176.365C177.321 93.6348 178.168 93.7869 178.863 94.1128C179.58 94.4387 180.124 94.8732 180.493 95.4599C180.884 96.0465 181.058 96.7418 181.058 97.5457C181.058 98.3496 180.862 99.0449 180.471 99.6098C180.08 100.196 179.537 100.631 178.82 100.935L181.253 104.412H178.559ZM177.929 96.1551C177.538 95.8292 176.973 95.6771 176.213 95.6771H174.17V99.436H176.213C176.973 99.436 177.538 99.2622 177.929 98.9363C178.32 98.6103 178.516 98.1541 178.516 97.5457C178.516 96.9373 178.32 96.4811 177.929 96.1551ZM201.699 101.891C202.199 102.739 202.916 103.412 203.828 103.89C204.741 104.368 205.74 104.607 206.87 104.607C208 104.607 208.999 104.368 209.912 103.89C210.803 103.412 211.52 102.739 212.041 101.891C212.563 101.044 212.823 100.088 212.823 99.0232C212.823 97.9585 212.563 97.0025 212.041 96.1769C211.52 95.3295 210.824 94.656 209.912 94.1779C209.021 93.6999 208 93.4609 206.87 93.4609C205.74 93.4609 204.741 93.6999 203.828 94.1779C202.916 94.656 202.22 95.3295 201.699 96.1769C201.199 97.0242 200.938 97.9802 200.938 99.0232C200.938 100.066 201.199 101.044 201.699 101.891ZM209.803 100.827C209.499 101.348 209.108 101.761 208.586 102.043C208.065 102.326 207.5 102.478 206.848 102.478C206.196 102.478 205.632 102.326 205.11 102.043C204.589 101.739 204.198 101.348 203.893 100.827C203.589 100.305 203.459 99.6967 203.459 99.0449C203.459 98.3931 203.611 97.7847 203.893 97.2632C204.198 96.7418 204.589 96.329 205.11 96.0465C205.632 95.7641 206.196 95.612 206.848 95.612C207.5 95.612 208.065 95.7641 208.586 96.0465C209.108 96.3507 209.499 96.7418 209.803 97.2632C210.107 97.7847 210.238 98.3931 210.238 99.0449C210.238 99.6967 210.086 100.305 209.803 100.827ZM234.442 103.325C233.573 102.478 233.16 101.261 233.16 99.675V93.6348H235.659V99.5881C235.659 101.522 236.463 102.478 238.071 102.478C238.853 102.478 239.461 102.239 239.874 101.783C240.287 101.326 240.504 100.588 240.504 99.5881V93.6348H242.981V99.675C242.981 101.261 242.546 102.478 241.677 103.325C240.808 104.173 239.613 104.607 238.071 104.607C236.528 104.607 235.311 104.173 234.442 103.325ZM272.835 95.4599C272.443 94.8732 271.9 94.417 271.205 94.1128C270.488 93.7869 269.662 93.6348 268.706 93.6348H264.013V104.412H266.512V101.435H268.706C269.662 101.435 270.488 101.283 271.205 100.957C271.922 100.653 272.465 100.196 272.835 99.6098C273.226 99.0232 273.399 98.3279 273.399 97.5457C273.399 96.7635 273.204 96.0465 272.835 95.4599ZM270.879 97.5457C270.879 98.1323 270.684 98.5886 270.292 98.9145C269.901 99.2404 269.336 99.3925 268.576 99.3925H266.534V95.6554H268.576C269.336 95.6554 269.901 95.8075 270.292 96.1334C270.684 96.4593 270.879 96.9156 270.879 97.524V97.5457Z" fill="#D8D8D8"/>
</svg>
