<svg width="291" height="105" viewBox="0 0 291 105" fill="none" xmlns="http://www.w3.org/2000/svg">
<path d="M67.7499 57.8108H80.5C80 49.5 75.052 41.9549 69 36L60 44C63.7281 47.6423 66.5374 52.7418 67.7499 57.8108Z" fill="#D8D8D8"/>
<path d="M40.7082 36.5438C44.4742 36.5421 48.2031 37.2885 51.6782 38.7398C55.1533 40.1911 58.3055 42.3183 60.9518 44.9979L69.6297 36.32C62.0305 28.6756 51.7108 24.3556 40.9321 24.3066H40.4844V36.5438H40.7082Z" fill="#D8D8D8"/>
<path d="M40.6949 36.5439V24.3067C35.2992 24.2979 29.957 25.377 24.9878 27.4796C20.0186 29.5821 15.5242 32.665 11.7734 36.5439L20.4514 44.998C23.1022 42.3245 26.2553 40.2013 29.7294 38.7505C33.2035 37.2997 36.9301 36.5497 40.6949 36.5439Z" fill="#D8D8D8"/>
<path d="M12.2388 64.8473C12.2157 61.0781 12.9524 57.3429 14.4049 53.8648C15.8574 50.3867 17.996 47.237 20.6929 44.6037L12.015 35.9258C8.16778 39.6888 5.12057 44.1904 3.05619 49.1603C0.991818 54.1302 -0.0471507 59.4659 0.00164221 64.8473V65.2912H12.2388V64.8473Z" fill="#D8D8D8"/>
<path d="M12.2372 63.748H0C0.01181 69.1738 1.09942 74.5434 3.1999 79.5462C5.30039 84.5489 8.37204 89.0855 12.2372 92.8934L20.6913 84.2154C17.9906 81.5384 15.8517 78.349 14.4 74.8344C12.9483 71.3197 12.213 67.5506 12.2372 63.748Z" fill="#D8D8D8"/>
<path d="M40.6949 92.2275C36.9289 92.2293 33.2001 91.4828 29.725 90.0315C26.2498 88.5802 23.0976 86.453 20.4514 83.7734L11.7734 92.4514C19.3726 100.096 29.6923 104.416 40.4711 104.465H40.9151V92.2275H40.6949Z" fill="#D8D8D8"/>
<path d="M63.1754 81.1035C60.5337 84.6109 57.1025 87.4461 53.16 89.3791C49.2175 91.3121 44.8748 92.2884 40.4844 92.2289V104.466C46.7362 104.485 52.9066 103.048 58.5063 100.268C64.106 97.4877 68.981 93.4414 72.745 88.4495L63.1754 81.1035Z" fill="#D8D8D8"/>
<path d="M243.164 57.8108H255.621C254.151 49.4487 250.108 41.7538 244.056 35.7988L235.602 44.4768C239.252 48.1781 241.861 52.7778 243.164 57.8108Z" fill="#D8D8D8"/>
<path d="M215.794 36.5438C219.56 36.5421 223.289 37.2885 226.764 38.7398C230.239 40.1911 233.391 42.3183 236.038 44.9979L244.716 36.32C237.116 28.6756 226.797 24.3556 216.018 24.3066H215.57V36.5438H215.794Z" fill="#D8D8D8"/>
<path d="M216.046 36.5439V24.3067C210.651 24.2979 205.309 25.377 200.339 27.4796C195.37 29.5821 190.876 32.665 187.125 36.5439L195.803 44.998C198.454 42.3245 201.607 40.2013 205.081 38.7505C208.555 37.2997 212.282 36.5497 216.046 36.5439Z" fill="#D8D8D8"/>
<path d="M187.729 64.8492C187.706 61.0801 188.443 57.3449 189.895 53.8668C191.348 50.3886 193.487 47.2389 196.183 44.6057L187.506 35.9277C179.861 43.5269 175.541 53.8466 175.492 64.6254V65.0693H187.729V64.8492Z" fill="#D8D8D8"/>
<path d="M187.729 63.748H175.492C175.504 69.1738 176.592 74.5434 178.692 79.5462C180.793 84.5489 183.864 89.0855 187.729 92.8934L196.183 84.2154C190.815 78.7492 187.783 71.4093 187.729 63.748Z" fill="#D8D8D8"/>
<path d="M216.057 92.2275C212.291 92.2293 208.562 91.4828 205.087 90.0315C201.612 88.5802 198.46 86.453 195.813 83.7734L187.359 92.4514C194.959 100.096 205.278 104.416 216.057 104.465H216.501V92.2275H216.057Z" fill="#D8D8D8"/>
<path d="M238.058 81.1035C235.417 84.6109 231.985 87.4461 228.043 89.3791C224.1 91.3121 219.758 92.2884 215.367 92.2289V104.466C221.618 104.485 227.788 103.047 233.387 100.267C238.986 97.4869 243.86 93.4409 247.624 88.4495L238.058 81.1035Z" fill="#D8D8D8"/>
<path d="M267.664 41.2148H279.901V77.9226H267.664V41.2148Z" fill="#D8D8D8"/>
<path d="M279.873 77.0975C279.873 85.7754 283.876 89.5548 290.998 94.4496L284.1 104.459C273.653 97.5612 267.859 89.9987 267.859 77.0938L279.873 77.0975Z" fill="#D8D8D8"/>
<path d="M131.184 24.3996C126.186 24.3928 121.236 25.3715 116.617 27.2799C111.998 29.1883 107.801 31.9889 104.266 35.5213V60.2157C105.821 50.426 114.499 36.4092 131.184 36.4092H132.075V24.1758C131.805 24.3317 131.496 24.4092 131.184 24.3996Z" fill="#D8D8D8"/>
<path d="M164.505 61.9739H152.268V57.9707C152.287 52.3184 150.08 46.8859 146.125 42.8478C142.17 38.8097 136.784 36.4904 131.133 36.3915V24.1543C140.007 24.1928 148.505 27.7493 154.761 34.0439C161.017 40.3385 164.521 48.8572 164.505 57.7319V61.9739Z" fill="#D8D8D8"/>
<path d="M92.1953 27.541H104.432V70.0353H92.1953V27.541Z" fill="#D8D8D8"/>
<path d="M267.664 0H279.901V42.4943H267.664V0Z" fill="#D8D8D8"/>
<path d="M152.414 60.6367H164.651V103.131H152.414V60.6367Z" fill="#D8D8D8"/>
<path d="M38.2734 57.4258H80.7677V69.6629H38.2734V57.4258Z" fill="#D8D8D8"/>
<path d="M213.156 57.4258H255.651V69.6629H213.156V57.4258Z" fill="#D8D8D8"/>
</svg>
