<svg width="256" height="46" viewBox="0 0 256 46" fill="none" xmlns="http://www.w3.org/2000/svg">
<path d="M27.0179 24.4667C26.2528 23.5891 25.9827 22.3963 26.2753 21.2936L30.6411 4.9781C31.5413 1.62497 27.4905 -0.827986 24.925 1.53496L10.2748 15.195C9.73468 15.7126 9.35211 16.3877 9.21709 17.1304L7.23672 28.2249C7.07919 29.1251 6.56159 29.9353 5.79645 30.4754L1.49815 33.4459C-0.572241 34.8637 -0.482225 37.9693 1.67818 39.2745L6.69662 42.3126C7.61929 42.8752 8.7445 42.9652 9.73468 42.5826L29.8084 34.7962C32.0589 33.9185 32.7565 31.1055 31.1812 29.2826L27.0179 24.4667Z" fill="#01FF02"/>
<path d="M62.4895 19.3137C61.9043 18.6161 61.0492 18.211 60.1265 18.211L35.3044 18.166C32.6489 18.166 31.2311 21.2716 32.9864 23.2745L51.4174 44.4509C53.2627 46.5888 56.7734 45.3061 56.8184 42.4706L56.9984 29.8007C57.0209 28.4279 57.9436 27.2352 59.2939 26.8751L62.3994 26.0425C64.5823 25.4574 65.415 22.8244 63.9747 21.0916L62.4895 19.3137Z" fill="#01FF02"/>
<path d="M83.1861 30.0716L76.0523 18.3019L76.0073 18.2344H72.2266V36.0577H76.0523V24.198L83.2311 36.0577H87.0118V18.2344H83.1861V30.0716Z" fill="white"/>
<path d="M96.9856 31.2633L96.8506 31.8709L96.693 31.2408L92.7773 18.2334H88.7266L94.8702 35.9892L94.9152 36.0567H98.7859L104.975 18.2334H100.924L96.9856 31.2633Z" fill="white"/>
<path d="M110.731 18.2334H106.883V36.0567H110.731V18.2334Z" fill="white"/>
<path d="M131.59 27.7522C130.554 26.852 129.024 26.1319 127.044 25.5918C125.671 25.1642 124.703 24.7592 124.141 24.3991C123.601 24.039 123.353 23.5889 123.353 23.0263C123.353 22.3962 123.601 21.9011 124.096 21.5186C124.591 21.1135 125.333 20.9109 126.256 20.9109C127.224 20.9109 127.989 21.1585 128.529 21.6311C129.069 22.1037 129.317 22.7563 129.317 23.5214V23.6339H133.007L133.052 23.4764V23.4314C133.097 21.9011 132.467 20.5959 131.207 19.5382C129.947 18.503 128.304 17.9629 126.301 17.9629C124.321 17.9629 122.678 18.4355 121.418 19.3582C120.135 20.2808 119.482 21.5186 119.482 22.9813C119.482 24.4441 120.045 25.6368 121.17 26.4695C122.273 27.3021 123.916 28.0448 126.076 28.6299C127.291 28.9899 128.146 29.3725 128.619 29.7776C129.092 30.1602 129.317 30.6778 129.317 31.3304C129.317 31.9605 129.069 32.4556 128.574 32.8157C128.079 33.1982 127.336 33.3783 126.391 33.3783C125.243 33.3783 124.343 33.1307 123.713 32.6806C123.083 32.208 122.768 31.4654 122.768 30.4752V30.3627H119.055L119.01 30.5202V30.5652C118.965 32.3881 119.707 33.8058 121.193 34.8185C122.655 35.8087 124.411 36.3263 126.391 36.3263C128.394 36.3263 130.037 35.8762 131.275 34.9986C132.512 34.1209 133.142 32.8832 133.142 31.3304C133.165 29.8676 132.625 28.6524 131.59 27.7522Z" fill="white"/>
<path d="M142.913 17.9854C140.663 17.9854 138.84 18.7055 137.444 20.1458C136.049 21.586 135.352 23.4089 135.352 25.5693V28.7424C135.352 30.9253 136.072 32.7481 137.467 34.1659C138.862 35.5836 140.708 36.3263 142.958 36.3263C145.208 36.3263 147.076 35.6061 148.494 34.1884C149.912 32.7706 150.632 30.9253 150.632 28.7649V25.5918C150.632 23.4089 149.912 21.586 148.494 20.1683C147.031 18.7055 145.163 17.9854 142.913 17.9854ZM139.155 25.5468C139.155 24.1965 139.492 23.0938 140.145 22.2386C140.798 21.406 141.72 20.9784 142.913 20.9784C144.106 20.9784 145.051 21.406 145.726 22.2611C146.401 23.1163 146.761 24.219 146.761 25.5693V28.7424C146.761 30.1151 146.424 31.2403 145.749 32.0955C145.073 32.9506 144.128 33.3782 142.935 33.3782C141.765 33.3782 140.82 32.9506 140.167 32.0955C139.492 31.2403 139.155 30.1151 139.155 28.7424V25.5468Z" fill="white"/>
<path d="M157.201 18.2334H153.375V36.0567H165.212V33.1087H157.201V18.2334Z" fill="white"/>
<path d="M177.551 30.0246C177.551 31.1498 177.236 32.005 176.628 32.5451C176.021 33.0852 175.143 33.3777 174.04 33.3777C172.96 33.3777 172.105 33.1077 171.497 32.5451C170.89 32.005 170.575 31.1498 170.575 30.0246V18.2549H166.727V30.0471C166.727 32.05 167.402 33.6253 168.752 34.7055C170.08 35.7857 171.858 36.3483 174.04 36.3483C176.223 36.3483 178.001 35.8082 179.351 34.7055C180.702 33.6253 181.399 32.05 181.399 30.0471V18.2549H177.551V30.0246Z" fill="white"/>
<path d="M183.195 21.1814H188.259V36.0567H192.107V21.1814H197.193V18.2334H183.195V21.1814Z" fill="white"/>
<path d="M203.27 18.2334H199.422V36.0567H203.27V18.2334Z" fill="white"/>
<path d="M213.866 17.9854C211.616 17.9854 209.793 18.7055 208.398 20.1458C207.002 21.586 206.305 23.4089 206.305 25.5693V28.7424C206.305 30.9253 207.025 32.7481 208.42 34.1659C209.815 35.5836 211.661 36.3263 213.911 36.3263C216.162 36.3263 218.029 35.6061 219.447 34.1884C220.865 32.7706 221.585 30.9253 221.585 28.7649V25.5918C221.585 23.4089 220.865 21.586 219.447 20.1683C217.984 18.7055 216.117 17.9854 213.866 17.9854ZM210.108 25.5468C210.108 24.1965 210.445 23.0938 211.098 22.2386C211.751 21.406 212.673 20.9784 213.866 20.9784C215.059 20.9784 216.004 21.406 216.679 22.2611C217.354 23.1163 217.714 24.219 217.714 25.5693V28.7424C217.714 30.1151 217.377 31.2403 216.702 32.0955C216.026 32.9506 215.081 33.3782 213.889 33.3782C212.718 33.3782 211.773 32.9506 211.121 32.0955C210.445 31.2403 210.108 30.1151 210.108 28.7424V25.5468Z" fill="white"/>
<path d="M235.288 30.0706L228.154 18.3009L228.109 18.2334H224.328V36.0567H228.154V24.197L235.333 36.0567H239.113V18.2334H235.288V30.0706Z" fill="white"/>
<path d="M254.441 27.7522C253.406 26.852 251.876 26.1319 249.895 25.5918C248.523 25.1642 247.555 24.7591 246.992 24.399C246.452 24.039 246.205 23.5889 246.205 23.0263C246.205 22.3962 246.452 21.9011 246.947 21.5185C247.442 21.1134 248.185 20.9109 249.108 20.9109C250.075 20.9109 250.84 21.1584 251.381 21.631C251.921 22.1036 252.168 22.7562 252.168 23.5214V23.6339H255.859L255.904 23.4764V23.4539C255.949 21.9236 255.319 20.6183 254.059 19.5606C252.798 18.5255 251.156 17.9854 249.153 17.9854C247.172 17.9854 245.529 18.4579 244.269 19.3806C242.987 20.3033 242.334 21.541 242.334 23.0038C242.334 24.4666 242.896 25.6593 244.022 26.4919C245.124 27.3246 246.767 28.0672 248.928 28.6523C250.143 29.0124 250.998 29.395 251.471 29.8001C251.943 30.1826 252.168 30.7002 252.168 31.3528C252.168 31.983 251.921 32.4781 251.426 32.8381C250.93 33.2207 250.188 33.4007 249.243 33.4007C248.095 33.4007 247.195 33.1532 246.565 32.7031C245.935 32.2305 245.619 31.4879 245.619 30.4977V30.3852H241.906L241.861 30.5427V30.5877C241.816 32.4105 242.559 33.8283 244.044 34.841C245.507 35.8312 247.262 36.3488 249.243 36.3488C251.246 36.3488 252.888 35.8987 254.126 35.021C255.364 34.1434 255.994 32.9056 255.994 31.3528C256.016 29.8676 255.499 28.6523 254.441 27.7522Z" fill="white"/>
</svg>
