<svg width="474" height="254" viewBox="0 0 474 254" fill="none" xmlns="http://www.w3.org/2000/svg">
<path fill-rule="evenodd" clip-rule="evenodd" d="M230.934 144.586C270.736 144.586 302.992 112.208 302.992 72.2767C302.992 41.0478 283.252 14.4334 255.587 4.3265L255.878 5.96081C282.586 16.0601 301.583 41.9484 301.583 72.2792C301.583 111.424 269.95 143.162 230.934 143.162C191.918 143.162 160.299 111.424 160.299 72.2792C160.299 33.1469 191.918 1.41713 230.934 1.41713C235.133 1.41713 239.265 1.78143 243.272 2.4898L245.713 1.51327C240.851 0.508501 235.899 0.00243378 230.934 0.00293005C191.144 0.00293005 158.875 32.3576 158.875 72.2792C158.872 112.208 191.144 144.586 230.934 144.586ZM187.278 240.914C188.151 240.84 189.459 240.757 190.375 240.757C191.958 240.757 197.263 240.757 197.263 245.564C197.263 247.633 196.393 251.107 191.073 251.107C189.401 251.107 187.86 250.874 187.278 250.77V240.914ZM181.856 228.107C183.544 229.289 183.544 230.766 183.544 231.783V250.145C183.544 251.167 183.544 252.625 181.856 253.821H190.736C192.947 253.821 201.466 253.588 201.466 245.624C201.466 240.787 197.99 238.025 192.059 238.025C190.853 238.025 188.482 238.217 187.275 238.29V231.057H194.951C196.231 231.057 197.671 231.115 198.804 232.337V228.009C198.367 228.078 197.924 228.111 197.481 228.107H181.856ZM215.625 231.447L219.623 241.587H211.684L215.625 231.447ZM212.195 228.107C213.69 228.808 213.181 230.197 213.037 230.579L205.711 249.159C205.025 250.922 204.286 252.569 202.384 253.824H209.301C207.585 252.599 207.922 251.112 208.43 249.811L210.727 244.056H220.584L223.362 250.955C223.683 251.8 223.971 253.055 222.256 253.826H230.137C228.335 252.862 227.607 251.478 227.01 250.036L218.201 228.112H212.195V228.107ZM251.572 238.247V231.783C251.572 230.577 251.527 229.289 249.888 228.107H256.984C255.339 229.289 255.309 230.579 255.309 231.783V250.145C255.309 251.357 255.339 252.625 256.984 253.821H249.888C251.527 252.625 251.572 251.355 251.572 250.145V241.177H237.473V250.145C237.473 251.357 237.519 252.625 239.161 253.821H232.067C233.706 252.625 233.755 251.355 233.755 250.145V231.783C233.755 230.577 233.709 229.289 232.067 228.107H239.161C237.519 229.289 237.473 230.579 237.473 231.783V238.247H251.572ZM269.426 228.107C267.756 229.289 267.756 230.766 267.756 231.783V250.145C267.756 251.167 267.756 252.625 269.426 253.821H262.33C264.02 252.625 264.02 251.167 264.02 250.145V231.783C264.02 230.766 264.02 229.289 262.33 228.107H269.426ZM274.195 232.778C275.184 231.449 275.692 230.647 275.692 229.906C275.692 229.026 274.997 228.419 274.369 228.107H281.405L272.51 239.674L276.725 245.263C280.054 249.71 281.913 251.982 285.101 253.821L281.187 253.993C278.291 254.142 276.823 251.909 274.997 249.374L268.485 240.489L274.195 232.778Z" fill="#D8D8D8"/>
<path fill-rule="evenodd" clip-rule="evenodd" d="M255.878 5.95789C282.586 16.0572 301.583 41.9455 301.583 72.2763C301.583 111.421 269.95 143.159 230.934 143.159C191.918 143.159 160.299 111.421 160.299 72.2763C160.299 33.144 191.918 1.41421 230.934 1.41421C235.133 1.41421 239.265 1.77851 243.272 2.48688L245.713 1.51034C240.851 0.505572 235.899 -0.000495909 230.934 3.64646e-07C191.144 3.64646e-07 158.875 32.3547 158.875 72.2763C158.875 112.208 191.146 144.585 230.934 144.585C270.736 144.585 302.992 112.208 302.992 72.2763C302.992 41.0474 283.252 14.433 255.587 4.32611L255.878 5.95789Z" fill="#D8D8D8"/>
<path fill-rule="evenodd" clip-rule="evenodd" d="M196.57 85.7682C197.266 84.908 198.723 83.6987 200.64 82.75C203.373 81.3636 211.165 80.4604 215.481 80.5186C218.038 80.5465 219.754 81.7153 220.948 82.9094C222.139 84.106 220.09 84.2806 219.071 83.4204C218.038 82.5754 216.905 82.2845 215.713 82.2845C214.522 82.2845 213.257 82.75 212.589 83.2459C211.903 83.7695 211.731 84.4703 210.029 84.9662C207.967 85.5506 205.581 83.6835 205.581 83.6835C207.254 86.8484 210.13 86.7447 211.731 86.3526C212.895 86.0464 213.259 85.5076 214.972 85.4772C217.705 85.4342 218.899 87.023 218.899 87.023C215.481 86.8484 209.697 88.9912 206.947 89.5908C203.532 90.3498 200.291 90.451 200.291 90.451C202.5 93.1934 205.756 93.1934 208.154 93.1934C210.537 93.1934 218.213 92.6241 222.822 93.0188C228.608 93.4995 233.23 97.307 233.23 102.951C233.23 108.593 229.322 111.672 229.322 111.672C234.263 110.141 236.314 106.202 236.314 106.202C238.948 116.382 233.478 124.521 228.477 127.845C224.32 130.615 211.845 133.477 202.267 128.88C191.669 123.79 187.657 118.831 187.657 118.831C210.697 120.713 221.965 114.308 221.965 114.308C201.146 115.52 186.625 110.24 177.234 106.113C173.443 100.082 170.71 93.4481 169.153 86.4968V86.5119C186.379 99.5206 201.657 101.752 201.657 101.752C183.05 91.6451 173.791 80.3289 167.641 69.0431C167.949 62.6648 169.224 56.3703 171.423 50.3751L171.466 50.2739C178.37 68.7016 185.96 74.1889 185.96 74.1889C178.443 57.0489 178.501 44.779 179.187 35.5297C182.038 31.4748 185.355 27.7692 189.071 24.4893L189.127 24.4235C186.223 40.8754 189.709 51.5667 189.709 51.5667C189.709 38.558 196.992 23.0751 202.791 15.1869C206.39 13.375 210.16 11.9218 214.044 10.8482H214.056C208.766 17.522 206.439 23.996 206.439 23.996C217.3 13.6285 235.28 7.39993 238.012 6.69916C240.744 6.02874 248.61 3.11178 250.833 2.60833C252.87 2.12006 253.857 3.41789 253.73 4.65753C253.558 6.26907 252.87 8.94569 252.87 8.94569C258.904 10.4206 261.517 13.3932 261.517 13.3932C261.289 12.5913 261.403 11.2226 261.403 11.2226C269.719 18.6453 271.988 22.182 272.218 28.9115C272.451 35.6486 275.401 36.6783 277.101 37.589C278.816 38.4998 283.036 40.9133 284.39 42.0518C285.402 42.9119 284.969 43.8733 284.39 44.5589C283.82 45.2369 283.821 45.4696 283.717 46.264C283.208 49.7654 281.652 51.1796 279.497 51.9664C277.334 52.7607 274.936 51.5135 274.936 51.5135C272.55 54.1395 272.1 52.4243 271.986 51.4047C271.882 50.3751 270.617 51.177 269.719 51.5135C268.806 51.8551 268.469 50.6028 268.469 50.6028C264.135 50.0335 262.248 52.6014 262.248 52.6014C266.008 53.1124 267.9 55.6777 268.059 56.7074C268.236 57.7573 269.936 57.0489 269.936 57.0489C269.936 57.0489 270.093 56.7074 270.797 56.3709C271.48 56.0268 271.652 56.1963 271.48 57.0489C271.308 57.9015 271.128 58.5947 271.128 58.5947L273.02 59.7989C272.32 64.4311 270.288 64.2312 269.256 63.7303C262.698 60.4415 250.998 59.7989 250.998 59.7989C251.681 58.7692 253.32 57.4512 253.32 57.4512C223.288 57.4512 218.216 61.1094 216.675 63.0422C215.612 64.383 216.528 66.4626 216.528 66.4626C212.951 67.1482 203.881 69.4453 200.405 72.6431C197.063 75.7068 195.945 82.8967 195.826 85.5506C195.798 86.1021 196.337 86.0869 196.57 85.7682ZM248.888 8.13107C249.224 7.75411 248.888 7.44547 247.99 8.02228C247.071 8.58392 243.059 11.005 240.355 15.5487C240.023 16.1255 240.22 16.9755 241.665 16.4822C243.088 15.9987 244.552 15.6473 246.039 15.4323C246.839 15.3134 246.839 14.7518 246.277 14.5342C245.708 14.2939 245.576 14.0738 245.822 13.1579C246.037 12.2447 247.638 9.61358 248.888 8.13107ZM241.372 20.4465C235.454 25.2533 225.714 36.7466 221.122 47.5138C220.773 48.3183 221.122 48.4397 222.256 47.749C223.404 47.0559 226.703 45.4671 228.29 45.0067C228.29 45.0067 226.572 50.9721 226.008 54.2584C225.557 56.9654 227.796 56.7529 229.193 56.4316C230.589 56.1179 236.373 55.8624 237.39 55.741C237.39 55.741 232.041 54.4785 231.475 52.3079C230.908 50.1474 232.433 45.3204 233.524 42.0467C233.757 41.3459 233.408 40.3314 232.274 40.7767C231.126 41.2295 229.542 41.5711 228.742 42.0467C228.742 42.0467 233.757 29.7084 241.488 20.7982L241.372 20.4465L267.9 25.944C267.318 30.4446 265.676 30.0424 264.935 29.8248C264.135 29.5921 263.918 29.2556 261.515 29.0304C260.758 28.9596 257.259 28.5649 259.134 30.0449C262.142 32.4584 264.702 37.3588 264.702 37.3588C265.049 35.7625 264.237 33.4805 263.799 32.6836C263.349 31.874 263.918 31.6565 264.472 31.7652C265.051 31.874 265.37 32.0941 266.42 32.6836C267.437 33.2452 268.12 33.144 268.358 31.7652C268.545 30.5762 268.487 28.1475 268.249 25.9541C268.224 25.7947 267.963 25.7138 267.902 25.9465L241.372 20.4465Z" fill="#D8D8D8"/>
<path fill-rule="evenodd" clip-rule="evenodd" d="M275.492 117.968C272.812 108.984 265.43 103.254 261.329 98.2802C259.66 96.2538 257.188 93.4077 257.188 93.4077C259.584 94.7789 264.135 95.4645 264.135 95.4645C262.885 94.4272 260.034 91.0144 258.903 89.6306C255.731 85.8256 250.236 81.5653 246.155 79.7134C238.13 76.0678 229.771 75.6024 228.638 75.3823C227.49 75.1495 225.106 75.5998 226.574 73.3103C228.059 71.0258 236.706 64.2938 236.706 64.2938C234.889 64.2938 226.923 64.9946 224.524 65.3209C222.141 65.67 221.587 64.8681 221.458 63.2793C221.458 63.2793 216.662 67.8078 218.959 70.1176C219.308 70.4616 220.325 70.578 221.59 70.0088C222.827 69.432 225.329 68.6325 226.242 68.5288C226.242 68.5288 224.191 71.719 223.743 73.0902C223.29 74.4614 223.174 75.147 225.326 75.8326C227.49 76.503 238.424 79.9436 245.125 84.5101C251.84 89.0765 258.787 94.9079 263.922 105.63C269.04 116.379 266.22 124.518 265.42 126.003C269.068 123.668 272.465 120.961 275.555 117.925L275.492 117.968ZM290.461 95.2166C283.878 89.8481 272.317 80.2675 258.22 76.9735C258.22 76.9735 278.335 85.0388 285.52 105.339C287.464 102.118 289.117 98.7305 290.461 95.2166Z" fill="#D8D8D8"/>
<path fill-rule="evenodd" clip-rule="evenodd" d="M250.964 132.903C253.114 127.874 255.484 115.913 252.985 106.653C252.985 106.653 253.445 128.441 238.547 135.633C242.754 135.134 246.903 134.225 250.933 132.918L250.964 132.903ZM294.688 71.4321C292.755 70.6479 280.847 67.2654 280.847 67.2654C284.834 67.0478 286.43 64.0879 286.43 64.0879C282.681 65.0998 276.983 65.5603 272.215 64.8747C272.215 64.8747 283.247 69.6663 294.237 80.1273V80.0236C294.528 77.5013 294.703 74.9183 294.703 72.2797C294.703 71.9558 294.703 71.7813 294.688 71.4321Z" fill="#D8D8D8"/>
<path fill-rule="evenodd" clip-rule="evenodd" d="M403.923 197.25L393.472 173.418H383.166C384.504 174.382 386.017 175.999 386.624 177.415L377.873 197.265C376.97 199.319 376.287 200.283 374.124 202.294H384.476C383.166 200.807 383.039 199.537 383.573 198.287C383.573 198.287 384.127 197.002 384.491 196.142H394.882L395.815 198.287C396.422 199.64 396.422 200.47 394.94 202.294H407.89C405.758 200.412 404.882 199.423 403.923 197.25ZM386.857 190.806L389.708 184.373L392.529 190.806H386.857ZM101.005 177.967C105.235 177.967 106.181 179.351 108.215 181.876L112.503 172.019C110.932 172.998 109.468 173.767 107.575 173.767C105.367 173.767 104.261 172.922 100.686 172.922C91.5839 172.922 85.4514 178.916 85.4514 187.839C85.4514 196.941 90.9894 202.831 100.236 202.831C105.354 202.831 108.984 200.483 111.416 197.088L109.321 192.344C107.039 195.61 104.61 197.799 101.005 197.784C96.3957 197.784 93.6913 193.278 93.6913 187.836C93.6938 182.607 96.1933 177.967 101.005 177.967ZM138.918 196.956L130.079 186.262L138.379 178.331C140.879 175.956 142.042 175.007 144.544 173.416H131.007C132.636 175.209 132.808 175.882 131.647 177.018C131.66 177.018 123.564 184.752 123.564 184.752V177.939C123.564 175.87 124.318 174.673 125.525 173.418H113.665C114.899 174.673 115.643 175.87 115.643 177.939V197.789C115.643 199.843 114.899 201.029 113.665 202.294H125.525C124.318 201.029 123.564 199.843 123.564 197.789V190.583L130.223 198.588C131.371 199.977 130.979 200.693 129.654 202.294H144.815C142.159 200.47 141.111 199.625 138.918 196.956ZM174.271 173.418H162.423C163.63 174.673 164.384 175.87 164.384 177.939V178.058L155.051 189.126V177.939C155.051 175.87 155.792 174.673 157.014 173.418H145.167C146.374 174.673 147.13 175.87 147.13 177.939V197.789C147.13 199.843 146.374 201.029 145.167 202.294H157.014C155.795 201.029 155.051 199.843 155.051 197.789V197.571L164.384 186.488V197.789C164.384 199.843 163.627 201.029 162.423 202.294H174.271C173.064 201.029 172.31 199.843 172.31 197.789V177.939C172.31 175.867 173.066 174.673 174.271 173.418ZM193.445 171.786C198.618 171.786 201.135 169.641 201.135 167.058C201.135 165.907 200.407 164.553 199.218 163.471H194.069C195.38 164.741 195.742 165.907 195.742 166.446C195.742 166.959 195.162 167.992 193.445 167.992C191.714 167.992 191.147 166.959 191.147 166.446C191.147 165.907 191.484 164.741 192.82 163.471H187.659C186.495 164.553 185.741 165.907 185.741 167.058C185.741 169.641 188.256 171.786 193.445 171.786ZM50.1697 173.418C50.9261 174.658 51.1589 175.533 50.3872 177.446C50.3721 177.446 47.0301 185.539 45.2111 189.928L39.8604 177.446C39.1343 175.824 39.1217 174.848 39.9768 173.418H27.5171C29.2501 174.994 30.1634 176.295 31.2537 178.463C31.2386 178.463 39.4809 196.622 40.9634 199.916C38.9851 204.541 37.285 206.365 35.0334 206.365C32.1544 206.365 30.9476 204.483 29.2905 201.389L26.4141 207.531C28.0129 209.206 30.7882 211.559 34.8588 211.559C41.5453 211.559 44.189 206.613 46.7493 200.62L56.1984 178.425C57.2154 176.087 58.1312 174.749 59.338 173.418H50.1697Z" fill="#D8D8D8"/>
<path fill-rule="evenodd" clip-rule="evenodd" d="M24.6411 172.76C22.1542 170.27 18.3467 168.94 13.6361 168.94H0C1.61407 170.531 2.21112 171.712 2.21112 173.984V197.231C2.21112 199.518 1.61407 200.69 0 202.291H12.7784C11.1644 200.69 10.585 199.518 10.585 197.231V192.845H13.6361C18.071 192.845 21.9088 191.425 24.4513 188.878C26.5739 186.747 27.6921 183.863 27.6921 180.552C27.6921 177.458 26.6321 174.776 24.6411 172.76ZM12.6924 186.935H10.585V174.819H12.1536C16.3253 174.819 19.045 176.173 19.045 180.506C19.045 184.896 17.0236 186.935 12.6924 186.935ZM73.951 197.785C69.3694 197.785 66.6523 193.28 66.6523 187.838C66.6523 182.606 69.167 177.966 73.951 177.966C78.2088 177.966 79.1424 179.35 81.189 181.875L85.4494 172.019C83.8935 172.998 82.4236 173.767 80.5363 173.767C78.3252 173.767 77.2222 172.922 73.6449 172.922C64.5449 172.922 58.4251 178.915 58.4251 187.838C58.4251 196.94 63.9656 202.83 73.1946 202.83C78.3126 202.83 81.9455 200.482 84.3868 197.087L82.2794 192.344C79.9975 195.612 77.584 197.801 73.951 197.785ZM342.111 173.418H330.249C331.468 174.672 332.224 175.869 332.224 177.938V184.724H323.661V177.938C323.661 175.869 324.392 174.672 325.626 173.418H313.764C314.983 174.672 315.74 175.869 315.74 177.938V197.788C315.74 199.842 314.983 201.029 313.764 202.294H325.626C324.392 201.029 323.661 199.842 323.661 197.788V190.135H332.224V197.788C332.224 199.842 331.468 201.029 330.249 202.294H342.111C340.892 201.029 340.135 199.842 340.135 197.788V177.938C340.135 175.866 340.892 174.672 342.111 173.418ZM309.663 197.249L299.182 173.418H288.89C290.244 174.381 291.726 175.998 292.353 177.415L283.613 197.264C282.699 199.318 282.016 200.282 279.848 202.294H290.201C288.89 200.806 288.748 199.536 289.287 198.286L290.231 196.141H300.621L301.539 198.286C302.147 199.64 302.147 200.47 300.679 202.294H313.615C311.497 200.411 310.612 199.422 309.663 197.249ZM292.596 190.805L295.447 184.372L298.253 190.805H292.596ZM207.967 173.418H196.119C197.326 174.672 198.082 175.869 198.082 177.938V178.057L188.752 189.126V177.938C188.752 175.869 189.506 174.672 190.713 173.418H178.853C180.087 174.672 180.831 175.869 180.831 177.938V197.788C180.831 199.842 180.087 201.029 178.853 202.294H190.713C189.506 201.029 188.752 199.842 188.752 197.788V197.57L198.082 186.487V197.788C198.082 199.842 197.326 201.029 196.119 202.294H207.967C206.76 201.029 206.006 199.842 206.006 197.788V177.938C206.003 175.866 206.76 174.672 207.967 173.418ZM369.763 195.162V177.936C369.763 175.866 370.519 174.67 371.723 173.415H348.16C349.38 174.67 350.121 175.866 350.121 177.936V189.735C350.121 194.75 349.223 196.88 344.537 198.807V205.833C346.865 203.748 350.293 202.291 353.45 202.291H364.134C367.929 202.291 370.982 204.204 373.042 205.833V198.585C371.028 197.98 369.763 197.277 369.763 195.162ZM361.837 196.328C361.837 196.753 361.723 196.867 361.417 196.867H354.829C355.788 195 355.98 192.86 355.98 189.738V179.411C355.98 179.09 356.094 178.842 356.529 178.842H361.837V196.328ZM435.757 173.418L432.372 181.308C432.045 179.57 431.203 177.969 429.956 176.714C427.806 174.569 424.492 173.418 420.391 173.418H408.037C409.244 174.672 409.998 175.869 409.998 177.938V197.788C409.998 199.842 409.242 201.029 408.037 202.294H419.882C418.663 201.029 417.907 199.842 417.907 197.788V194.201H420.391C424.231 194.201 427.561 192.976 429.784 190.762C431.618 188.895 432.605 186.386 432.605 183.499C432.605 182.912 432.56 182.358 432.471 181.819C434.695 180.16 436.774 178.829 439.163 178.829L442.796 178.844V197.788C442.796 199.842 442.054 201.029 440.835 202.294H452.68C451.473 201.029 450.719 199.842 450.719 197.788V178.844H453.249C455.66 178.844 456.199 179.239 457.651 181.468L461.175 173.418H435.757ZM419.594 188.774H417.904V178.783H419.139C421.218 178.783 422.627 179.208 423.503 180.069C424.229 180.815 424.596 181.908 424.596 183.438C424.596 187.142 423.04 188.774 419.594 188.774ZM244.959 197.421C239.628 197.421 235.775 192.346 235.775 185.523C235.775 179.573 238.811 173.708 244.959 173.708C249.831 173.708 251.501 175.636 253.363 178.116L258.028 167.482C256.313 168.591 254.689 169.203 252.682 169.203C250.489 169.203 248.101 168.209 244.584 168.209C234.002 168.209 226.908 175.181 226.908 185.523C226.908 195.574 233.319 202.921 244.076 202.921C250.168 202.921 254.324 200.148 256.973 196.343L254.676 191.268C252.331 194.798 249.732 197.421 244.959 197.421Z" fill="#D8D8D8"/>
<path fill-rule="evenodd" clip-rule="evenodd" d="M276.84 178.843C279.256 178.843 279.795 179.237 281.247 181.466L284.766 173.416H258.455L254.719 182.167C257.099 180.328 259.308 178.827 261.853 178.827L265.939 178.843V197.786C265.939 199.841 265.198 201.027 263.978 202.292H275.841C274.616 201.027 273.875 199.841 273.875 197.786V178.843H276.84Z" fill="#D8D8D8" stroke="#5E5642" stroke-width="0.240339" stroke-miterlimit="2.613" stroke-linejoin="round"/>
<path d="M468.232 180.943C468.827 180.942 469.416 180.824 469.964 180.596C470.513 180.367 471.012 180.033 471.431 179.612C471.851 179.19 472.183 178.69 472.409 178.14C472.635 177.59 472.75 177.001 472.748 176.407C472.75 175.813 472.634 175.225 472.408 174.677C472.182 174.128 471.849 173.63 471.429 173.21C471.01 172.79 470.511 172.458 469.963 172.231C469.414 172.005 468.826 171.889 468.232 171.891C467.638 171.888 467.048 172.002 466.497 172.227C465.947 172.453 465.446 172.785 465.025 173.205C464.603 173.625 464.269 174.124 464.041 174.673C463.813 175.223 463.696 175.812 463.696 176.407C463.696 177.662 464.205 178.792 465.019 179.615C465.873 180.465 467.028 180.942 468.232 180.943ZM471.82 180.009C471.348 180.482 470.788 180.857 470.171 181.113C469.554 181.368 468.893 181.5 468.225 181.5C467.557 181.5 466.896 181.368 466.279 181.113C465.662 180.857 465.102 180.482 464.63 180.009C464.156 179.539 463.779 178.978 463.522 178.361C463.265 177.744 463.133 177.083 463.133 176.414C463.133 175.746 463.265 175.084 463.522 174.467C463.779 173.85 464.156 173.29 464.63 172.819C465.585 171.869 466.878 171.336 468.225 171.336C469.572 171.336 470.865 171.869 471.82 172.819C472.738 173.738 473.307 175.003 473.307 176.407C473.307 177.821 472.738 179.091 471.82 180.009Z" fill="#D8D8D8"/>
<path fill-rule="evenodd" clip-rule="evenodd" d="M466.518 173.58H468.469C469.061 173.58 470.169 173.679 470.169 175.181C470.169 176.042 469.729 176.51 469.22 176.639V176.684C469.966 176.861 470.02 177.489 470.035 178.116C470.05 178.946 470.035 179.194 470.212 179.53H469.455C469.278 179.255 469.278 179.06 469.278 178.276C469.263 177.721 469.278 177.006 468.365 177.006H467.272V179.53H466.516L466.518 173.58ZM467.275 176.333H468.441C468.757 176.333 469.369 176.188 469.369 175.255C469.369 174.498 468.98 174.248 468.352 174.248H467.275V176.333Z" fill="#D8D8D8"/>
</svg>
