<svg width="542" height="96" viewBox="0 0 542 96" fill="none" xmlns="http://www.w3.org/2000/svg">
<path d="M234.212 26.0078L220.297 95.2779H223.514L237.428 26.0078H234.212Z" fill="#D8D8D8"/>
<path d="M163.333 28.1502H158.128C153.729 28.1502 153.47 31.6799 153.47 33.9602V54.835C153.47 57.1153 153.729 60.645 158.128 60.645H163.33C167.729 60.645 168.001 57.1153 168.001 54.835V33.9602C168.001 31.6799 167.732 28.1502 163.333 28.1502ZM160.734 56.6269C159.963 56.6269 159.337 56.051 159.337 55.3363C159.337 55.3209 159.345 55.3055 159.345 55.2875V33.4152L159.352 33.3226C159.4 32.9968 159.567 32.6999 159.821 32.4881C160.075 32.2763 160.398 32.1643 160.729 32.1735C161.446 32.1735 162.041 32.6825 162.111 33.3226L162.119 33.4152V55.2901L162.124 55.3415C162.124 56.0536 161.498 56.6294 160.734 56.6294M65.4068 28.1502H77.391V32.1863H71.6874V60.645H65.4068V28.1502ZM85.2735 48.4363L86.3552 32.1812H86.7097L87.7862 48.4363H85.2735ZM78.3226 60.6476H84.4635L85.0535 52.0097H88.0166L88.5963 60.6476H94.7475L91.4661 28.1528H81.5988L78.3226 60.6476ZM103.74 49.2692V55.3852C103.74 56.2207 104.361 56.4572 104.724 56.4572C105.306 56.4572 105.71 55.943 105.71 55.3852V47.827C105.71 46.809 105.536 45.6984 103.194 45.6984H100.648V42.1224H103.285C105.081 42.1224 105.712 41.6983 105.712 39.7162V33.2481C105.712 32.6953 105.306 32.1863 104.724 32.1863C104.361 32.1863 103.74 32.4177 103.74 33.2481V38.549H97.4543V33.955C97.4543 31.6799 97.7286 28.1502 102.12 28.1502H107.329C111.729 28.1502 111.995 31.6799 111.995 33.955V39.1583C111.995 42.6777 109.615 43.6521 107.728 43.5595V43.8886C111.946 43.7857 111.998 47.1329 111.998 48.2975V54.835C111.998 57.1153 111.729 60.645 107.329 60.645H102.12C97.7286 60.645 97.4543 57.1153 97.4543 54.835V49.2667L103.74 49.2692ZM116.131 28.1502H130.669V60.645H124.805V32.1863H121.984V60.645H116.131L116.131 28.1502ZM141.496 46.0172V32.1863H143.148C143.828 32.1863 144.322 32.7905 144.322 33.8059V44.3976C144.322 45.4208 143.831 46.0172 143.148 46.0172H141.496ZM135.218 60.645H141.496V49.5983H145.086C149.485 49.5983 150.186 46.0738 150.186 43.7883V33.955C150.186 31.6799 149.488 28.1451 145.088 28.1451H135.218L135.218 60.645ZM188.046 28.1502H196.219V60.645H189.935V40.2663H189.708L186.473 60.645H181.452L178.22 40.2663H178V60.645H171.714V28.1502H179.876L183.955 50.9865L188.046 28.1502ZM52.5816 16.8027C50.5993 8.16484 45.6177 1.14399 44.9371 0C43.8528 1.61188 39.8857 7.8075 37.8672 14.687C35.8527 21.5569 35.2516 28.7595 36.0997 35.8652C36.858 42.5621 39.7097 49.439 39.7097 49.439C41.2236 53.0535 43.4931 56.9174 44.9708 58.8172C47.1316 56.0228 52.1183 47.6857 53.6659 36.7958C54.5276 30.7416 54.5612 25.4329 52.5816 16.8027ZM44.9371 56.668C43.9641 54.8428 42.4425 51.3722 42.3002 46.0069C42.2613 40.8088 44.3575 36.3613 44.9708 35.4307C45.5194 36.3613 47.3128 40.2355 47.5302 45.5339C47.6338 49.4032 46.7413 53.2347 44.9372 56.6655M52.0097 31.4537C51.9346 34.7494 51.5387 38.2252 51.0341 40.2972C51.2178 36.7238 50.7805 31.6722 49.9498 27.726C49.1243 23.7798 46.7719 17.2012 44.8984 14.1497C43.1749 17.0495 41.0399 22.7464 39.9246 27.6952C38.8015 32.6388 38.7678 38.6211 38.7678 40.4206C38.4702 38.8961 37.7249 33.5129 37.9397 28.0911C38.1157 23.6153 39.1663 19.0239 39.7434 16.9056C41.9431 9.84873 44.4351 5.33698 44.8983 4.61717C45.3667 5.337 48.5084 10.8899 50.1335 16.7256C51.437 21.526 52.0683 26.482 52.0097 31.4537Z" fill="#D8D8D8"/>
<path d="M32.7566 60.6391V70.8529L32.8032 70.8117C34.5321 69.1021 36.8722 68.1424 39.3116 68.1424C41.751 68.1424 44.091 69.1021 45.8199 70.8117C46.6791 71.6591 47.3602 72.6677 47.8236 73.7789C48.2869 74.8901 48.5233 76.0817 48.5189 77.2844C48.5146 78.4871 48.2697 79.677 47.7983 80.7849C47.327 81.8927 46.6387 82.8964 45.7734 83.7377V83.7402C42.3171 87.1612 37.6356 89.0797 32.7566 89.0746C27.8842 89.0777 23.2091 87.1623 19.7554 83.748C18.0489 82.0614 16.6947 80.0564 15.7707 77.8483C14.8467 75.6402 14.371 73.2725 14.371 70.8811C14.371 68.4898 14.8467 66.1221 15.7707 63.9139C16.6947 61.7058 18.0489 59.7009 19.7554 58.0143C21.4641 56.3216 23.4917 54.9799 25.7225 54.0659C27.9533 53.152 30.3436 52.6836 32.7566 52.6876V28.3242C14.6755 28.3242 0 42.8338 0 60.7188C0 78.6192 14.6755 93.1288 32.7566 93.1288C37.236 93.1353 41.669 92.2277 45.7808 90.4624C49.8926 88.6971 53.5956 86.1116 56.6603 82.8662V60.6391L32.7566 60.6391ZM132.947 78.5241H132.437V85.0976H132.947C133.684 85.0976 133.951 84.8894 133.951 84.0616V79.5242C133.951 78.6938 133.684 78.5215 132.947 78.5215M186.069 82.9176H185.332V86.599H186.069C186.812 86.599 187.037 86.4113 187.037 85.6066V83.9073C187.037 83.1001 186.812 82.9176 186.069 82.9176ZM127.678 79.5627V84.0796C127.678 84.9074 127.944 85.0976 128.677 85.0976H129.212V78.5241H128.677C127.944 78.5241 127.678 78.7349 127.678 79.5627ZM196.222 71.4647H65.4072V93.1288H196.222V71.4647ZM79.6091 89.0926H76.2915V82.9176H74.5887V89.0926H71.2712V74.9841H74.5887V80.429H76.2915V74.9841H79.6091V89.0926ZM107.11 77.65H102.573V80.4239H106.634V83.0975H102.571V86.4241H107.11V89.1029H99.1523V74.9712H107.11V77.65ZM137.167 84.0616C137.167 86.9254 135.703 87.6967 132.437 87.6967V89.0926H129.212V87.6967C125.936 87.6967 124.451 86.9254 124.451 84.0616V79.6526C124.451 76.7734 125.874 76.0407 129.212 76.0407V74.9841H132.437V76.0381C135.749 76.0381 137.167 76.7734 137.167 79.6526V84.0616ZM162.681 77.65H160.168V89.1029H157.011V77.65H154.32V74.9712H162.678L162.681 77.65ZM190.35 85.4549C190.35 88.5399 188.934 89.0926 185.329 89.0926H182.014V74.9841H185.332V80.429H185.886C189.144 80.429 190.35 81.1848 190.35 84.0024L190.35 85.4549Z" fill="#D8D8D8"/>
<path d="M275.156 38.172H267.102V54.3164H263.117V34.8074H275.156V38.172Z" fill="#D8D8D8"/>
<path d="M274.305 54.3164L281.135 34.8074H284.949L291.78 54.3164H287.539L286.344 50.6125H279.769L278.574 54.3164H274.305ZM280.822 47.2762H285.262L283.042 40.4056L280.822 47.2762Z" fill="#D8D8D8"/>
<path d="M298.211 42.5249H300.345C301.484 42.5249 302.281 42.2988 302.764 41.8746C303.001 41.655 303.187 41.3872 303.31 41.0895C303.433 40.7919 303.489 40.4714 303.476 40.1499C303.488 39.8463 303.436 39.5436 303.323 39.2612C303.211 38.9787 303.04 38.7229 302.821 38.51C302.394 38.0859 301.626 37.8597 300.544 37.8597C299.491 37.8597 298.694 38.0859 298.182 38.5383C297.656 38.9917 297.263 39.5778 297.044 40.2348H293.543C293.603 39.4179 293.84 38.6235 294.238 37.9061C294.636 37.1888 295.185 36.5653 295.848 36.0785C296.503 35.5978 297.214 35.2303 298.04 34.9475C299.737 34.4458 301.541 34.4262 303.248 34.891C304.022 35.0792 304.754 35.4049 305.411 35.8523C306.05 36.2912 306.571 36.8789 306.928 37.564C307.285 38.2492 307.468 39.0108 307.46 39.7824C307.494 40.6793 307.256 41.5656 306.777 42.327C306.29 43.0354 305.648 43.625 304.899 44.0517C305.823 44.4135 306.624 45.0319 307.204 45.833C307.813 46.6699 308.124 47.6848 308.087 48.7169C308.099 49.546 307.924 50.3673 307.574 51.1202C307.248 51.8409 306.75 52.4717 306.123 52.958C305.43 53.5011 304.637 53.9045 303.789 54.1455C302.773 54.4429 301.717 54.5859 300.658 54.5696C298.834 54.6503 297.031 54.1554 295.507 53.1559C294.092 52.0495 293.172 50.4348 292.945 48.6604H296.759C297.03 49.4206 297.502 50.0945 298.125 50.6113C298.836 51.0651 299.673 51.2829 300.516 51.2333C302.907 51.2333 304.102 50.3285 304.102 48.5473C304.102 46.766 302.821 45.8613 300.288 45.8613H298.211V42.5249Z" fill="#D8D8D8"/>
<path d="M326.725 34.8074V54.3164H322.74V38.172H315.625V54.3164H311.641V34.8074H326.725Z" fill="#D8D8D8"/>
<path d="M335.266 47.4458V54.3164H331.281V34.8074H338.311C340.588 34.8074 342.353 35.3163 343.662 36.3625C344.999 37.4086 345.654 38.9637 345.654 41.0559C345.654 43.1199 344.999 44.7316 343.69 45.806C342.155 46.9795 340.245 47.562 338.311 47.4458H335.266ZM337.742 44.1095C339.136 44.1095 340.133 43.8551 340.73 43.3744C341.356 42.8937 341.67 42.1021 341.67 41.0559C341.67 40.1229 341.356 39.3878 340.73 38.9071C340.133 38.4265 339.136 38.172 337.742 38.172H335.266V44.1095H337.742Z" fill="#D8D8D8"/>
<path d="M363.207 45.9463C363.233 47.2598 363.041 48.5687 362.637 49.8198C362.323 50.8136 361.799 51.7293 361.101 52.5058C360.437 53.2027 359.618 53.7354 358.71 54.0609C357.733 54.4082 356.702 54.5806 355.664 54.5698C354.627 54.5806 353.596 54.4082 352.619 54.0609C351.722 53.7305 350.913 53.1983 350.257 52.5058C349.555 51.7264 349.023 50.8122 348.692 49.8198C348.308 48.5648 348.125 47.2577 348.151 45.9463V43.1755C348.151 41.6769 348.322 40.3763 348.692 39.3019C349.062 38.1992 349.602 37.3228 350.257 36.6159C350.903 35.9117 351.715 35.3774 352.619 35.0608C353.596 34.7135 354.627 34.5412 355.664 34.5519C356.702 34.5412 357.733 34.7135 358.71 35.0608C359.625 35.3722 360.447 35.9069 361.101 36.6159C361.808 37.3866 362.333 38.3042 362.637 39.3019C363.044 40.5523 363.237 41.8617 363.207 43.1755V45.9463ZM352.135 45.9463C352.135 47.8124 352.42 49.1695 353.018 49.9895C353.32 50.3992 353.72 50.7275 354.182 50.9447C354.645 51.1619 355.154 51.2612 355.664 51.2335C356.803 51.2335 357.714 50.8094 358.311 49.9895C358.909 49.1413 359.222 47.8124 359.222 45.9463V43.1755C359.222 41.3094 358.938 39.9522 358.311 39.1323C358.009 38.7226 357.609 38.3943 357.147 38.177C356.684 37.9598 356.175 37.8605 355.664 37.8882C355.154 37.8605 354.645 37.9598 354.182 38.177C353.72 38.3943 353.32 38.7226 353.018 39.1323C352.448 39.9805 352.135 41.3094 352.135 43.1755V45.9463Z" fill="#D8D8D8"/>
<path d="M376.422 45.4384L381.886 34.8074H385.672V54.3164H381.858V42.2152L377.589 50.8104H375.169L370.957 42.3V54.3164H367.172V34.8074H370.9L376.422 45.4384Z" fill="#D8D8D8"/>
<path d="M394.203 42.5545H401.005V34.8074H404.99V54.3164H401.005V45.8908H394.203V54.3164H390.219V34.8074H394.203V42.5545Z" fill="#D8D8D8"/>
<path d="M421.809 34.8074V38.172H413.555V42.5545H420.955V45.8908H413.555V50.9801H421.809V54.3164H409.57V34.8074H421.809Z" fill="#D8D8D8"/>
<path d="M432.52 34.8074H436.505V36.2211C437.643 36.2211 438.696 36.3625 439.664 36.6169C440.619 36.8433 441.502 37.3034 442.233 37.9552C442.963 38.607 443.519 39.4299 443.848 40.3491C444.3 41.5502 444.513 42.8275 444.474 44.1095V45.0143C444.511 46.3054 444.298 47.5915 443.848 48.803C443.494 49.7365 442.918 50.5709 442.168 51.2346C441.443 51.8504 440.587 52.295 439.664 52.5351C438.63 52.7879 437.569 52.9114 436.505 52.9027V54.3164H432.52V52.9027C431.446 52.9105 430.376 52.7871 429.332 52.5351C428.402 52.2909 427.538 51.8469 426.799 51.2346C426.064 50.5642 425.499 49.7311 425.149 48.803C424.717 47.5872 424.515 46.3029 424.551 45.0143V44.1095C424.551 42.611 424.75 41.3387 425.149 40.3491C425.489 39.4158 426.056 38.5805 426.799 37.9175C427.528 37.291 428.396 36.8453 429.332 36.6169C430.373 36.3464 431.445 36.2133 432.52 36.2211V34.8074ZM436.505 49.5664C437.159 49.5664 437.757 49.5098 438.241 49.3685C438.707 49.2345 439.129 48.9809 439.465 48.6334C439.835 48.2436 440.099 47.7669 440.233 47.2479C440.421 46.5186 440.507 45.767 440.489 45.0143V44.1095C440.507 43.3568 440.421 42.6052 440.233 41.8759C440.099 41.3569 439.835 40.8803 439.465 40.4905C439.132 40.1453 438.707 39.9003 438.241 39.7836C437.677 39.6231 437.091 39.5469 436.505 39.5574V49.5664ZM432.52 39.5574C431.933 39.5469 431.348 39.6231 430.784 39.7836C430.31 39.9037 429.878 40.1478 429.532 40.4905C429.178 40.8873 428.924 41.3622 428.792 41.8759C428.603 42.6052 428.517 43.3568 428.536 44.1095V45.0143C428.517 45.767 428.603 46.5186 428.792 47.2479C428.924 47.7616 429.178 48.2365 429.532 48.6334C429.882 48.9771 430.312 49.2296 430.784 49.3685C431.352 49.5093 431.935 49.5758 432.52 49.5664V39.5574Z" fill="#D8D8D8"/>
<path d="M460.839 34.8074V38.172H455.431V54.3164H451.447V38.172H446.039V34.8074H460.839Z" fill="#D8D8D8"/>
<path d="M467.672 34.8045V41.9578H470.717C471.847 41.931 472.972 42.0934 474.047 42.4385C474.895 42.7107 475.672 43.1643 476.324 43.7674C476.917 44.3106 477.367 44.9902 477.633 45.7465C478.224 47.2951 478.224 49.0046 477.633 50.5531C477.361 51.2982 476.912 51.9673 476.324 52.504C475.663 53.0941 474.888 53.546 474.047 53.8329C472.972 54.1779 471.847 54.3404 470.717 54.3135H463.688V34.8045H467.672ZM467.672 45.2942V50.9772H470.49C471.799 50.9772 472.71 50.7228 473.25 50.2138C473.82 49.7049 474.076 49.0263 474.076 48.1498C474.076 47.2733 473.791 46.5665 473.25 46.0576C472.71 45.5486 471.799 45.2942 470.49 45.2942H467.672Z" fill="#D8D8D8"/>
<path d="M267.102 74.9256H273.904V67.1785H277.888V86.6875H273.904V78.2619H267.102V86.6875H263.117V67.1785H267.102V74.9256Z" fill="#D8D8D8"/>
<path d="M296.933 78.3213C296.96 79.6348 296.768 80.9437 296.364 82.1948C296.05 83.1886 295.526 84.1043 294.827 84.8808C294.164 85.5777 293.345 86.1104 292.436 86.4359C291.46 86.7832 290.428 86.9556 289.391 86.9448C288.354 86.9556 287.323 86.7832 286.346 86.4359C285.448 86.1055 284.64 85.5733 283.983 84.8808C283.282 84.1014 282.749 83.1872 282.418 82.1948C282.034 80.9398 281.852 79.6327 281.877 78.3213V75.5505C281.877 74.0519 282.048 72.7513 282.418 71.6769C282.788 70.5742 283.329 69.6978 283.983 68.9909C284.63 68.2867 285.441 67.7524 286.346 67.4358C287.323 67.0885 288.354 66.9162 289.391 66.9269C290.428 66.9162 291.46 67.0885 292.436 67.4358C293.352 67.7472 294.174 68.2819 294.827 68.9909C295.534 69.7616 296.059 70.6792 296.364 71.6769C296.771 72.9273 296.963 74.2367 296.933 75.5505V78.3213ZM285.862 78.3213C285.862 80.1874 286.146 81.5445 286.744 82.3645C287.046 82.7742 287.447 83.1025 287.909 83.3197C288.371 83.5369 288.881 83.6362 289.391 83.6085C290.529 83.6085 291.44 83.1844 292.038 82.3645C292.636 81.5163 292.949 80.1874 292.949 78.3213V75.5505C292.949 73.6844 292.664 72.3272 292.038 71.5073C291.736 71.0976 291.335 70.7693 290.873 70.552C290.411 70.3348 289.902 70.2355 289.391 70.2632C288.881 70.2355 288.371 70.3348 287.909 70.552C287.447 70.7693 287.046 71.0976 286.744 71.5073C286.175 72.3555 285.862 73.6844 285.862 75.5505V78.3213Z" fill="#D8D8D8"/>
<path d="M299.312 86.6875L303.866 78.5163C302.758 78.1646 301.784 77.4837 301.077 76.5654C300.39 75.538 300.051 74.3197 300.109 73.0877C300.109 71.1086 300.764 69.6383 302.102 68.6487C303.709 67.5948 305.614 67.0796 307.538 67.1785H314.482V86.6875H310.498V79.0253H307.765L303.695 86.6875H299.312ZM310.498 75.6889V70.5431H307.822C306.859 70.4888 305.898 70.6836 305.033 71.1086C304.407 71.4761 304.094 72.1264 304.094 73.0877C304.086 73.4716 304.144 73.854 304.265 74.2187C304.381 74.5429 304.589 74.8274 304.862 75.0386C305.206 75.2718 305.593 75.4352 306.001 75.5193C306.6 75.6446 307.211 75.7016 307.822 75.6889H310.498Z" fill="#D8D8D8"/>
<path d="M331.953 70.5402H323.016V74.3289H326.061C327.19 74.302 328.316 74.4645 329.391 74.8096C330.239 75.0818 331.016 75.5354 331.668 76.1385C332.261 76.6817 332.711 77.3613 332.977 78.1176C333.56 79.6577 333.56 81.3558 332.977 82.8959C332.711 83.6522 332.261 84.3319 331.668 84.8751C331.006 85.4652 330.232 85.9171 329.391 86.204C328.316 86.549 327.19 86.7115 326.061 86.6846H319.031V67.1756H331.953V70.5402ZM323.016 77.6653V83.3483H325.833C327.143 83.3483 328.053 83.0938 328.594 82.5849C329.163 82.076 329.42 81.3691 329.42 80.4926C329.42 79.6444 329.135 78.9376 328.594 78.4287C328.053 77.9197 327.143 77.6653 325.833 77.6653H323.016Z" fill="#D8D8D8"/>
<path d="M340.664 79.8169V86.6875H336.68V67.1785H343.71C345.986 67.1785 347.751 67.6874 349.06 68.7336C350.398 69.7797 351.053 71.3348 351.053 73.427C351.053 75.491 350.398 77.1026 349.089 78.1771C347.554 79.3506 345.643 79.9331 343.71 79.8169H340.664ZM343.14 76.4806C344.535 76.4806 345.531 76.2262 346.129 75.7455C346.755 75.2648 347.068 74.4732 347.068 73.427C347.068 72.494 346.755 71.7589 346.129 71.2782C345.531 70.7976 344.535 70.5431 343.14 70.5431H340.664V76.4806H343.14Z" fill="#D8D8D8"/>
<path d="M358.149 67.1756V74.3289H361.194C362.323 74.302 363.449 74.4645 364.524 74.8096C365.372 75.0818 366.149 75.5354 366.801 76.1385C367.394 76.6817 367.843 77.3613 368.11 78.1176C368.7 79.6662 368.7 81.3757 368.11 82.9242C367.837 83.6693 367.388 84.3384 366.801 84.8751C366.139 85.4652 365.365 85.9171 364.524 86.204C363.449 86.549 362.323 86.7115 361.194 86.6846H354.164V67.1756H358.149ZM358.149 77.6653V83.3483H360.966C362.275 83.3483 363.186 83.0938 363.727 82.5849C364.296 82.076 364.552 81.3974 364.552 80.5209C364.552 79.6444 364.268 78.9376 363.727 78.4287C363.186 77.9197 362.275 77.6653 360.966 77.6653H358.149Z" fill="#D8D8D8"/>
<path d="M382.2 73.2307C382.063 72.4094 381.675 71.6495 381.09 71.0537C380.782 70.7787 380.422 70.5671 380.031 70.4312C379.64 70.2953 379.226 70.2378 378.813 70.262C378.302 70.2343 377.793 70.3336 377.331 70.5508C376.869 70.768 376.468 71.0963 376.166 71.506C375.597 72.3543 375.284 73.6831 375.284 75.5492V78.32C375.284 80.1579 375.568 81.4867 376.166 82.3349C376.463 82.7518 376.862 83.087 377.325 83.3095C377.788 83.532 378.299 83.6344 378.813 83.6073C379.809 83.6073 380.578 83.3528 381.09 82.8721C381.684 82.26 382.072 81.4794 382.2 80.6385H385.985C385.672 82.8439 384.904 84.4555 383.68 85.4451C382.287 86.5012 380.563 87.0322 378.813 86.9436C377.776 86.9543 376.744 86.782 375.768 86.4347C374.87 86.1043 374.061 85.572 373.405 84.8796C372.704 84.1002 372.171 83.186 371.84 82.1936C371.456 80.9386 371.274 79.6314 371.299 78.32V75.5492C371.299 74.0507 371.47 72.7501 371.84 71.6757C372.21 70.573 372.751 69.6965 373.405 68.9897C374.051 68.2854 374.863 67.7512 375.768 67.4346C376.744 67.0873 377.776 66.9149 378.813 66.9257C380.552 66.8542 382.259 67.4061 383.623 68.4807C385.001 69.7024 385.857 71.4021 386.014 73.2307H382.2Z" fill="#D8D8D8"/>
<path d="M393.469 75.8586L399.56 67.1785H404.455L397.197 76.6785L404.939 86.6875H399.901L393.469 78.1205V86.6875H389.484V67.1785H393.469V75.8586Z" fill="#D8D8D8"/>
<path d="M411.883 74.9256H418.685V67.1785H422.67V86.6875H418.685V78.2619H411.883V86.6875H407.898V67.1785H411.883V74.9256Z" fill="#D8D8D8"/>
<path d="M439.488 67.1785V70.5431H431.235V74.9256H438.634V78.2619H431.235V83.3512H439.488V86.6875H427.25V67.1785H439.488Z" fill="#D8D8D8"/>
<path d="M450.192 67.1785H454.176V68.5922C455.315 68.5922 456.368 68.7336 457.336 68.988C458.291 69.2144 459.174 69.6745 459.905 70.3263C460.635 70.9781 461.19 71.801 461.519 72.7202C461.972 73.9213 462.185 75.1986 462.146 76.4806V77.3854C462.183 78.6765 461.97 79.9626 461.519 81.1741C461.166 82.1076 460.59 82.942 459.84 83.6056C459.115 84.2215 458.259 84.6661 457.336 84.9062C456.302 85.159 455.241 85.2825 454.176 85.2738V86.6875H450.192V85.2738C449.118 85.2816 448.048 85.1582 447.004 84.9062C446.074 84.662 445.21 84.218 444.471 83.6056C443.736 82.9353 443.171 82.1022 442.821 81.1741C442.389 79.9582 442.187 78.674 442.223 77.3854V76.4806C442.223 74.9821 442.422 73.7098 442.821 72.7202C443.161 71.7869 443.728 70.9516 444.471 70.2886C445.2 69.6621 446.068 69.2164 447.004 68.988C448.045 68.7175 449.117 68.5844 450.192 68.5922V67.1785ZM454.176 81.9375C454.831 81.9375 455.429 81.8809 455.913 81.7396C456.378 81.6056 456.801 81.352 457.136 81.0044C457.506 80.6147 457.771 80.138 457.905 79.619C458.093 78.8897 458.179 78.1381 458.161 77.3854V76.4806C458.179 75.7279 458.093 74.9763 457.905 74.247C457.771 73.728 457.506 73.2514 457.136 72.8616C456.803 72.5164 456.379 72.2714 455.913 72.1547C455.348 71.9942 454.763 71.918 454.176 71.9285V81.9375ZM450.192 71.9285C449.605 71.918 449.02 71.9942 448.456 72.1547C447.982 72.2748 447.55 72.5189 447.204 72.8616C446.85 73.2584 446.596 73.7333 446.464 74.247C446.275 74.9763 446.189 75.7279 446.207 76.4806V77.3854C446.189 78.1381 446.275 78.8897 446.464 79.619C446.596 80.1327 446.85 80.6076 447.204 81.0044C447.554 81.3482 447.984 81.6007 448.456 81.7396C449.023 81.8804 449.607 81.9469 450.192 81.9375V71.9285Z" fill="#D8D8D8"/>
<path d="M478.511 67.1785V70.5431H473.103V86.6875H469.119V70.5431H463.711V67.1785H478.511Z" fill="#D8D8D8"/>
<path d="M493.598 67.1785V70.5431H485.344V74.9256H492.744V78.2619H485.344V83.3512H493.598V86.6875H481.359V67.1785H493.598Z" fill="#D8D8D8"/>
<path d="M509.086 70.5431H501.031V86.6875H497.047V67.1785H509.086V70.5431Z" fill="#D8D8D8"/>
<path d="M508.227 86.6875L515.057 67.1785H518.871L525.702 86.6875H521.461L520.266 82.9836H513.691L512.496 86.6875H508.227ZM514.744 79.6473H519.184L516.964 72.7767L514.744 79.6473Z" fill="#D8D8D8"/>
<path d="M532.125 74.8999H534.259C535.398 74.8999 536.195 74.6738 536.678 74.2496C536.915 74.03 537.101 73.7622 537.224 73.4645C537.347 73.1669 537.403 72.8464 537.39 72.5249C537.402 72.2213 537.35 71.9186 537.237 71.6362C537.125 71.3537 536.954 71.0979 536.735 70.885C536.308 70.4609 535.54 70.2347 534.458 70.2347C533.405 70.2347 532.609 70.4609 532.096 70.9133C531.57 71.3667 531.177 71.9528 530.958 72.6098H527.457C527.517 71.7929 527.754 70.9985 528.152 70.2811C528.55 69.5638 529.099 68.9403 529.762 68.4535C530.417 67.9728 531.129 67.6053 531.954 67.3225C533.651 66.8208 535.455 66.8012 537.162 67.266C537.936 67.4542 538.669 67.7799 539.325 68.2273C539.964 68.6662 540.485 69.2539 540.842 69.939C541.199 70.6242 541.382 71.3858 541.375 72.1574C541.408 73.0543 541.17 73.9406 540.691 74.702C540.204 75.4104 539.562 76 538.813 76.4267C539.738 76.7885 540.538 77.4069 541.118 78.208C541.728 79.0449 542.038 80.0598 542.001 81.0919C542.013 81.921 541.838 82.7423 541.488 83.4952C541.162 84.2159 540.664 84.8467 540.037 85.333C539.344 85.8761 538.551 86.2795 537.703 86.5205C536.687 86.8179 535.631 86.9609 534.572 86.9446C532.748 87.0253 530.945 86.5304 529.421 85.5309C528.006 84.4245 527.086 82.8098 526.859 81.0354H530.673C530.944 81.7956 531.416 82.4695 532.039 82.9863C532.75 83.4401 533.587 83.6579 534.43 83.6083C536.821 83.6083 538.016 82.7035 538.016 80.9223C538.016 79.141 536.735 78.2363 534.202 78.2363H532.125V74.8999Z" fill="#D8D8D8"/>
</svg>
