<svg width="435" height="88" viewBox="0 0 435 88" fill="none" xmlns="http://www.w3.org/2000/svg">
<path d="M212.954 23.8398L200.32 87.1502H203.241L215.875 23.8398H212.954Z" fill="#D8D8D8"/>
<path d="M148.337 25.7283H143.612C139.617 25.7283 139.382 28.9543 139.382 31.0384V50.1173C139.382 52.2014 139.617 55.4274 143.612 55.4274H148.334C152.329 55.4274 152.575 52.2014 152.575 50.1173V31.0384C152.575 28.9543 152.331 25.7283 148.337 25.7283ZM145.978 51.755C145.277 51.755 144.709 51.2287 144.709 50.5755C144.709 50.5614 144.716 50.5473 144.716 50.5308V30.5403L144.723 30.4557C144.766 30.158 144.918 29.8866 145.148 29.693C145.379 29.4994 145.672 29.3971 145.973 29.4054C146.624 29.4054 147.164 29.8707 147.228 30.4557L147.235 30.5403V50.5332L147.239 50.5802C147.239 51.231 146.671 51.755 145.978 51.755ZM59.4248 25.7283H70.3058V29.4172H65.1273V55.4274H59.4248V25.7283ZM77.4628 44.2691L78.4449 29.4125H78.7668L79.7442 44.2691H77.4628ZM71.1517 55.4298H76.7273L77.263 47.5351H79.9534L80.4797 55.4298H86.0647L83.0854 25.7306H74.1263L71.1517 55.4298ZM94.2296 45.0304V50.6201C94.2296 51.3837 94.7935 51.5999 95.1225 51.5999C95.6511 51.5999 96.0177 51.13 96.0177 50.6201V43.7123C96.0177 42.7818 95.8579 41.7668 93.7315 41.7668H91.4195V38.4985H93.8161C95.4444 38.4985 96.0177 38.1108 96.0177 36.2992V30.3876C96.0177 29.8824 95.6511 29.4172 95.1248 29.4172C94.7912 29.4172 94.232 29.6286 94.232 30.3876V35.2325H88.5224V31.0337C88.5224 28.9543 88.7715 25.7283 92.7588 25.7283H97.4885C101.483 25.7283 101.725 28.9543 101.725 31.0337V35.7893C101.725 39.006 99.5632 39.8965 97.8504 39.8119V40.1126C101.68 40.0186 101.727 43.0779 101.727 44.1422V50.1173C101.727 52.2014 101.483 55.4274 97.4885 55.4274H92.7588C88.7715 55.4274 88.5224 52.2014 88.5224 50.1173V45.028L94.2296 45.0304ZM105.477 25.7283H118.677V55.4274H113.356V29.4172H110.794V55.4274H105.477V25.7283ZM128.508 42.0581V29.4172H130.01C130.628 29.4172 131.076 29.9694 131.076 30.8974V40.5779C131.076 41.513 130.628 42.0581 130.01 42.0581H128.508ZM122.81 55.4274H128.511V45.3311H131.769C135.764 45.3311 136.398 42.1098 136.398 40.021V31.0337C136.398 28.9543 135.764 25.7236 131.769 25.7236H122.81V55.4274ZM170.778 25.7283H178.195V55.4274H172.488V36.802H172.284L169.347 55.4274H164.789L161.854 36.802H161.654V55.4274H155.947V25.7283H163.355L167.058 46.5999L170.778 25.7283ZM47.7801 15.3571C45.9803 7.46239 41.4573 1.04558 40.8393 0C39.8525 1.47321 36.2529 7.13578 34.4202 13.4233C32.5911 19.7022 32.0453 26.2851 32.8154 32.7795C33.5038 38.9002 36.0931 45.1855 36.0931 45.1855C37.4676 48.489 39.5282 52.0205 40.8699 53.7568C42.8318 51.2028 47.3595 43.583 48.7646 33.6301C49.547 28.0967 49.5799 23.2448 47.7801 15.3571ZM40.8393 51.7926C39.9558 50.1243 38.5743 46.9524 38.4427 42.0487C38.4098 37.2978 40.313 33.233 40.8699 32.3824C41.368 33.233 42.9963 36.7738 43.1936 41.6164C43.2878 45.1528 42.4774 48.657 40.8393 51.7926ZM47.2608 28.7475C47.1903 31.7598 46.8332 34.9364 46.375 36.8302C46.5395 33.5643 46.1447 28.9473 45.3882 25.3406C44.641 21.734 42.5052 15.7213 40.8041 12.9323C39.2392 15.5826 37.3008 20.7894 36.2881 25.3124C35.2684 29.8307 35.2378 35.2983 35.2378 36.943C34.9676 35.5497 34.2909 30.6296 34.486 25.6743C34.6457 21.5836 35.5997 17.3872 36.1236 15.4511C38.1208 9.00139 40.3835 4.8778 40.8041 4.2199C41.227 4.8778 44.0818 9.95298 45.5573 15.2866C46.7408 19.674 47.3141 24.2036 47.2608 28.7475Z" fill="#D8D8D8"/>
<path d="M29.7391 55.5093V64.8443C29.7532 64.8326 29.7626 64.8208 29.7837 64.8067C31.3534 63.2449 33.4776 62.3682 35.6918 62.3682C37.9061 62.3682 40.0303 63.2449 41.5999 64.8067C42.3802 65.581 42.9988 66.5027 43.4197 67.5182C43.8406 68.5337 44.0554 69.6228 44.0517 70.722C44.048 71.8213 43.8258 72.9088 43.398 73.9214C42.9703 74.9341 42.3455 75.8516 41.56 76.6206C38.4219 79.7472 34.1713 81.503 29.7414 81.4984C25.3175 81.5012 21.0728 79.7506 17.937 76.63C16.3875 75.0885 15.158 73.2561 14.319 71.2379C13.48 69.2198 13.0482 67.0557 13.0482 64.8701C13.0482 62.6846 13.48 60.5205 14.319 58.5024C15.158 56.4842 16.3875 54.6518 17.937 53.1103C19.4883 51.5632 21.3294 50.337 23.3548 49.5017C25.3803 48.6663 27.5505 48.2383 29.7414 48.2419V25.9746C13.3247 25.9746 0 39.2359 0 55.5821C0 71.9425 13.3223 85.2037 29.7414 85.2037C33.8085 85.2097 37.8334 84.3802 41.5668 82.7667C45.3001 81.1533 48.6622 78.7902 51.4448 75.8241V55.5093H29.7391ZM120.709 71.8556H120.246V77.8635H120.709C121.379 77.8635 121.621 77.6732 121.621 76.9166V72.7696C121.621 72.0106 121.379 71.8556 120.709 71.8556ZM168.942 75.871H168.272V79.2357H168.942C169.616 79.2357 169.821 79.0642 169.821 78.3288V76.7757C169.821 76.0379 169.616 75.871 168.942 75.871ZM115.925 72.8048V76.9331C115.925 77.6897 116.167 77.8635 116.832 77.8635H117.319V71.8556H116.832C116.167 71.8556 115.925 72.0482 115.925 72.8048ZM178.16 65.4035H59.3865V85.2037H178.16V65.4035ZM72.2812 81.5148H69.269V75.871H67.723V81.5148H64.7108V68.6201H67.723V73.5966H69.269V68.6201H72.2812V81.5148ZM97.2506 71.0567H93.1317V73.5919H96.8183V76.0355H93.1294V79.0759H97.2506V81.5242H90.0255V68.6084H97.2506V71.0567ZM124.541 76.9166C124.541 79.5341 123.211 80.239 120.246 80.239V81.5148H117.319V80.239C114.344 80.239 112.995 79.5341 112.995 76.9166V72.887C112.995 70.2555 114.288 69.5858 117.319 69.5858V68.6201H120.246V69.5835C123.254 69.5835 124.541 70.2555 124.541 72.887V76.9166ZM147.706 71.0567H145.425V81.5242H142.558V71.0567H140.115V68.6084H147.704L147.706 71.0567ZM172.828 78.1901C172.828 81.0097 171.543 81.5148 168.27 81.5148H165.26V68.6201H168.272V73.5966H168.775C171.733 73.5966 172.828 74.2874 172.828 76.8626V78.1901Z" fill="#D8D8D8"/>
<path d="M250.283 34.7763H242.954V49.5645H239.328V31.6943H250.283V34.7763Z" fill="#D8D8D8"/>
<path d="M249.383 49.5645L255.599 31.6943H259.069L265.285 49.5645H261.426L260.338 46.1717H254.355L253.268 49.5645H249.383ZM255.314 43.1157H259.354L257.334 36.8223L255.314 43.1157Z" fill="#D8D8D8"/>
<path d="M271.112 38.807H273.054C274.09 38.807 274.815 38.5998 275.255 38.2113C275.471 38.0102 275.64 37.7648 275.752 37.4922C275.864 37.2195 275.915 36.9259 275.903 36.6315C275.914 36.3534 275.867 36.0761 275.764 35.8174C275.661 35.5587 275.506 35.3243 275.307 35.1294C274.919 34.7409 274.219 34.5337 273.235 34.5337C272.277 34.5337 271.552 34.7409 271.086 35.1553C270.607 35.5706 270.249 36.1074 270.05 36.7092H266.864C266.919 35.9609 267.135 35.2333 267.497 34.5762C267.859 33.9191 268.359 33.348 268.962 32.9021C269.558 32.4618 270.205 32.1251 270.956 31.8661C272.5 31.4066 274.142 31.3886 275.696 31.8143C276.4 31.9868 277.066 32.2851 277.664 32.6949C278.245 33.0969 278.719 33.6353 279.044 34.2628C279.369 34.8904 279.536 35.5881 279.529 36.2948C279.559 37.1164 279.342 37.9282 278.907 38.6257C278.464 39.2746 277.88 39.8147 277.198 40.2055C278.039 40.5369 278.767 41.1033 279.296 41.8372C279.85 42.6037 280.132 43.5334 280.098 44.4788C280.11 45.2383 279.95 45.9905 279.632 46.6802C279.335 47.3403 278.882 47.9182 278.311 48.3636C277.681 48.8611 276.96 49.2306 276.188 49.4514C275.263 49.7238 274.303 49.8548 273.339 49.8399C271.679 49.9137 270.038 49.4604 268.651 48.5449C267.364 47.5314 266.527 46.0524 266.32 44.427H269.791C270.037 45.1234 270.467 45.7407 271.034 46.214C271.68 46.6297 272.442 46.8293 273.209 46.7838C275.385 46.7838 276.473 45.9551 276.473 44.3234C276.473 42.6918 275.307 41.8631 273.002 41.8631H271.112V38.807Z" fill="#D8D8D8"/>
<path d="M297.031 31.6943V49.5645H293.405V34.7763H286.931V49.5645H283.305V31.6943H297.031Z" fill="#D8D8D8"/>
<path d="M305.016 43.2711V49.5645H301.391V31.6943H307.788C309.86 31.6943 311.465 32.1605 312.657 33.1187C313.874 34.077 314.47 35.5014 314.47 37.4179C314.47 39.3085 313.874 40.7848 312.682 41.7689C311.286 42.8439 309.547 43.3774 307.788 43.2711H305.016ZM307.27 40.215C308.539 40.215 309.445 39.9819 309.989 39.5416C310.559 39.1013 310.844 38.3762 310.844 37.4179C310.844 36.5633 310.559 35.8899 309.989 35.4496C309.445 35.0093 308.539 34.7763 307.27 34.7763H305.016V40.215H307.27Z" fill="#D8D8D8"/>
<path d="M330.507 41.9422C330.532 43.1454 330.357 44.3444 329.989 45.4904C329.703 46.4006 329.227 47.2394 328.591 47.9508C327.987 48.5891 327.242 49.077 326.415 49.3752C325.526 49.6933 324.588 49.8512 323.644 49.8414C322.7 49.8512 321.762 49.6933 320.873 49.3752C320.056 49.0726 319.32 48.585 318.723 47.9508C318.085 47.2368 317.6 46.3994 317.299 45.4904C316.95 44.3408 316.784 43.1434 316.807 41.9422V39.4042C316.807 38.0315 316.962 36.8402 317.299 35.856C317.636 34.846 318.128 34.0431 318.723 33.3956C319.311 32.7506 320.05 32.2612 320.873 31.9712C321.762 31.6531 322.7 31.4952 323.644 31.505C324.588 31.4952 325.526 31.6531 326.415 31.9712C327.248 32.2564 327.996 32.7462 328.591 33.3956C329.234 34.1016 329.712 34.9421 329.989 35.856C330.359 37.0014 330.535 38.2008 330.507 39.4042V41.9422ZM320.433 41.9422C320.433 43.6516 320.692 44.8947 321.236 45.6458C321.511 46.021 321.875 46.3218 322.295 46.5208C322.716 46.7198 323.18 46.8107 323.644 46.7853C324.68 46.7853 325.509 46.3968 326.053 45.6458C326.597 44.8688 326.881 43.6516 326.881 41.9422V39.4042C326.881 37.6948 326.622 36.4517 326.053 35.7006C325.778 35.3254 325.413 35.0246 324.993 34.8256C324.572 34.6266 324.109 34.5357 323.644 34.5611C323.18 34.5357 322.716 34.6266 322.295 34.8256C321.875 35.0246 321.511 35.3254 321.236 35.7006C320.718 36.4776 320.433 37.6948 320.433 39.4042V41.9422Z" fill="#D8D8D8"/>
<path d="M342.269 41.4322L347.241 31.6943H350.686V49.5645H347.215V38.4798L343.331 46.353H341.129L337.296 38.5575V49.5645H333.852V31.6943H337.244L342.269 41.4322Z" fill="#D8D8D8"/>
<path d="M358.595 38.7906H364.784V31.6943H368.41V49.5645H364.784V41.8466H358.595V49.5645H354.969V31.6943H358.595V38.7906Z" fill="#D8D8D8"/>
<path d="M383.855 31.6943V34.7763H376.345V38.7906H383.078V41.8466H376.345V46.5084H383.855V49.5645H372.719V31.6943H383.855Z" fill="#D8D8D8"/>
<path d="M393.466 31.9521H397.092V33.2471C398.128 33.2471 399.086 33.3765 399.967 33.6096C400.836 33.817 401.64 34.2384 402.305 34.8354C402.97 35.4325 403.475 36.1863 403.774 37.0283C404.186 38.1285 404.38 39.2985 404.344 40.4728V41.3016C404.378 42.4842 404.184 43.6623 403.774 44.772C403.452 45.6271 402.928 46.3914 402.246 46.9993C401.586 47.5634 400.807 47.9707 399.967 48.1906C399.026 48.4222 398.061 48.5353 397.092 48.5273V49.8223H393.466V48.5273C392.489 48.5345 391.515 48.4214 390.566 48.1906C389.719 47.9669 388.933 47.5603 388.261 46.9993C387.592 46.3853 387.077 45.6222 386.759 44.772C386.366 43.6583 386.182 42.4819 386.215 41.3016V40.4728C386.215 39.1002 386.396 37.9347 386.759 37.0283C387.068 36.1734 387.584 35.4083 388.261 34.801C388.924 34.2271 389.714 33.8188 390.566 33.6096C391.512 33.3618 392.488 33.2399 393.466 33.2471V31.9521ZM397.092 45.4713C397.688 45.4713 398.232 45.4195 398.672 45.29C399.096 45.1672 399.48 44.935 399.786 44.6166C400.122 44.2596 400.363 43.8229 400.485 43.3476C400.656 42.6795 400.735 41.991 400.718 41.3016V40.4728C400.735 39.7833 400.656 39.0949 400.485 38.4268C400.363 37.9515 400.122 37.5148 399.786 37.1578C399.483 36.8416 399.097 36.6172 398.672 36.5103C398.159 36.3633 397.626 36.2935 397.092 36.3031V45.4713ZM393.466 36.3031C392.932 36.2935 392.4 36.3633 391.887 36.5103C391.456 36.6203 391.062 36.8439 390.747 37.1578C390.425 37.5213 390.194 37.9563 390.074 38.4268C389.902 39.0949 389.824 39.7833 389.841 40.4728V41.3016C389.824 41.991 389.902 42.6795 390.074 43.3476C390.194 43.8181 390.425 44.2531 390.747 44.6166C391.066 44.9315 391.457 45.1628 391.887 45.29C392.403 45.4189 392.934 45.4799 393.466 45.4713V36.3031Z" fill="#D8D8D8"/>
<path d="M419.241 31.6943V34.7763H414.32V49.5645H410.694V34.7763H405.773V31.6943H419.241Z" fill="#D8D8D8"/>
<path d="M425.532 31.7083V38.2607H428.303C429.331 38.236 430.355 38.3849 431.333 38.7009C432.105 38.9503 432.812 39.3658 433.405 39.9182C433.945 40.4158 434.354 41.0383 434.597 41.7311C435.134 43.1495 435.134 44.7155 434.597 46.1339C434.348 46.8164 433.94 47.4293 433.405 47.9209C432.803 48.4615 432.099 48.8754 431.333 49.1382C430.355 49.4542 429.331 49.6031 428.303 49.5784H421.906V31.7083H425.532ZM425.532 41.3167V46.5224H428.096C429.287 46.5224 430.116 46.2893 430.608 45.8231C431.126 45.3569 431.359 44.7354 431.359 43.9325C431.359 43.1296 431.1 42.4822 430.608 42.016C430.116 41.5498 429.287 41.3167 428.096 41.3167H425.532Z" fill="#D8D8D8"/>
<path d="M242.901 68.4691H244.843C245.879 68.4691 246.604 68.2619 247.044 67.8734C247.26 67.6723 247.429 67.427 247.541 67.1543C247.653 66.8816 247.704 66.588 247.692 66.2936C247.703 66.0155 247.656 65.7382 247.553 65.4795C247.45 65.2208 247.295 64.9864 247.096 64.7915C246.708 64.403 246.008 64.1958 245.024 64.1958C244.066 64.1958 243.341 64.403 242.875 64.8174C242.396 65.2327 242.038 65.7695 241.839 66.3713H238.653C238.708 65.623 238.924 64.8954 239.286 64.2383C239.648 63.5812 240.148 63.0101 240.751 62.5642C241.347 62.1239 241.994 61.7872 242.745 61.5282C244.289 61.0687 245.931 61.0507 247.485 61.4764C248.189 61.6489 248.855 61.9472 249.453 62.357C250.034 62.759 250.508 63.2974 250.833 63.9249C251.158 64.5525 251.325 65.2502 251.318 65.9569C251.348 66.7785 251.131 67.5903 250.696 68.2878C250.253 68.9367 249.669 69.4768 248.987 69.8676C249.828 70.199 250.556 70.7654 251.085 71.4993C251.639 72.2658 251.922 73.1955 251.888 74.1409C251.899 74.9004 251.739 75.6527 251.421 76.3423C251.124 77.0025 250.671 77.5803 250.101 78.0258C249.47 78.5232 248.749 78.8927 247.977 79.1135C247.052 79.3859 246.092 79.5169 245.128 79.502C243.468 79.5758 241.827 79.1226 240.44 78.207C239.153 77.1935 238.316 75.7145 238.109 74.0891H241.58C241.826 74.7855 242.256 75.4028 242.823 75.8762C243.469 76.2918 244.231 76.4914 244.998 76.4459C247.174 76.4459 248.262 75.6172 248.262 73.9855C248.262 72.3539 247.096 71.5252 244.791 71.5252H242.901V68.4691Z" fill="#D8D8D8"/>
<path d="M253.055 79.2422L259.27 61.372H262.741L268.957 79.2422H265.098L264.01 75.8494H258.027L256.94 79.2422H253.055ZM258.986 72.7934H263.026L261.006 66.5L258.986 72.7934Z" fill="#D8D8D8"/>
<path d="M284.929 61.372V79.2422H281.304V64.454H274.829V79.2422H271.203V61.372H284.929Z" fill="#D8D8D8"/>
<path d="M302.499 71.6043C302.524 72.8075 302.349 74.0065 301.981 75.1525C301.696 76.0627 301.219 76.9015 300.583 77.6129C299.979 78.2512 299.234 78.7391 298.407 79.0373C297.519 79.3555 296.58 79.5133 295.636 79.5035C294.692 79.5133 293.754 79.3555 292.865 79.0373C292.048 78.7347 291.313 78.2471 290.716 77.6129C290.077 76.8989 289.592 76.0615 289.291 75.1525C288.942 74.0029 288.776 72.8056 288.799 71.6043V69.0663C288.799 67.6936 288.954 66.5023 289.291 65.5181C289.628 64.5081 290.12 63.7052 290.716 63.0578C291.303 62.4127 292.042 61.9233 292.865 61.6333C293.754 61.3152 294.692 61.1573 295.636 61.1671C296.58 61.1573 297.519 61.3152 298.407 61.6333C299.24 61.9185 299.988 62.4083 300.583 63.0578C301.226 63.7637 301.704 64.6042 301.981 65.5181C302.352 66.6635 302.527 67.8629 302.499 69.0663V71.6043ZM292.425 71.6043C292.425 73.3137 292.684 74.5568 293.228 75.3079C293.503 75.6832 293.867 75.9839 294.288 76.1829C294.708 76.3819 295.172 76.4728 295.636 76.4474C296.672 76.4474 297.501 76.0589 298.045 75.3079C298.589 74.5309 298.874 73.3137 298.874 71.6043V69.0663C298.874 67.357 298.615 66.1138 298.045 65.3627C297.77 64.9875 297.406 64.6867 296.985 64.4877C296.564 64.2888 296.101 64.1978 295.636 64.2232C295.172 64.1978 294.708 64.2888 294.288 64.4877C293.867 64.6867 293.503 64.9875 293.228 65.3627C292.71 66.1397 292.425 67.357 292.425 69.0663V71.6043Z" fill="#D8D8D8"/>
<path d="M319.048 61.5061V79.3763H315.422V64.5881H310.968V66.5564C310.958 68.673 310.889 70.7889 310.761 72.9016C310.671 73.9707 310.445 75.0239 310.087 76.0353C309.712 77.073 309.024 77.9688 308.119 78.5993C307.076 79.2472 305.876 79.5966 304.648 79.6094V76.0094C305.192 75.9317 305.658 75.7505 305.995 75.4915C306.332 75.2325 306.617 74.844 306.798 74.3519C307.048 73.4916 307.195 72.605 307.238 71.7102C307.342 69.9944 307.377 68.275 307.342 66.5564V61.5061H319.048Z" fill="#D8D8D8"/>
<path d="M321.719 79.4844L325.863 71.9996C324.854 71.6774 323.968 71.0537 323.324 70.2126C322.7 69.2715 322.391 68.1556 322.444 67.0271C322.444 65.2142 323.04 63.8674 324.257 62.961C325.72 61.9955 327.453 61.5236 329.203 61.6142H335.523V79.4844H331.897V72.4658H329.411L325.707 79.4844H321.719ZM331.897 69.4098V64.6962H329.462C328.586 64.6464 327.711 64.8249 326.924 65.2142C326.355 65.5508 326.07 66.1465 326.07 67.0271C326.063 67.3787 326.115 67.729 326.225 68.063C326.331 68.36 326.52 68.6206 326.769 68.8141C327.082 69.0277 327.434 69.1773 327.805 69.2544C328.35 69.3692 328.906 69.4213 329.462 69.4098H331.897Z" fill="#D8D8D8"/>
<path d="M343.454 72.9488V79.2422H339.828V61.372H346.225C348.297 61.372 349.903 61.8382 351.094 62.7965C352.311 63.7547 352.907 65.1792 352.907 67.0957C352.907 68.9863 352.311 70.4625 351.12 71.4467C349.723 72.5216 347.985 73.0552 346.225 72.9488H343.454ZM345.707 69.8927C346.976 69.8927 347.883 69.6596 348.427 69.2194C348.996 68.7791 349.281 68.0539 349.281 67.0957C349.281 66.241 348.996 65.5676 348.427 65.1274C347.883 64.6871 346.976 64.454 345.707 64.454H343.454V69.8927H345.707Z" fill="#D8D8D8"/>
<path d="M359.376 61.3694V67.9218H362.147C363.175 67.8972 364.199 68.046 365.177 68.3621C365.948 68.6114 366.656 69.0269 367.249 69.5793C367.789 70.0769 368.198 70.6995 368.44 71.3922C368.978 72.8107 368.978 74.3766 368.44 75.795C368.192 76.4775 367.784 77.0904 367.249 77.582C366.647 78.1226 365.942 78.5365 365.177 78.7993C364.199 79.1153 363.175 79.2642 362.147 79.2396H355.75V61.3694H359.376ZM359.376 70.9779V76.1835H361.94C363.131 76.1835 363.96 75.9504 364.452 75.4842C364.97 75.0181 365.203 74.3965 365.203 73.5936C365.203 72.7908 364.944 72.1433 364.452 71.6771C363.96 71.2109 363.131 70.9779 361.94 70.9779H359.376Z" fill="#D8D8D8"/>
<path d="M383.082 61.372V64.454H375.571V68.4683H382.305V71.5244H375.571V76.1861H383.082V79.2422H371.945V61.372H383.082Z" fill="#D8D8D8"/>
</svg>
