<svg width="178" height="49" viewBox="0 0 178 49" fill="none" xmlns="http://www.w3.org/2000/svg">
<g clip-path="url(#clip0)">
<path d="M84.7724 13.8853C81.0325 13.8853 76.3711 15.9761 76.3711 20.9082V28.2529C76.3711 33.185 81.0325 35.2758 84.7724 35.2758C88.5124 35.2758 93.228 33.1314 93.228 28.2529V20.9082C93.228 15.9761 88.5124 13.8853 84.7724 13.8853ZM88.2956 27.824C88.2956 29.8076 86.8321 30.987 84.7724 30.987C82.7128 30.987 81.3035 29.8076 81.3035 27.824V21.3371C81.3035 19.3535 82.767 18.1741 84.7724 18.1741C86.8321 18.1741 88.2956 19.2999 88.2956 21.3371V27.824Z" fill="#D8D8D8"/>
<path d="M115.993 14.314H112.958C111.928 14.314 111.765 15.0109 111.549 15.3862L107.212 23.0525L102.876 15.3862C102.605 15.0109 102.497 14.314 101.413 14.314H98.2691C97.5645 14.314 97.3477 14.6356 97.3477 15.2253V33.9354C97.3477 34.6323 97.6729 34.8468 98.2691 34.8468H101.413C101.955 34.8468 102.334 34.686 102.334 33.9354V23.3741L105.532 28.8424C105.695 29.1105 105.966 29.4857 106.399 29.4857H107.971C108.459 29.4857 108.73 29.1105 108.893 28.8424L112.036 23.3741V33.9354C112.036 34.6323 112.362 34.8468 112.958 34.8468H115.993C116.535 34.8468 116.915 34.686 116.915 33.9354V15.2253C116.915 14.6356 116.698 14.314 115.993 14.314Z" fill="#D8D8D8"/>
<path d="M135.83 14.3677H121.25C120.545 14.3677 120.328 14.6893 120.328 15.2791V17.8524C120.328 18.3885 120.491 18.7637 121.25 18.7637H126.074V33.9355C126.074 34.6324 126.399 34.8469 126.995 34.8469H130.085C130.627 34.8469 131.006 34.6861 131.006 33.9355V18.7101H135.83C136.535 18.7101 136.751 18.3885 136.751 17.7987V15.2254C136.751 14.6893 136.535 14.3677 135.83 14.3677Z" fill="#D8D8D8"/>
<path d="M147.431 13.8853C143.528 13.8853 139.68 15.8688 139.246 19.7824C139.246 20.533 139.517 20.6938 140.222 20.6938H143.257C143.907 20.6938 143.962 20.1041 144.179 19.7288C144.829 18.7102 145.696 18.2277 147.431 18.2277C149.49 18.2277 150.9 19.3535 150.9 21.3371V22.1949H145.859C145.154 22.1949 144.937 22.5165 144.937 23.1063V25.4651C144.937 26.0012 145.1 26.3765 145.859 26.3765H150.9V27.824C150.9 29.8076 149.49 30.9334 147.431 30.9334C145.75 30.9334 144.395 30.2901 144.124 28.8426C144.016 28.1993 143.962 27.7168 143.257 27.7168H140.168C139.463 27.7168 139.246 28.0384 139.246 28.789C139.246 32.8098 143.528 35.3295 147.431 35.3295C151.171 35.3295 155.886 33.185 155.886 28.3065V20.9082C155.832 16.0297 151.171 13.8853 147.431 13.8853Z" fill="#D8D8D8"/>
<path d="M74.0942 14.3676H69.8664C69.1618 14.3676 68.945 14.4212 68.2946 15.1181L61.7903 22.1947V15.2253C61.7903 14.5284 61.4651 14.314 60.9231 14.314H57.8335C57.2373 14.314 56.9121 14.5284 56.9121 15.2253V33.8818C56.9121 34.5787 57.2373 34.7932 57.8335 34.7932H60.9231C61.4651 34.7932 61.7903 34.6323 61.7903 33.8818V28.3599L74.4194 15.1717C74.6904 14.9573 74.6904 14.3676 74.0942 14.3676Z" fill="#D8D8D8"/>
<path d="M68.7297 24.7681C68.6213 24.6072 68.4587 24.5 68.2419 24.5C68.0793 24.5 67.9167 24.5536 67.8083 24.6608L65.5318 27.0197C65.2608 27.2877 65.1523 27.6094 65.1523 28.0383C65.1523 28.3063 65.2065 28.5744 65.3692 28.7888C66.941 31.3621 68.4045 33.8282 68.4045 33.8282C68.8381 34.4716 69.2175 34.8468 69.9763 34.8468H73.8247C74.4209 34.8468 74.5293 34.2571 74.3125 33.8282L68.7297 24.7681Z" fill="#D8D8D8"/>
<path d="M177.512 14.3676H173.284C172.579 14.3676 172.362 14.4212 171.712 15.1181L165.208 22.1947V15.2253C165.208 14.5284 164.883 14.314 164.341 14.314H161.197C160.601 14.314 160.275 14.5284 160.275 15.2253V33.8818C160.275 34.5787 160.601 34.7932 161.197 34.7932H164.341C164.883 34.7932 165.208 34.6323 165.208 33.8818V28.3599L177.837 15.1717C178.108 14.9573 178.108 14.3676 177.512 14.3676Z" fill="#D8D8D8"/>
<path d="M172.146 24.7681C172.037 24.6072 171.875 24.5 171.658 24.5C171.495 24.5 171.333 24.5536 171.224 24.6608L168.948 27.0197C168.677 27.2877 168.568 27.6094 168.568 28.0383C168.568 28.3063 168.623 28.5744 168.785 28.7888C170.357 31.3621 171.82 33.8282 171.82 33.8282C172.254 34.4716 172.634 34.8468 173.392 34.8468H177.241C177.837 34.8468 177.945 34.2571 177.728 33.8282L172.146 24.7681Z" fill="#D8D8D8"/>
<path d="M0 34.8468C0 36.2407 0.758831 37.5274 1.95128 38.1707L13.2253 44.6039C13.9842 43.7998 17.3989 39.779 20.38 35.0077C18.1035 34.5788 16.2607 33.2921 15.1224 31.5766C8.56395 31.3085 2.27649 30.0219 0 29.5394V34.8468ZM23.3069 35.0613C20.38 40.1007 16.8027 44.4431 15.5018 45.9442L20.0548 48.5175C20.651 48.8392 21.3015 49.0536 22.0061 49.0536C22.7107 49.0536 23.3611 48.8928 23.9574 48.5175L35.394 41.977C35.0688 40.8512 33.1175 34.686 30.028 28.6816C29.3234 31.9519 26.6675 34.5252 23.3069 35.0613ZM29.1066 22.1947C33.768 28.9497 36.8033 37.9562 37.6163 40.6368L42.0067 38.1171C43.1991 37.4201 43.958 36.1335 43.958 34.7932V21.8195C42.8197 21.5514 35.2856 19.8359 27.6973 19.7287L29.1066 22.1947ZM21.4641 15.8687C21.3015 16.1368 17.2905 23.0525 16.5317 25.0361C16.3149 25.6258 16.2065 26.2691 16.2065 26.9661C16.2065 28.4672 16.8027 29.9147 17.8867 30.9869C18.9708 32.0591 20.4342 32.6488 22.0061 32.6488C25.204 32.6488 27.7515 30.0755 27.7515 26.9661C27.7515 26.3228 27.6431 25.6794 27.4263 25.0361C26.7217 22.9989 22.6565 16.1368 22.4939 15.8151C22.3855 15.6543 22.1687 15.547 21.9519 15.547C21.7893 15.6007 21.5725 15.7079 21.4641 15.8687ZM1.95128 10.8293C0.758831 11.5263 0 12.8129 0 14.1532V26.9125C1.35505 27.2341 7.4799 28.5744 13.9842 28.9497C13.8758 28.36 13.7674 27.7702 13.7674 27.1805C13.7674 26.4836 13.8216 25.7867 13.93 25.1433C11.1115 20.5864 7.26309 12.116 6.28745 8.30963L1.95128 10.8293ZM23.6864 12.7593L26.2339 17.209C33.7138 17.1017 41.5731 18.7101 43.958 19.2462V14.2068C43.958 12.8129 43.1991 11.5799 42.0067 10.8829L30.6242 4.39606C29.8112 5.25383 26.7217 8.52407 23.6864 12.7593ZM20.0006 0.536105L8.61815 7.02298C9.05177 8.47046 11.3283 15.7615 15.0682 22.1411C16.5859 19.407 19.8922 13.5635 20.5968 12.5985L21.0305 12.0088C24.0116 7.82713 26.9927 4.44967 28.3477 3.0558L23.9032 0.536105C23.3069 0.214442 22.6023 0 21.9519 0C21.3015 0 20.651 0.160832 20.0006 0.536105Z" fill="url(#paint0_linear)"/>
</g>
<defs>
<linearGradient id="paint0_linear" x1="0" y1="24.5016" x2="43.9504" y2="24.5016" gradientUnits="userSpaceOnUse">
<stop stop-color="#D8D8D8"/>
<stop offset="1" stop-color="#D8D8D8"/>
</linearGradient>
<clipPath id="clip0">
<rect width="178" height="49" fill="white"/>
</clipPath>
</defs>
</svg>
