<?xml version="1.0" encoding="UTF-8"?>
<svg xmlns="http://www.w3.org/2000/svg" width="90" height="57" viewBox="0 0 90 57" fill="none">
	<path d="M25.6258 27.0234H21.9502V30.4915H25.6258V27.0234Z" fill="#D8D8D8">
	</path>
	<path d="M25.6258 32.7578H21.9502V49.4114H25.6258V32.7578Z" fill="#D8D8D8">
	</path>
	<path d="M51.1145 27.0234H47.439V30.4915H51.1145V27.0234Z" fill="#D8D8D8">
	</path>
	<path d="M51.1145 32.7578H47.439V49.4114H51.1145V32.7578Z" fill="#D8D8D8">
	</path>
	<path d="M85.8777 27.0234H82.2021V49.4457H85.8777V27.0234Z" fill="#D8D8D8">
	</path>
	<path d="M40.5345 32.8952C40.2253 32.6549 39.8818 32.4488 39.5383 32.3115C38.4391 31.7964 37.2711 31.5561 36.1375 31.5561C34.9352 31.5217 33.6986 31.7964 32.5994 32.4145C31.5001 32.9982 30.607 33.891 29.9887 34.8868C28.7177 36.8784 28.4085 39.076 28.4772 41.0675C28.5459 42.0633 28.649 43.0934 28.9581 44.1235C29.2673 45.1537 29.7482 46.1495 30.4352 47.0766C31.1223 48.0037 32.1185 48.7248 33.1833 49.2055C33.733 49.4458 34.2826 49.5832 34.8322 49.6862C35.3818 49.7549 35.9658 49.7892 36.481 49.7892C37.5803 49.7549 38.7139 49.4802 39.7101 48.9308C39.9849 48.7934 40.2597 48.6217 40.5001 48.4157V48.8278C40.5001 52.1585 38.336 53.1886 36.0688 53.1886C34.8322 53.1886 33.0803 52.6392 32.1528 50.9223H28.6833C28.752 51.1627 28.8207 51.3344 28.8207 51.3344C29.9543 54.5278 32.5994 56.382 36.1032 56.382H36.1375C39.8131 56.382 43.9696 53.841 43.9696 48.038V32.0711H40.6719L40.5345 32.8952ZM39.607 45.1193C38.8856 46.2868 37.7864 46.9049 36.3436 46.9392C34.9009 47.0079 33.7673 46.4585 33.0116 45.3597C32.2559 44.2609 31.9467 42.647 31.9123 40.9988C31.878 39.3507 32.1872 37.7368 32.9085 36.5693C33.6299 35.3675 34.7635 34.7495 36.0688 34.7495C37.5116 34.7495 38.7826 35.2988 39.5039 36.3633C39.8818 36.9127 40.1566 37.5651 40.3627 38.2862C40.5345 39.0073 40.6032 39.8314 40.6032 40.6555C40.6375 42.3037 40.3627 43.9519 39.607 45.1193Z" fill="#D8D8D8">
	</path>
	<path d="M89.3475 49.3771H85.9468V52.7765H89.3475V49.3771Z" fill="#D8D8D8">
	</path>
	<path d="M4.25933 2.9187H0.824219V6.35244H4.25933V2.9187Z" fill="#D8D8D8">
	</path>
	<path d="M18.8588 10.3699C18.4466 8.55002 17.4504 7.14219 15.6985 6.38677C14.5649 5.90605 13.3626 5.80303 12.1604 5.90605C9.44662 6.21508 7.72906 8.24099 7.62601 8.30966C7.5573 7.62291 7.4886 7.00484 7.4199 6.38677H4.29395V23.4868H7.72906V23.006C7.72906 19.7783 7.72906 15.8982 7.72906 12.7048C7.72906 12.4645 7.76341 12.2241 7.83211 12.0181C8.51914 9.99219 10.4772 8.82472 12.5726 9.13376C14.1184 9.37412 15.0802 10.1982 15.4581 11.7091C15.5955 12.3271 15.6642 12.9452 15.6642 13.5633C15.6985 16.482 15.6642 20.0874 15.6642 23.006V23.4868H19.1336C19.1336 23.3494 19.168 23.2464 19.168 23.1091C19.168 19.8813 19.2023 16.0012 19.168 12.7735C19.1336 11.9494 19.0306 11.1253 18.8588 10.3699Z" fill="#D8D8D8">
	</path>
	<path d="M29.9196 5.8717C26.0379 5.8717 22.1562 8.65303 22.1562 14.8338C22.1562 21.4265 26.1753 23.7958 29.954 23.7958H29.9883C33.4234 23.7958 36.0341 21.9759 37.1333 18.8169C37.1333 18.8169 37.2021 18.6452 37.2708 18.4048H33.7669C32.8738 20.0874 31.1562 20.6368 29.9196 20.6368C27.6181 20.6368 25.7288 18.7825 25.557 16.1386H37.683C37.683 15.8295 37.7173 15.3831 37.7173 14.8338C37.7173 8.68737 33.8013 5.8717 29.9196 5.8717ZM25.6601 13.1856C26.1066 10.6789 27.6524 9.06508 29.9196 9.06508C32.1868 9.06508 33.7669 10.6789 34.2479 13.1856H25.6601Z" fill="#D8D8D8">
	</path>
	<path d="M52.1794 7.48553C51.9046 7.14215 50.3245 5.83733 47.8512 5.83733C46.6833 5.83733 45.4466 6.0777 44.3474 6.66143C43.2481 7.24517 42.3894 8.13794 41.771 9.09938C40.5 11.0566 40.2252 13.2199 40.2596 15.1771C40.3283 16.1729 40.4313 17.1687 40.7405 18.1644C41.0497 19.1602 41.5306 20.156 42.2176 21.0831C42.9046 21.9759 43.9008 22.697 44.9313 23.1777C45.4466 23.4181 46.0306 23.5554 46.5802 23.6584C47.1298 23.7271 47.6794 23.7614 48.2291 23.7614C50.084 23.7614 51.5955 22.8 52.2138 22.2506L52.3168 23.4867H55.5459V0.721069H52.1794V7.48553ZM51.2863 19.2289C50.5649 20.362 49.4657 20.9801 48.0917 21.0144C46.6833 21.0831 45.5497 20.5337 44.7939 19.4693C44.0382 18.4048 43.7291 16.7909 43.7291 15.1771C43.6947 13.5632 44.0039 11.9494 44.7252 10.8162C45.4466 9.64878 46.5459 9.03071 47.8512 9.03071C49.2939 9.03071 50.4962 9.5801 51.252 10.6446C51.6298 11.1596 51.9046 11.812 52.0764 12.5331C52.2481 13.2542 52.3168 14.044 52.3168 14.8681C52.3168 16.4476 52.0077 18.0614 51.2863 19.2289Z" fill="#D8D8D8">
	</path>
	<path d="M15.8015 33.4789C15.5267 33.1356 13.9465 31.8307 11.4733 31.8307C10.3053 31.8307 9.06868 32.0711 7.96945 32.6548C6.87021 33.2386 6.01143 34.1313 5.39311 35.0928C4.12212 37.05 3.84731 39.2133 3.88166 41.1705C3.95036 42.1663 4.05342 43.1621 4.36258 44.1578C4.67174 45.1536 5.15265 46.1494 5.83968 47.0765C6.5267 47.9693 7.52288 48.6904 8.55342 49.1711C9.06868 49.4115 9.65265 49.5488 10.2023 49.6518C10.7519 49.7205 11.3015 49.7548 11.8511 49.7548C13.7061 49.7548 15.2175 48.7934 15.8359 48.244L15.9389 49.4801H19.1679V26.7145H15.8015V33.4789ZM14.9084 45.188C14.187 46.3211 13.0878 46.9392 11.7137 46.9735C10.3053 47.0422 9.17174 46.4928 8.41601 45.4283C7.66029 44.3639 7.35113 42.75 7.35113 41.1362C7.31678 39.5223 7.62594 37.9085 8.34731 36.7753C9.06868 35.6078 10.1679 34.9898 11.4733 34.9898C12.916 34.9898 14.1183 35.5392 14.874 36.6036C15.2519 37.1187 15.5267 37.7711 15.6985 38.4922C15.8702 39.2133 15.9389 40.003 15.9389 40.8271C15.9046 42.441 15.6298 44.0548 14.9084 45.188Z" fill="#D8D8D8">
	</path>
	<path d="M60.1489 23.4867H63.481V12.3614V9.68311H60.1489V23.4867Z" fill="#D8D8D8">
	</path>
	<path d="M63.481 6.42114V9.68319H65.1298H68.4275V6.42114H65.1298H63.481Z" fill="#D8D8D8">
	</path>
	<path d="M78.2862 5.8717C74.4046 5.8717 71.4847 8.51568 71.4504 12.0181H74.8168C74.8511 10.3699 76.2939 9.13375 78.2862 9.13375C80.4504 9.13375 82.1679 10.5759 82.1679 12.7392V13.1169C79.832 13.3229 75.5725 13.7006 74.2672 13.9753C72.9275 14.25 71.8626 14.9711 71.1756 16.0356C70.4542 17.203 70.2481 18.6795 70.6603 20.1904C70.9694 21.3235 71.7939 22.3193 72.9962 22.9717C73.9236 23.4868 75.0229 23.7271 76.1565 23.7271C76.9809 23.7271 77.874 23.5898 78.6985 23.3151C80.1069 22.8344 81.2748 22.1819 82.2366 21.5639L82.374 23.4524H85.6374V12.8422C85.603 8.75604 82.5801 5.8717 78.2862 5.8717ZM77.7366 20.5338C76.5343 20.9458 75.2977 20.9115 74.4046 20.3964C73.2366 19.7097 73.3053 18.2675 73.7175 17.6494C73.958 17.2717 74.3359 17.0313 74.8855 16.9283C75.916 16.7223 79.6603 16.3789 82.2023 16.1386V18.3018C81.4809 18.8512 79.9351 19.7783 77.7366 20.5338Z" fill="#D8D8D8">
	</path>
	<path d="M72.6183 31.8994C68.7366 31.8994 65.8167 34.5434 65.7824 38.0458H69.1488C69.1832 36.3976 70.6259 35.1615 72.6183 35.1615C74.7824 35.1615 76.5 36.6036 76.5 38.7669V39.1446C74.1641 39.3506 69.9045 39.7283 68.5992 40.003C67.2595 40.2777 66.1946 40.9988 65.5076 42.0633C64.7862 43.2307 64.5801 44.7072 64.9923 46.2181C65.3015 47.3512 66.1259 48.347 67.3282 48.9994C68.2557 49.5145 69.3549 49.7548 70.4885 49.7548C71.3129 49.7548 72.2061 49.6175 73.0305 49.3428C74.4389 48.8621 75.6068 48.2097 76.5687 47.5916L76.7061 49.4801H79.9694V38.8699C79.9694 34.7494 76.9465 31.8994 72.6183 31.8994ZM72.103 46.5271C70.9007 46.9392 69.6641 46.9048 68.7709 46.3898C67.603 45.703 67.6717 44.2609 68.0839 43.6428C68.3244 43.2651 68.7022 43.0247 69.2519 42.9217C70.2824 42.7157 74.0267 42.3723 76.5687 42.1319V44.2952C75.8473 44.8446 74.2671 45.7717 72.103 46.5271Z" fill="#D8D8D8">
	</path>
	<path d="M63.0344 46.1494H59.084V49.4801H63.0344V46.1494Z" fill="#D8D8D8">
	</path>
	<path d="M63.0341 35.9511V32.7578H59.0838V27.0234H55.7173V32.7578H53.5532V35.9511H55.7173V46.1493H59.0838V35.9511H63.0341Z" fill="#D8D8D8">
	</path>
</svg>
