<svg id="_1" data-name="1" xmlns="http://www.w3.org/2000/svg" viewBox="0 0 309.7 81.1"><defs><style>.cls-1{fill:#D8D8D8;}.cls-1,.cls-2,.cls-3,.cls-4,.cls-5,.cls-6{fill-rule:evenodd;}.cls-2{fill:#fff;}.cls-3{fill:#fbfaf9;}.cls-4{fill:#f4eeed;}.cls-5{fill:#D8D8D8;}.cls-6{fill:#D8D8D8;}</style></defs><title>лого</title><polygon class="cls-1" points="0 11.4 16.9 11.4 16.9 3.3 21.1 3.3 21.1 11.4 31.5 11.4 31.5 7.8 31.5 6.2 33.1 6.2 37.3 6.2 38.9 6.2 38.9 7.8 38.9 11.4 55.8 11.4 59.2 6.9 59.7 6.2 60.5 6.2 65.7 6.2 68.9 6.2 66.9 8.8 65 11.4 70.5 11.4 70.5 0 74.7 0 74.7 11.4 83.9 11.4 83.9 15.5 74.7 15.5 74.7 58 83.9 58 83.9 62.2 74.7 62.2 74.7 81.1 70.5 81.1 70.5 62.2 65 62.2 67.7 66.7 69.2 69.2 66.3 69.2 61.5 69.2 60.6 69.2 60.1 68.4 56.4 62.2 38.9 62.2 38.9 67.6 38.9 69.2 37.3 69.2 33.1 69.2 31.5 69.2 31.5 67.6 31.5 62.2 21.1 62.2 21.1 73.8 16.9 73.8 16.9 62.2 11.1 62.2 11.1 58 16.9 58 16.9 15.5 0 15.5 0 11.4"/><path class="cls-2" d="M60.2,91.3v-13a21.6,21.6,0,0,1,0-34.8V31.5h4.1V41a21.7,21.7,0,0,1,16.3-.4l6.9-9.1h5.2L84.5,42.5A21.7,21.7,0,0,1,91.1,49l-3.5,2.3A17.6,17.6,0,0,0,82,45.8L73.1,57.4,83.5,74.8a17.6,17.6,0,0,0,4.1-4.4l3.5,2.3a21.7,21.7,0,0,1-5.5,5.7l7.7,12.9H88.6L82.1,80.5a21.7,21.7,0,0,1-17.8.2V91.3H60.2Zm0-18.5V48.9a17.5,17.5,0,0,0,0,23.8h0Zm4.1-27.1V62.1l13.7-18a17.5,17.5,0,0,0-13.7,1.6h0ZM80,76.9L70.4,61l-6.1,8V76A17.5,17.5,0,0,0,80,76.9Z" transform="translate(-27.1 -22.8)"/><path class="cls-2" d="M325.3,65.4L321,57.9h4.6l5.2,7.6-5.2,7.4H321l4.3-7.4h0Zm5.9,0L327,72.8h4.6l5.2-7.4-5.2-7.6H327l4.3,7.6h0ZM309,66.8l3.6-10.1h6.2V73.9h-4.8v-8l-3,8h-4.4L304,66v7.9h-4.8V56.7h6.2L309,66.8h0Zm-29.5-1.7a9.3,9.3,0,0,1,1.1-4.4,7.7,7.7,0,0,1,3.2-3.3,9.4,9.4,0,0,1,4.6-1.1,8.6,8.6,0,0,1,6.4,2.5,8.8,8.8,0,0,1,2.5,6.4,8.9,8.9,0,0,1-2.5,6.5,8.5,8.5,0,0,1-6.3,2.6,9.9,9.9,0,0,1-4.5-1.1,7.4,7.4,0,0,1-3.3-3.2,10.4,10.4,0,0,1-1.1-5h0Zm-12.3-5.1a1.9,1.9,0,0,0,1-.5,16.7,16.7,0,0,0,1.5-3.3c0.6-1.5,1.6-3.9,3-4.8a9.6,9.6,0,0,1,4.8-1h1.2v4.5h-1.2a3.9,3.9,0,0,0-1.7.3,2,2,0,0,0-.8.8,19.8,19.8,0,0,0-1.1,2.8,10.8,10.8,0,0,1-.9,2,4.1,4.1,0,0,1-1,1,5.3,5.3,0,0,1,1.7,1.5A23.7,23.7,0,0,1,276,67l3.4,6.9h-6.5l-2.8-6.1-0.2-.4-0.6-1.1a7.1,7.1,0,0,0-1.3-1.9l-0.8-.3v9.7h-5.6V50.5h5.6v9.4h0Zm-21.6-1.1a6.5,6.5,0,0,1,1.4-1.2,7.8,7.8,0,0,1,9.6,1.7,8.9,8.9,0,0,1,2.3,6.1,8.7,8.7,0,0,1-2.5,6.2,8.5,8.5,0,0,1-6.5,2.6,8.8,8.8,0,0,1-4.8-1.3,7.4,7.4,0,0,1-3-3.6c-0.8-2-.9-5.1-0.9-7.3s0.4-6.4,2.3-8.7,5.1-2.7,7.9-2.7h2.2a0.7,0.7,0,0,0,.7-0.3l0.2-.3h3.8v0.6a5.4,5.4,0,0,1-1.1,3.3c-1,1.1-3.4,1.2-4.7,1.2h-1.4a9.8,9.8,0,0,0-3.1.4,3.5,3.5,0,0,0-1.8,1.5,5.1,5.1,0,0,0-.6,1.9h0Zm-17.3,6.6,5.7-8.8h5.1V73.9h-5.2v-9l-5.8,9h-5V56.7h5.2v8.8h0Zm-13.1-1,5.4,1.7v0.5a10.4,10.4,0,0,1-3.5,5.7A11,11,0,0,1,203,71.1a12.2,12.2,0,0,1-3-8.7c0-3.3.7-6.6,3-9a10.4,10.4,0,0,1,8-3.2,9.9,9.9,0,0,1,7,2.6,9.4,9.4,0,0,1,2.4,4.4l0.2,0.6L215,59V58.4a4,4,0,0,0-4.1-3.3,4.5,4.5,0,0,0-3.6,1.6c-1.2,1.4-1.4,3.7-1.4,5.4s0.2,4.2,1.4,5.6a4.4,4.4,0,0,0,3.5,1.6,3.9,3.9,0,0,0,2.7-1,6.3,6.3,0,0,0,1.7-3.3V64.4h0Zm-21.1.8,4.2,7.6h-4.6l-5.2-7.6,5.2-7.4h4.6l-4.3,7.4h0Zm-6,0,4.3-7.4h-4.6l-5.2,7.4,5.2,7.6h4.6l-4.3-7.6h0Zm96.8,0a4.9,4.9,0,0,0,1,3.3,3.2,3.2,0,0,0,4.8,0,5,5,0,0,0,1-3.3,4.9,4.9,0,0,0-1-3.3,3.2,3.2,0,0,0-4.8,0,4.9,4.9,0,0,0-1,3.3h0Zm-38,.1a4.7,4.7,0,0,0,1,3.1,2.9,2.9,0,0,0,2.3,1.1,2.9,2.9,0,0,0,2.4-1.1,5.3,5.3,0,0,0,0-6.1,3,3,0,0,0-4.6,0A4.6,4.6,0,0,0,247,65.4Z" transform="translate(-27.1 -22.8)"/><path class="cls-3" d="M325.8,65.4l-4-7.1h3.7l4.9,7.1-4.9,7h-3.7l4-7h0Zm5.9,0-4,7h3.7l4.9-7-4.9-7.1h-3.7l4,7.1h0ZM309,68l3.9-11h5.5V73.5h-3.9v-10l-3.7,10H307l-3.5-9.9v9.9h-3.9V57.1h5.5L309,68h0Zm-29.1-3a8.9,8.9,0,0,1,1.1-4.2,7.3,7.3,0,0,1,3-3.1,9,9,0,0,1,4.4-1.1,8.2,8.2,0,0,1,6.1,2.4,8.3,8.3,0,0,1,2.4,6.1,8.5,8.5,0,0,1-2.4,6.2,8.1,8.1,0,0,1-6,2.4,9.5,9.5,0,0,1-4.3-1,7,7,0,0,1-3.1-3,10,10,0,0,1-1.1-4.8h0Zm-13.1-4.6a2.9,2.9,0,0,0,1.8-.7,16.5,16.5,0,0,0,1.6-3.4c0.5-1.4,1.5-3.7,2.9-4.6a9.3,9.3,0,0,1,4.6-.9h0.8v3.6h-0.8a4.2,4.2,0,0,0-1.9.3,2.4,2.4,0,0,0-1,1,20.2,20.2,0,0,0-1.2,2.8,10.4,10.4,0,0,1-.9,2,4.4,4.4,0,0,1-1.5,1.3,4.8,4.8,0,0,1,2.3,1.7,23.3,23.3,0,0,1,2.2,3.7l3.1,6.3h-5.6l-2.7-5.8-0.3-.5-0.6-1.1a7.2,7.2,0,0,0-1.4-2,2.7,2.7,0,0,0-1.5-.4v9.7h-4.8V51h4.8v9.5h0Zm-21.7-.1a6.5,6.5,0,0,1,2.2-2.2,7.4,7.4,0,0,1,9.1,1.6,8.5,8.5,0,0,1,2.2,5.8,8.3,8.3,0,0,1-2.4,5.9,8.1,8.1,0,0,1-6.1,2.5,8.4,8.4,0,0,1-4.6-1.2,7,7,0,0,1-2.8-3.4c-0.8-2-.8-5-0.8-7.1s0.3-6.2,2.2-8.4,4.9-2.6,7.5-2.6h2.2a1.1,1.1,0,0,0,1.1-.5H258a5,5,0,0,1-1,3c-0.9,1-3.2,1-4.4,1h-1.4a10.2,10.2,0,0,0-3.3.4,3.9,3.9,0,0,0-2,1.7,7.7,7.7,0,0,0-.8,3.5h0Zm-17.2,6.6,6.3-9.8h4.4V73.5h-4.4v-10l-6.4,10h-4.3V57.1h4.4v9.8h0ZM215.5,65l4.6,1.5h0a10,10,0,0,1-3.4,5.5,10.6,10.6,0,0,1-13.4-1.3,11.8,11.8,0,0,1-2.9-8.4c0-3.2.7-6.3,2.9-8.7a10,10,0,0,1,7.6-3.1,9.4,9.4,0,0,1,6.7,2.5,9,9,0,0,1,2.3,4.2h0l-4.7,1.1h0a4.5,4.5,0,0,0-4.6-3.6,4.9,4.9,0,0,0-3.9,1.7c-1.3,1.5-1.5,3.8-1.5,5.7s0.2,4.4,1.5,5.9a4.8,4.8,0,0,0,3.8,1.7,4.4,4.4,0,0,0,3-1.1,6.6,6.6,0,0,0,1.8-3.5h0Zm-21.9.3,4,7.1H194l-4.9-7.2,4.9-7h3.7l-4,7h0Zm-6,0,4-7H188l-4.9,7,4.9,7.2h3.7l-4-7.1h0Zm96.9,0a5.3,5.3,0,0,0,1.1,3.6,3.6,3.6,0,0,0,5.4,0,5.4,5.4,0,0,0,1.1-3.6,5.3,5.3,0,0,0-1.1-3.5,3.6,3.6,0,0,0-5.4,0,5.3,5.3,0,0,0-1.1,3.6h0Zm-38,.1a5.1,5.1,0,0,0,1.1,3.4,3.3,3.3,0,0,0,2.6,1.2,3.4,3.4,0,0,0,2.7-1.3,5.7,5.7,0,0,0,0-6.7,3.4,3.4,0,0,0-5.3,0A5,5,0,0,0,246.5,65.4Z" transform="translate(-27.1 -22.8)"/><path class="cls-4" d="M325.8,65.4l-4-7.1h3.5l4.8,7.1-4.9,6.9h-3.5l4-6.9h0Zm5.9,0-4,6.9h3.5l4.8-6.9-4.8-7.1h-3.5l4,7.1h0ZM309,68.2l4-11.1h5.4V73.4h-3.8V63.2l-3.8,10.2h-3.8l-3.6-10.2V73.4h-3.8V57.1h5.4L309,68.2h0Zm-29-3.2a8.8,8.8,0,0,1,1.1-4.1,7.3,7.3,0,0,1,3-3.1,8.9,8.9,0,0,1,4.3-1.1,8.1,8.1,0,0,1,6,2.4,8.3,8.3,0,0,1,2.4,6.1,8.4,8.4,0,0,1-2.4,6.1,8,8,0,0,1-6,2.4,9.4,9.4,0,0,1-4.3-1,6.9,6.9,0,0,1-3.1-3,9.9,9.9,0,0,1-1.1-4.7h0Zm-13.2-4.6a3,3,0,0,0,1.9-.7,16.5,16.5,0,0,0,1.6-3.4c0.5-1.4,1.5-3.7,2.8-4.5a9.2,9.2,0,0,1,4.5-.9h0.7v3.5h-0.7a4.3,4.3,0,0,0-2,.3,2.5,2.5,0,0,0-1,1,20.2,20.2,0,0,0-1.2,2.9,10.3,10.3,0,0,1-.9,1.9,4.5,4.5,0,0,1-1.6,1.4,4.7,4.7,0,0,1,2.3,1.7,23.2,23.2,0,0,1,2.2,3.7l3.1,6.2h-5.5l-2.7-5.8-0.3-.5-0.6-1a7.2,7.2,0,0,0-1.4-2,2.8,2.8,0,0,0-1.6-.4v9.7h-4.6V51h4.6v9.5h0Zm-21.7,0a6.5,6.5,0,0,1,2.3-2.4,7.4,7.4,0,0,1,9,1.6,8.4,8.4,0,0,1,2.2,5.8,8.2,8.2,0,0,1-2.3,5.9,8.1,8.1,0,0,1-6.1,2.4,8.4,8.4,0,0,1-4.5-1.2,6.9,6.9,0,0,1-2.8-3.4c-0.8-2-.8-5-0.8-7.1s0.3-6.2,2.1-8.4,4.9-2.6,7.5-2.6h2.2a1.1,1.1,0,0,0,1.1-.6h3a5,5,0,0,1-1,3c-0.8,1-3.2,1-4.4,1h-1.4a10.2,10.2,0,0,0-3.3.4,3.9,3.9,0,0,0-2,1.7,8.1,8.1,0,0,0-.8,3.8h0Zm-17.2,6.6,6.4-9.9h4.3V73.4h-4.3V63.3l-6.5,10.1h-4.2V57.1h4.3v9.9h0Zm-12.3-2,4.5,1.4h0a9.9,9.9,0,0,1-3.4,5.5,10.6,10.6,0,0,1-13.3-1.3,11.8,11.8,0,0,1-2.9-8.3c0-3.1.7-6.3,2.9-8.7a9.9,9.9,0,0,1,7.6-3.1,9.4,9.4,0,0,1,6.7,2.4,9,9,0,0,1,2.3,4.1h0l-4.6,1.1h0a4.5,4.5,0,0,0-4.6-3.7,5,5,0,0,0-4,1.7c-1.3,1.5-1.5,3.8-1.5,5.7s0.2,4.4,1.5,6a4.8,4.8,0,0,0,3.9,1.8,4.4,4.4,0,0,0,3-1.1,6.7,6.7,0,0,0,1.8-3.5h0Zm-22,.2,4,7.1H194l-4.8-7.1,4.8-6.9h3.5l-4,6.9h0Zm-6,0,4-6.9h-3.5l-4.8,6.9,4.8,7.1h3.5l-4-7.1h0Zm96.9,0a5.3,5.3,0,0,0,1.1,3.6,3.6,3.6,0,0,0,5.5,0,5.4,5.4,0,0,0,1.1-3.7,5.3,5.3,0,0,0-1.1-3.6,3.6,3.6,0,0,0-5.5,0,5.4,5.4,0,0,0-1.1,3.6h0Zm-38,.1a5.1,5.1,0,0,0,1.1,3.4,3.3,3.3,0,0,0,2.6,1.3,3.4,3.4,0,0,0,2.8-1.3,5.8,5.8,0,0,0,0-6.8,3.4,3.4,0,0,0-5.3,0A5,5,0,0,0,246.5,65.4Z" transform="translate(-27.1 -22.8)"/><path class="cls-5" d="M325.9,65.4l-4-7h3.4l4.8,7-4.8,6.9h-3.4l4-6.9h0Zm5.9,0-4,6.9h3.4l4.8-6.9-4.8-7h-3.4l4,7h0ZM309,68.3l4-11.1h5.3V73.4h-3.7V63l-3.9,10.4h-3.7L303.4,63V73.4h-3.7V57.2h5.4l4,11.1h0Zm-29-3.3a8.8,8.8,0,0,1,1.1-4.1,7.2,7.2,0,0,1,3-3,8.9,8.9,0,0,1,4.3-1.1,8.1,8.1,0,0,1,6,2.4,8.3,8.3,0,0,1,2.3,6,8.4,8.4,0,0,1-2.4,6.1,8,8,0,0,1-6,2.4,9.4,9.4,0,0,1-4.2-1,6.9,6.9,0,0,1-3.1-3,9.9,9.9,0,0,1-1.1-4.7h0Zm-13.3-4.5a3.1,3.1,0,0,0,2-.8,16.4,16.4,0,0,0,1.6-3.4c0.5-1.4,1.5-3.7,2.8-4.5a9.2,9.2,0,0,1,4.5-.9h0.7v3.4h-0.7a4.3,4.3,0,0,0-2,.3,2.5,2.5,0,0,0-1,1,20.2,20.2,0,0,0-1.2,2.9,10.3,10.3,0,0,1-.9,1.9,4.6,4.6,0,0,1-1.6,1.4,4.7,4.7,0,0,1,2.4,1.7,23.2,23.2,0,0,1,2.1,3.6l3.1,6.2h-5.4l-2.7-5.8-0.3-.5-0.6-1a7.2,7.2,0,0,0-1.4-2,2.9,2.9,0,0,0-1.6-.4v9.7h-4.6V51.1h4.6v9.5h0Zm-21.7.1a6.5,6.5,0,0,1,2.4-2.5,7.3,7.3,0,0,1,9,1.6,8.4,8.4,0,0,1,2.2,5.7,8.2,8.2,0,0,1-2.3,5.8,8,8,0,0,1-6.1,2.4,8.3,8.3,0,0,1-4.5-1.2,6.9,6.9,0,0,1-2.8-3.4c-0.8-1.9-.8-5-0.8-7.1s0.3-6.2,2.1-8.4,4.9-2.5,7.5-2.5h2.2a1.2,1.2,0,0,0,1.2-.6h3a4.9,4.9,0,0,1-1,2.9c-0.8.9-3.2,1-4.3,1h-1.4a10.3,10.3,0,0,0-3.3.4,4,4,0,0,0-2.1,1.7,8.3,8.3,0,0,0-.8,4h0Zm-17.2,6.6,6.5-10h4.3V73.4h-4.2V63.2l-6.6,10.2h-4.2V57.2h4.2v10h0Zm-12.2-2.1,4.4,1.4h0a9.9,9.9,0,0,1-3.3,5.4,10.5,10.5,0,0,1-13.2-1.3,11.7,11.7,0,0,1-2.9-8.3c0-3.1.7-6.3,2.9-8.7a9.9,9.9,0,0,1,7.6-3.1,9.4,9.4,0,0,1,6.7,2.4,8.9,8.9,0,0,1,2.3,4.1h0l-4.5,1.1h0a4.5,4.5,0,0,0-4.6-3.7,5,5,0,0,0-4,1.8c-1.3,1.5-1.5,3.9-1.5,5.7s0.2,4.5,1.5,6a4.9,4.9,0,0,0,3.9,1.8,4.5,4.5,0,0,0,3.1-1.1,6.7,6.7,0,0,0,1.8-3.6h0Zm-22.1.2,4,7.1H194l-4.8-7.1,4.8-6.9h3.5l-4,6.9h0Zm-6,0,4-6.9h-3.5l-4.8,6.9,4.8,7.1h3.5l-4-7.1h0Zm96.9,0a5.4,5.4,0,0,0,1.1,3.6,3.7,3.7,0,0,0,5.5,0,5.5,5.5,0,0,0,1.1-3.7,5.4,5.4,0,0,0-1.1-3.6,3.7,3.7,0,0,0-5.5,0,5.4,5.4,0,0,0-1.1,3.6h0Zm-38,.1a5.2,5.2,0,0,0,1.1,3.5,3.4,3.4,0,0,0,2.7,1.3,3.4,3.4,0,0,0,2.8-1.3,5.8,5.8,0,0,0,0-6.8,3.5,3.5,0,0,0-5.4,0A5.1,5.1,0,0,0,246.4,65.4Z" transform="translate(-27.1 -22.8)"/><path class="cls-6" d="M322,72.3l4-6.9-4-7h3.4l4.8,7-4.8,6.9H322Zm5.9,0h3.4l4.8-6.9-4.8-7h-3.4l4,7-4,6.9h0ZM309,68.4l4-11.2h5.3V73.4h-3.6V62.8l-3.9,10.5h-3.7l-3.7-10.5V73.4h-3.7V57.2H305l4,11.2h0Zm-29-3.3a8.8,8.8,0,0,1,1-4.1,7.2,7.2,0,0,1,3-3,8.9,8.9,0,0,1,4.3-1.1,8.1,8.1,0,0,1,6,2.4,8.2,8.2,0,0,1,2.3,6,8.3,8.3,0,0,1-2.4,6.1,8,8,0,0,1-6,2.4,9.4,9.4,0,0,1-4.2-1,6.9,6.9,0,0,1-3.1-2.9,9.9,9.9,0,0,1-1-4.7h0Zm-9.1-3.2a4.7,4.7,0,0,1,2.4,1.7,23.2,23.2,0,0,1,2.1,3.6l3,6.1h-5.3l-2.7-5.8-0.3-.5-0.6-1a7.2,7.2,0,0,0-1.4-2,3,3,0,0,0-1.7-.4v9.8h-4.5V51.1h4.5v9.5a3.1,3.1,0,0,0,2-.8,16.5,16.5,0,0,0,1.6-3.5c0.5-1.4,1.5-3.7,2.8-4.5a9.2,9.2,0,0,1,4.5-.9h0.7v3.3h-0.6a4.3,4.3,0,0,0-2,.3,2.6,2.6,0,0,0-1,1,20.2,20.2,0,0,0-1.2,2.9,10.3,10.3,0,0,1-.9,1.9,4.6,4.6,0,0,1-1.7,1.4h0ZM245,60.7a6.5,6.5,0,0,1,2.4-2.6,7.3,7.3,0,0,1,9,1.6,8.3,8.3,0,0,1,2.2,5.7,8.2,8.2,0,0,1-2.3,5.8,8,8,0,0,1-6.1,2.4,8.3,8.3,0,0,1-4.5-1.2,6.9,6.9,0,0,1-2.8-3.4c-0.8-1.9-.8-5-0.8-7.1s0.3-6.2,2.1-8.3,4.9-2.5,7.5-2.5h2.2a1.2,1.2,0,0,0,1.2-.6h2.9a4.9,4.9,0,0,1-1,2.9c-0.8.9-3.2,1-4.3,1h-1.4a10.3,10.3,0,0,0-3.3.4,4,4,0,0,0-2.1,1.7,8.5,8.5,0,0,0-.8,4.1h0Zm-17.2,6.5,6.5-10.1h4.2V73.4h-4.1V63.1l-6.6,10.3h-4.1V57.2h4.1V67.3h0Zm-12.2-2.1,4.4,1.4a9.9,9.9,0,0,1-3.3,5.4,10.5,10.5,0,0,1-13.2-1.3,11.7,11.7,0,0,1-2.9-8.3c0-3.1.7-6.3,2.9-8.6a9.9,9.9,0,0,1,7.6-3.1,9.3,9.3,0,0,1,6.6,2.4,8.8,8.8,0,0,1,2.3,4.1l-4.5,1.1a4.6,4.6,0,0,0-4.7-3.7,5,5,0,0,0-4,1.8c-1.3,1.5-1.5,3.9-1.5,5.7s0.2,4.5,1.5,6a4.9,4.9,0,0,0,3.9,1.8,4.5,4.5,0,0,0,3.1-1.1,6.9,6.9,0,0,0,1.9-3.6h0Zm-18.2-6.7-3.9,6.9,3.9,7H194l-4.8-7,4.8-6.9h3.4Zm-5.9,0h-3.4l-4.8,6.9,4.8,7h3.4l-4-7,4-6.9h0Zm93,6.9a5.4,5.4,0,0,0,1.1,3.7,3.7,3.7,0,0,0,5.6,0,5.5,5.5,0,0,0,1.1-3.7,5.4,5.4,0,0,0-1.1-3.6,3.7,3.7,0,0,0-5.6,0,5.4,5.4,0,0,0-1.1,3.7h0Zm-38,.1a5.2,5.2,0,0,0,1.1,3.5,3.4,3.4,0,0,0,2.7,1.3,3.5,3.5,0,0,0,2.8-1.3,5.9,5.9,0,0,0,0-6.8,3.5,3.5,0,0,0-5.4,0A5.1,5.1,0,0,0,246.4,65.4Z" transform="translate(-27.1 -22.8)"/><path class="cls-1" d="M322,72.3l3.9-6.9-3.9-7h3.4l4.8,7-4.8,6.9H322Zm5.9,0h3.4l4.8-6.9-4.8-7h-3.4l3.9,7-3.9,6.9h0Zm-28.2-15H305l4,11.2,4-11.2h5.3V73.3h-3.6V62.7l-3.9,10.6h-3.6l-3.7-10.6V73.3h-3.6V57.2h0Zm-15.3,8.1a5.3,5.3,0,0,0,1.1,3.7,3.7,3.7,0,0,0,5.6,0,5.4,5.4,0,0,0,1.1-3.7,5.3,5.3,0,0,0-1.1-3.6,3.7,3.7,0,0,0-5.6,0,5.3,5.3,0,0,0-1.1,3.7h0Zm-4.4-.2a8.8,8.8,0,0,1,1-4.1,7.2,7.2,0,0,1,3-3,8.8,8.8,0,0,1,4.3-1.1,8,8,0,0,1,6,2.4,8.2,8.2,0,0,1,2.3,6,8.3,8.3,0,0,1-2.4,6.1,8,8,0,0,1-5.9,2.4,9.3,9.3,0,0,1-4.2-1,6.9,6.9,0,0,1-3.1-2.9,9.8,9.8,0,0,1-1-4.7h0Zm-17.9-14h4.5v9.5a3,3,0,0,0,2-.8,15.7,15.7,0,0,0,1.6-3.5q1.4-3.6,2.8-4.5a8.7,8.7,0,0,1,4.5-.9h0.7v3.3h-0.6a4.5,4.5,0,0,0-2,.3,2.6,2.6,0,0,0-1,1,22,22,0,0,0-1.2,2.9,10.5,10.5,0,0,1-.9,1.9,4.6,4.6,0,0,1-1.7,1.5,4.6,4.6,0,0,1,2.5,1.7,23.5,23.5,0,0,1,2.1,3.6l3,6.1h-5.3l-2.7-5.7-0.3-.5-0.6-1a6.7,6.7,0,0,0-1.4-2.1,2.9,2.9,0,0,0-1.7-.4v9.7h-4.5V51.1h0ZM246.4,65.4a5.2,5.2,0,0,0,1.1,3.5,3.4,3.4,0,0,0,2.7,1.3,3.5,3.5,0,0,0,2.8-1.3,5.9,5.9,0,0,0,0-6.9,3.5,3.5,0,0,0-5.5,0,5.1,5.1,0,0,0-1.1,3.5h0ZM255,50.6h2.9a4.8,4.8,0,0,1-1,2.9q-0.9,1-4.3,1h-1.4a10.1,10.1,0,0,0-3.3.5,4,4,0,0,0-2.1,1.7,8.2,8.2,0,0,0-.8,4.2,6.5,6.5,0,0,1,2.4-2.7,7.3,7.3,0,0,1,8.9,1.6,8.3,8.3,0,0,1,2.2,5.7,8.1,8.1,0,0,1-2.3,5.8,8,8,0,0,1-6,2.4,8.2,8.2,0,0,1-4.5-1.2,6.8,6.8,0,0,1-2.8-3.4,21.1,21.1,0,0,1-.8-7.1q0-5.8,2.1-8.3t7.4-2.5h2.2a1.2,1.2,0,0,0,1.2-.6h0Zm-31.3,6.6h4.1V67.3l6.6-10.1h4.2V73.3h-4.1V63l-6.6,10.3h-4.1V57.2h0Zm-8.1,7.9,4.3,1.4a9.8,9.8,0,0,1-3.3,5.4,10.5,10.5,0,0,1-13.2-1.3q-2.9-3-2.9-8.3t2.9-8.6a9.8,9.8,0,0,1,7.5-3.1,9.2,9.2,0,0,1,6.6,2.4,8.7,8.7,0,0,1,2.3,4.1l-4.4,1.1a4.6,4.6,0,0,0-4.7-3.7,5.1,5.1,0,0,0-4,1.8q-1.5,1.8-1.5,5.7t1.5,6a4.9,4.9,0,0,0,3.9,1.8,4.5,4.5,0,0,0,3.1-1.1,6.6,6.6,0,0,0,1.9-3.6h0Zm-18.2-6.7-3.9,6.8,3.9,7H194l-4.8-7,4.8-6.8h3.4Zm-5.9,0h-3.4l-4.8,6.8,4.8,7h3.4l-3.9-7Z" transform="translate(-27.1 -22.8)"/><path class="cls-1" d="M152.7,73.6h-4.9l-1.9-5.1H137l-1.9,5.1h-4.8L139,51.3h4.8l8.9,22.3h0Zm-8.2-8.8-3.1-8.2-3,8.2h6.1Zm9.3-2.2a14.2,14.2,0,0,1,1-5.7,10.4,10.4,0,0,1,2.1-3.1,8.8,8.8,0,0,1,2.9-2,12.3,12.3,0,0,1,4.8-.9,10.5,10.5,0,0,1,7.9,3.1q3,3.1,3,8.5t-2.9,8.5a10.4,10.4,0,0,1-7.8,3.1,10.5,10.5,0,0,1-7.9-3q-2.9-3-2.9-8.4h0Zm4.6-.2a8.4,8.4,0,0,0,1.8,5.7,6,6,0,0,0,8.9,0q1.7-1.9,1.7-5.8t-1.7-5.7a6.2,6.2,0,0,0-9,0Q158.4,58.6,158.4,62.4Z" transform="translate(-27.1 -22.8)"/></svg>