<svg xmlns="http://www.w3.org/2000/svg" xml:space="preserve" width="52px" height="50px" version="1.1" style="shape-rendering:geometricPrecision; text-rendering:geometricPrecision; image-rendering:optimizeQuality; fill-rule:evenodd; clip-rule:evenodd" viewBox="0 0 52.11 50.5" xmlns:xlink="http://www.w3.org/1999/xlink">
 <defs>
     <style type="text/css">
         
         .fil0 {fill:#D8D8D8;fill-rule:nonzero}
         .fil1 {fill:#D8D8D8;fill-rule:nonzero}
         
     </style>
 </defs>
    <g>
        <polygon class="fil0" points="1.01,48.77 1.01,49.13 0.38,49.13 0.38,50.45 0,50.45 0,48.77 "></polygon>
        <path class="fil0" d="M2.04 49.34c0,-0.06 -0.02,-0.11 -0.07,-0.15 -0.04,-0.05 -0.09,-0.07 -0.16,-0.07l-0.19 0 0 0.44 0.19 0c0.06,0 0.12,-0.02 0.16,-0.06 0.05,-0.04 0.07,-0.09 0.07,-0.16zm0.2 -0.41c0.11,0.11 0.17,0.25 0.17,0.41 0,0.17 -0.06,0.3 -0.17,0.41 -0.12,0.11 -0.26,0.17 -0.43,0.17l-0.19 0 0 0.53 -0.38 0 0 -1.68 0.57 0c0.17,0 0.31,0.05 0.43,0.16z"></path>
        <path class="fil0" d="M2.76 50.46l0 -0.35c0.04,0.01 0.09,0.01 0.16,0.01 0.1,0 0.17,-0.03 0.22,-0.09l-0.65 -1.26 0.43 0 0.44 0.84 0.41 -0.84 0.43 0 -0.62 1.25c-0.09,0.16 -0.17,0.28 -0.27,0.35 -0.09,0.07 -0.2,0.11 -0.34,0.11 -0.07,0 -0.14,-0.01 -0.21,-0.02z"></path>
        <polygon class="fil0" points="5.4,50.45 5.4,49.13 4.74,49.13 4.74,50.45 4.36,50.45 4.36,48.77 5.78,48.77 5.78,50.45 "></polygon>
        <polygon class="fil0" points="7.18,50.45 7.18,49.13 6.52,49.13 6.52,50.45 6.14,50.45 6.14,48.77 7.56,48.77 7.56,50.45 "></polygon>
        <path class="fil0" d="M8.63 49.26l-0.22 0.51 0.43 0 -0.21 -0.51zm-0.9 1.19l0.73 -1.68 0.34 0 0.72 1.68 -0.4 0 -0.14 -0.35 -0.7 0 -0.15 0.35 -0.4 0z"></path>
        <polygon class="fil0" points="11.22,50.45 10.53,49.7 10.53,50.45 10.16,50.45 10.16,48.77 10.53,48.77 10.53,49.47 11.1,48.77 11.57,48.77 10.9,49.58 11.7,50.45 "></polygon>
        <path class="fil0" d="M12.11 49.97c0.09,0.09 0.21,0.14 0.34,0.14 0.14,0 0.26,-0.05 0.35,-0.14 0.1,-0.1 0.14,-0.22 0.14,-0.36 0,-0.14 -0.04,-0.26 -0.14,-0.36 -0.09,-0.1 -0.21,-0.15 -0.35,-0.15 -0.13,0 -0.25,0.05 -0.34,0.15 -0.1,0.1 -0.15,0.22 -0.15,0.36 0,0.14 0.05,0.26 0.15,0.36zm0.96 0.25c-0.17,0.17 -0.38,0.26 -0.62,0.26 -0.24,0 -0.44,-0.09 -0.61,-0.26 -0.17,-0.17 -0.26,-0.37 -0.26,-0.61 0,-0.24 0.09,-0.45 0.26,-0.62 0.17,-0.17 0.37,-0.25 0.61,-0.25 0.24,0 0.45,0.08 0.62,0.25 0.17,0.18 0.26,0.38 0.26,0.62 0,0.24 -0.09,0.44 -0.26,0.61z"></path>
        <polygon class="fil0" points="13.59,48.77 13.93,48.77 14.45,49.49 14.98,48.77 15.33,48.77 15.33,50.45 14.95,50.45 14.95,49.41 14.46,50.09 13.96,49.41 13.96,50.45 13.59,50.45 "></polygon>
        <polygon class="fil0" points="16.72,50.45 16.72,49.13 16.06,49.13 16.06,50.45 15.68,50.45 15.68,48.77 17.1,48.77 17.1,50.45 "></polygon>
        <path class="fil0" d="M18.17 49.26l-0.21 0.51 0.42 0 -0.21 -0.51zm-0.89 1.19l0.72 -1.68 0.34 0 0.72 1.68 -0.39 0 -0.15 -0.35 -0.7 0 -0.15 0.35 -0.39 0z"></path>
        <polygon class="fil0" points="19.24,50.45 19.24,48.77 19.62,48.77 19.62,49.43 20.29,49.43 20.29,48.77 20.67,48.77 20.67,50.45 20.29,50.45 20.29,49.78 19.62,49.78 19.62,50.45 "></polygon>
        <polygon class="fil0" points="21.35,50.45 21.03,50.45 21.03,48.77 21.41,48.77 21.41,49.81 22.22,48.77 22.55,48.77 22.55,50.45 22.17,50.45 22.17,49.41 "></polygon>
        <path class="fil0" d="M23.99 48.56c-0.08,0.08 -0.18,0.12 -0.3,0.12 -0.12,0 -0.22,-0.04 -0.3,-0.12 -0.08,-0.08 -0.12,-0.18 -0.12,-0.31l0.23 0c0,0.07 0.01,0.12 0.05,0.16 0.03,0.04 0.08,0.06 0.14,0.06 0.06,0 0.11,-0.02 0.14,-0.06 0.04,-0.04 0.05,-0.09 0.05,-0.16l0.23 0c0,0.13 -0.04,0.23 -0.12,0.31zm-0.76 1.89l-0.32 0 0 -1.68 0.37 0 0 1.04 0.82 -1.04 0.33 0 0 1.68 -0.38 0 0 -1.04 -0.82 1.04z"></path>
        <path class="fil0" d="M28.85 48.77l-0.79 0 0 1.68 0.45 0 0 -0.37 0.34 0c0.36,0 0.65,-0.29 0.65,-0.66 0,-0.36 -0.29,-0.65 -0.65,-0.65zm-0.02 0.88l-0.32 0 0 -0.46 0.32 0c0.13,0 0.23,0.11 0.23,0.23 0,0.13 -0.1,0.23 -0.23,0.23zm3.08 -0.51l-0.4 1.31 0.48 0 0.37 -1.26 0.32 0 0 1.26 0.46 0 0 -1.68 -0.73 0c-0.23,0 -0.44,0.15 -0.5,0.37zm2.27 0.05l0.56 0 0 -0.42 -0.56 0c-0.47,0 -0.84,0.37 -0.84,0.84 0,0.46 0.37,0.84 0.84,0.84l0.56 0 0 -0.43 -0.56 0c-0.23,0 -0.39,-0.18 -0.39,-0.41 0,-0.23 0.16,-0.42 0.39,-0.42zm-7.2 -0.47c-0.41,0 -0.75,0.28 -0.84,0.67l-0.19 0 0 -0.62 -0.45 0 0 1.68 0.45 0 0 -0.62 0.19 0c0.09,0.38 0.43,0.67 0.84,0.67 0.5,0 0.88,-0.4 0.88,-0.89 0,-0.49 -0.38,-0.89 -0.88,-0.89zm0 1.32c-0.22,0 -0.41,-0.19 -0.41,-0.43 0,-0.24 0.19,-0.44 0.41,-0.44 0.23,0 0.42,0.2 0.42,0.44 0,0.24 -0.19,0.43 -0.42,0.43zm3.53 -1.32c-0.49,0 -0.87,0.4 -0.87,0.89 0,0.46 0.41,0.84 0.87,0.84l0.84 0 0 -0.84c0,-0.49 -0.35,-0.89 -0.84,-0.89zm0.38 1.3l-0.38 0c-0.22,0 -0.41,-0.18 -0.41,-0.41 0,-0.24 0.19,-0.44 0.41,-0.44 0.23,0 0.38,0.2 0.38,0.44l0 0.41z"></path>
        <polygon class="fil1" points="2.66,40.11 2.66,44.34 1.33,44.34 1.33,40.11 0,40.11 0,38.93 3.99,38.93 3.99,40.11 "></polygon>
        <path class="fil1" d="M6.85 40.12l-0.75 0 0 1.1 0.75 0c0.34,0 0.58,-0.24 0.58,-0.55 0,-0.31 -0.24,-0.55 -0.58,-0.55zm0.06 2.29l-0.81 0 0 1.93 -1.33 0 0 -5.41 2.14 0c1.08,0 1.85,0.73 1.85,1.74 0,1.01 -0.77,1.74 -1.85,1.74z"></path>
        <path class="fil1" d="M11.13 40.98l-0.49 1.45 0.95 0 -0.46 -1.45zm1.06 3.36l-0.25 -0.8 -1.67 0 -0.27 0.8 -1.39 0 1.97 -5.41 1.03 0 1.97 5.41 -1.39 0z"></path>
        <polygon class="fil1" points="16.87,44.34 16.87,42.2 15.46,42.2 15.46,44.34 14.13,44.34 14.13,38.93 15.46,38.93 15.46,41.01 16.87,41.01 16.87,38.93 18.2,38.93 18.2,44.34 "></polygon>
        <path class="fil1" d="M21.18 44.39c-0.63,0 -1.11,-0.22 -1.51,-0.61 -0.57,-0.57 -0.54,-1.33 -0.54,-2.15 0,-0.81 -0.03,-1.57 0.54,-2.14 0.4,-0.4 0.88,-0.61 1.51,-0.61 1.03,0 1.86,0.57 2.05,1.77l-1.35 0c-0.08,-0.31 -0.25,-0.58 -0.69,-0.58 -0.25,0 -0.43,0.1 -0.53,0.23 -0.12,0.16 -0.2,0.35 -0.2,1.33 0,0.99 0.08,1.18 0.2,1.34 0.1,0.13 0.28,0.23 0.53,0.23 0.44,0 0.61,-0.27 0.69,-0.58l1.35 0c-0.19,1.2 -1.02,1.77 -2.05,1.77z"></path>
        <path class="fil1" d="M25.74 44.39c-0.63,0 -1.11,-0.22 -1.51,-0.61 -0.57,-0.57 -0.55,-1.33 -0.55,-2.15 0,-0.81 -0.02,-1.57 0.55,-2.14 0.4,-0.4 0.88,-0.61 1.51,-0.61 1.02,0 1.85,0.57 2.05,1.77l-1.35 0c-0.09,-0.31 -0.26,-0.58 -0.7,-0.58 -0.24,0 -0.42,0.1 -0.52,0.23 -0.12,0.16 -0.21,0.35 -0.21,1.33 0,0.99 0.09,1.18 0.21,1.34 0.1,0.13 0.28,0.23 0.52,0.23 0.44,0 0.61,-0.27 0.7,-0.58l1.35 0c-0.2,1.2 -1.03,1.77 -2.05,1.77z"></path>
        <polygon class="fil1" points="28.49,44.34 28.49,38.93 32.17,38.93 32.17,40.11 29.82,40.11 29.82,41.02 31.83,41.02 31.83,42.2 29.82,42.2 29.82,43.16 32.17,43.16 32.17,44.34 "></polygon>
        <path class="fil1" d="M35.2 40.12l-0.75 0 0 1.1 0.75 0c0.33,0 0.58,-0.24 0.58,-0.55 0,-0.31 -0.25,-0.55 -0.58,-0.55zm0.06 2.29l-0.81 0 0 1.93 -1.33 0 0 -5.41 2.14 0c1.07,0 1.85,0.73 1.85,1.74 0,1.01 -0.77,1.74 -1.85,1.74z"></path>
        <path class="fil1" d="M40.11 42.2l-0.89 0 0 0.95 0.89 0c0.31,0 0.49,-0.18 0.49,-0.48 0,-0.3 -0.18,-0.47 -0.49,-0.47zm-0.06 -2.08l-0.83 0 0 0.88 0.83 0c0.3,0 0.48,-0.16 0.48,-0.44 0,-0.27 -0.18,-0.44 -0.48,-0.44zm0.19 4.22l-2.35 0 0 -5.41 2.24 0c1.06,0 1.73,0.59 1.73,1.52 0,0.48 -0.18,0.81 -0.6,1.12 0.48,0.3 0.67,0.63 0.67,1.18 0,0.97 -0.66,1.59 -1.69,1.59z"></path>
        <polygon class="fil1" points="45.75,44.34 45.75,41.39 44.02,44.34 42.85,44.34 42.85,38.93 44.18,38.93 44.18,41.88 45.92,38.93 47.08,38.93 47.08,44.34 "></polygon>
        <path class="fil1" d="M50.06 44.39c-0.63,0 -1.11,-0.22 -1.51,-0.61 -0.57,-0.57 -0.55,-1.33 -0.55,-2.15 0,-0.81 -0.02,-1.57 0.55,-2.14 0.4,-0.4 0.88,-0.61 1.51,-0.61 1.01,0 1.84,0.56 2.05,1.73l0 0.04 -1.35 0c-0.09,-0.31 -0.25,-0.58 -0.69,-0.58 -0.25,0 -0.43,0.1 -0.53,0.23 -0.12,0.16 -0.2,0.35 -0.2,1.33 0,0.99 0.08,1.18 0.2,1.34 0.1,0.13 0.28,0.23 0.53,0.23 0.44,0 0.6,-0.27 0.69,-0.58l1.35 0 0 0.04c-0.21,1.17 -1.04,1.73 -2.05,1.73z"></path>
        <path class="fil1" d="M26.06 8.13c4.46,0 8.18,3.17 9.04,7.37 -0.85,-4.21 -4.58,-7.39 -9.04,-7.39 -4.47,0 -8.2,3.17 -9.05,7.39 0.86,-4.21 4.59,-7.37 9.05,-7.37z"></path>
        <path class="fil1" d="M26.06 26.61c-5.11,0 -9.24,-4.14 -9.24,-9.24 0,-0.64 0.06,-1.27 0.19,-1.87 0.85,-4.22 4.58,-7.39 9.05,-7.39 4.46,0 8.19,3.18 9.04,7.39 0.13,0.61 0.19,1.23 0.19,1.87 0,5.1 -4.13,9.24 -9.23,9.24zm17.1 -12.26c-1.83,0.53 -3.8,-0.39 -4.54,-2.18 -0.75,-1.8 0,-3.84 1.67,-4.76 -0.58,-0.81 -1.22,-1.59 -1.95,-2.32 -0.73,-0.73 -1.51,-1.38 -2.33,-1.95 -0.91,1.67 -2.95,2.41 -4.75,1.67 -1.8,-0.75 -2.71,-2.72 -2.18,-4.54 -1,-0.18 -2.01,-0.27 -3.02,-0.27 -1.02,0 -2.03,0.09 -3.03,0.27 0.53,1.82 -0.38,3.79 -2.18,4.54 -1.79,0.74 -3.84,0 -4.75,-1.67 -0.82,0.57 -1.6,1.22 -2.33,1.95 -0.73,0.73 -1.37,1.51 -1.94,2.32 1.66,0.92 2.41,2.96 1.66,4.76 -0.74,1.79 -2.71,2.71 -4.54,2.18 -0.17,1 -0.26,2.01 -0.26,3.02 0,1.01 0.09,2.02 0.26,3.02 1.83,-0.53 3.8,0.39 4.54,2.18 0.75,1.8 0,3.84 -1.66,4.76 0.57,0.81 1.21,1.59 1.94,2.32 0.73,0.73 1.51,1.38 2.33,1.95 0.91,-1.66 2.96,-2.41 4.75,-1.67 1.8,0.75 2.71,2.72 2.18,4.54 1,0.18 2.01,0.27 3.03,0.27 1.01,0 2.02,-0.09 3.02,-0.27 -0.53,-1.82 0.38,-3.79 2.18,-4.54 1.8,-0.74 3.84,0.01 4.75,1.67 0.82,-0.57 1.6,-1.22 2.33,-1.95 0.73,-0.73 1.37,-1.51 1.95,-2.32 -1.67,-0.92 -2.42,-2.96 -1.67,-4.76 0.74,-1.79 2.71,-2.71 4.54,-2.18 0.17,-1 0.27,-2.01 0.27,-3.02 0,-1.01 -0.1,-2.02 -0.27,-3.02z"></path>
        <path class="fil1" d="M23.21 24.41c-1.35,-1.35 -1.5,-3.43 -0.47,-4.95 -0.17,1.43 0.29,2.92 1.39,4.02 1.1,1.1 2.59,1.57 4.03,1.4 -1.52,1.03 -3.61,0.87 -4.95,-0.47zm8.44 -2.87c0,-1.01 -0.26,-1.94 -0.72,-2.76l-4.87 -8.74 -4.81 8.62c-0.5,0.84 -0.79,1.83 -0.79,2.88 0,1.8 1.41,5.11 5.6,5.11 4.19,0 5.59,-3.31 5.59,-5.11z"></path>
    </g>
</svg>