<svg xmlns="http://www.w3.org/2000/svg" xmlns:xlink="http://www.w3.org/1999/xlink" viewBox="0 0 312 128.63"><defs><style>.cls-1{fill:none;}.cls-2{clip-path:url(#clip-path);}.cls-3{fill:#fff;}.cls-4{clip-path:url(#clip-path-2);}.cls-5{fill:url(#Безымянный_градиент_2);}.cls-6{clip-path:url(#clip-path-5);}.cls-7{fill:url(#Безымянный_градиент_3);}.cls-8{clip-path:url(#clip-path-6);}.cls-9{fill:url(#Безымянный_градиент_3-2);}</style><clipPath id="clip-path" transform="translate(0 0)"><rect class="cls-1" width="312" height="128.86"/></clipPath><clipPath id="clip-path-2" transform="translate(0 0)"><path class="cls-1" d="M273.5,124l-32-18.48a1.23,1.23,0,0,1-.61-1.07v-37a1.25,1.25,0,0,1,.61-1.07L273.5,48a1.23,1.23,0,0,1,1.23,0l32,18.48a1.27,1.27,0,0,1,.61,1.07v37a1.26,1.26,0,0,1-.61,1.07l-32,18.48a1.29,1.29,0,0,1-.62.17,1.22,1.22,0,0,1-.61-.17m-2.08-83.76a2.69,2.69,0,1,1,2.7,2.68,2.68,2.68,0,0,1-2.7-2.68m-4.64,0a7.31,7.31,0,0,0,2,5L239.15,62.43a5.83,5.83,0,0,0-2.94,5.07v37a5.88,5.88,0,0,0,2.94,5.09l32,18.49a6.09,6.09,0,0,0,1.32.56h3.22a5.81,5.81,0,0,0,1.31-.56l32.05-18.49a5.86,5.86,0,0,0,2.92-5.09v-37a5.81,5.81,0,0,0-2.92-5.07L279.43,45.3a7.32,7.32,0,1,0-12.65-5"/></clipPath><linearGradient id="Безымянный_градиент_2" x1="-23.64" y1="570.56" x2="-21.59" y2="570.56" gradientTransform="matrix(36.96, 0, 0, -36.96, 1110.01, 21170.46)" gradientUnits="userSpaceOnUse"><stop offset="0" stop-color="#D8D8D8"/><stop offset="1" stop-color="#D8D8D8"/></linearGradient><clipPath id="clip-path-5" transform="translate(0 0)"><path class="cls-1" d="M12,31.9A10.49,10.49,0,0,0,4.36,42v10.5L61.54,38a10.49,10.49,0,0,0,7.61-10.06V17.4Z"/></clipPath><linearGradient id="Безымянный_градиент_3" x1="-26.73" y1="574.34" x2="-24.68" y2="574.34" gradientTransform="matrix(31.6, 0, 0, -31.6, 848.17, 18183.19)" gradientUnits="userSpaceOnUse"><stop offset="0" stop-color="#D8D8D8"/><stop offset="0.65" stop-color="#D8D8D8"/><stop offset="1" stop-color="#D8D8D8"/></linearGradient><clipPath id="clip-path-6" transform="translate(0 0)"><path class="cls-1" d="M12,31.9A10.49,10.49,0,0,0,4.36,42v4.78H26.9l32.19-8.16V20Z"/></clipPath><linearGradient id="Безымянный_градиент_3-2" x1="-26.59" y1="576.68" x2="-24.54" y2="576.68" gradientTransform="matrix(27.35, 0, 0, -27.35, 730.43, 15807.17)" xlink:href="#Безымянный_градиент_3"/></defs><title>Ресурс 1</title><g id="Слой_2" data-name="Слой 2"><g id="Слой_1-2" data-name="Слой 1"><g class="cls-2"><path class="cls-3" d="M271.89,36.25a161.91,161.91,0,0,0-26-16.7,109.76,109.76,0,0,0-23.16-8.86c5.69-4.9,12.14-8,21.17-7.26,13.25,1.12,20.18,8.25,23.87,15.89a45.45,45.45,0,0,1,4.11,16.93m-56-23.58c-2,2.07-3.84,4.24-5.7,6.4l-.39.45c-8.87,10.27-17.7,20.24-34.36,20.24a59.09,59.09,0,0,1-30-7.92,121.44,121.44,0,0,0,16.45-6.27c2.21-1,4.37-2,6.5-3,11.8-5.57,22.72-10.72,37.32-10.72a63,63,0,0,1,10.14.85M137,30.47a89.72,89.72,0,0,1-30.68.27,26.24,26.24,0,0,1-11-4.06c-2.88-2-4.56-4.59-4.56-7.6a5.86,5.86,0,0,1,1.06-3.56,7.1,7.1,0,0,1,2.77-2.2,19.23,19.23,0,0,1,7.92-1.5c5.34,0,10.08,1.81,14.87,4.65a121.8,121.8,0,0,1,10.9,7.66c1.3,1,2.63,2,4,3q2.28,1.68,4.69,3.35m138.23,8a50,50,0,0,0-4.5-20.58c-4.12-8.5-12-16.51-26.58-17.74C233-.82,225.27,3.68,218.76,9.81a68.57,68.57,0,0,0-13-1.31c-15.4,0-27,5.51-38.85,11.09-2.1,1-4.21,2-6.34,3a110.3,110.3,0,0,1-19,6.92c-2.52-1.61-4.92-3.31-7.23-5-1.3-.95-2.58-1.92-3.85-2.88a128.35,128.35,0,0,0-11.33-8c-5.08-3-10.42-5.12-16.56-5.12a22.39,22.39,0,0,0-9.36,1.84,10.29,10.29,0,0,0-4,3.24,9.17,9.17,0,0,0-1.68,5.5c0,4.43,2.51,7.88,6,10.31A29.52,29.52,0,0,0,105.87,34c14,2.1,25.34,1.28,35.1-1a63.18,63.18,0,0,0,34.48,10c18.33,0,28.06-11.18,36.87-21.38l.07-.07c2.5-2.9,4.91-5.7,7.43-8.21a104,104,0,0,1,24.57,9.1A158.75,158.75,0,0,1,271.53,40.2a2.28,2.28,0,0,0,3.74-1.75" transform="translate(0 0)"/></g><g class="cls-4"><rect class="cls-5" x="236.21" y="32.95" width="75.79" height="95.69"/></g><g class="cls-2"><path class="cls-3" d="M259.68,94.12h10.17v12.55h-3.36V97h-3.63v5.27a6.43,6.43,0,0,1-.41,2.41,3.1,3.1,0,0,1-1.24,1.53,3.85,3.85,0,0,1-2.08.54,9.19,9.19,0,0,1-1.7-.15v-2.72a3.38,3.38,0,0,0,1,.11,1.12,1.12,0,0,0,1-.37,2.34,2.34,0,0,0,.28-1.3V94.12Z" transform="translate(0 0)"/></g><polygon class="cls-3" points="275.39 96.86 275.39 99.15 280.75 99.15 280.75 101.48 275.39 101.48 275.39 103.92 281.22 103.92 281.22 106.67 272.04 106.67 272.04 94.11 281.09 94.11 281.09 96.86 275.39 96.86"/><polygon class="cls-3" points="289.03 97.03 289.03 106.67 285.68 106.67 285.68 97.03 282.46 97.03 282.46 94.11 292.41 94.11 292.41 97.03 289.03 97.03"/><g class="cls-2"><path class="cls-3" d="M258.7,65.61a1.29,1.29,0,0,1,.93-.39h4.27a1.33,1.33,0,0,1,1.33,1.33V87.33a1.32,1.32,0,0,1-1.33,1.32H261a1.32,1.32,0,0,1-1.33-1.32V72.45l-2.38,2.38a1.33,1.33,0,0,1-1.88,0l-2-2a1.32,1.32,0,0,1,0-1.87Z" transform="translate(0 0)"/><path class="cls-3" d="M268.92,66.55a1.34,1.34,0,0,1,1.33-1.33H289.1a1.33,1.33,0,0,1,1.32,1.33v2.89a1.32,1.32,0,0,1-1.32,1.32H274.46v2.57h10.87a1.34,1.34,0,0,1,.93.38L292,79.45a1.3,1.3,0,0,1,.39.94v1.72a1.33,1.33,0,0,1-.44,1l-5.8,5.21a1.36,1.36,0,0,1-.89.33h-15a1.32,1.32,0,0,1-1.33-1.32V84.43a1.32,1.32,0,0,1,1.33-1.32h13.43l2.19-2-2.28-2.26H270.25a1.34,1.34,0,0,1-1.33-1.33Z" transform="translate(0 0)"/><path class="cls-3" d="M28.57,77.18l7.36-6.58a1.54,1.54,0,0,1,1-.38h14.5a1.53,1.53,0,0,1,1,.38l7.36,6.58a1.58,1.58,0,0,1,.53,1.19v4a1.56,1.56,0,0,1-.53,1.18l-7.36,6.58a1.49,1.49,0,0,1-1,.39H36.93a1.5,1.5,0,0,1-1-.39l-7.36-6.58a1.58,1.58,0,0,1-.52-1.18v-4a1.6,1.6,0,0,1,.52-1.19m-20,7.54h11V85a4.79,4.79,0,0,0,1.57,3.55L31.9,98.21a4.45,4.45,0,0,0,3,1.14H53.48a4.45,4.45,0,0,0,3-1.14l10.83-9.68A4.75,4.75,0,0,0,68.85,85V75.76a4.78,4.78,0,0,0-1.57-3.56L56.45,62.53a4.45,4.45,0,0,0-3-1.14H34.87a4.45,4.45,0,0,0-3,1.14L21.07,72.2a4.81,4.81,0,0,0-1.57,3.56v.12h-11V63A1.53,1.53,0,0,0,7,61.39H1.51A1.54,1.54,0,0,0,0,63V97.79a1.54,1.54,0,0,0,1.51,1.56H7a1.53,1.53,0,0,0,1.51-1.56Z" transform="translate(0 0)"/><path class="cls-3" d="M134.2,73.57l3.36-3a1.48,1.48,0,0,1,1-.38H167.2a1.53,1.53,0,0,0,1.51-1.56V63a1.54,1.54,0,0,0-1.51-1.57H136.5a4.45,4.45,0,0,0-2.95,1.14l-6.82,6.09a4.77,4.77,0,0,0-1.57,3.54V97.79a1.54,1.54,0,0,0,1.51,1.56h5.5a1.54,1.54,0,0,0,1.51-1.56v-23a1.6,1.6,0,0,1,.52-1.19" transform="translate(0 0)"/></g><g class="cls-6"><rect class="cls-7" x="4.36" y="17.4" width="64.79" height="35.06"/></g><g class="cls-8"><rect class="cls-9" x="4.36" y="19.95" width="54.72" height="26.79"/></g><g class="cls-2"><path class="cls-3" d="M182.57,79.53v-7.1c0-1.3.3-2.23,1.79-2.24h26.17A1.61,1.61,0,0,1,212,71.75v26a1.54,1.54,0,0,0,1.51,1.56h5.52a1.54,1.54,0,0,0,1.51-1.56V66.07A4.61,4.61,0,0,0,216,61.39H178.43A4.63,4.63,0,0,0,174,66V97.79a1.54,1.54,0,0,0,1.51,1.56h5.51a1.54,1.54,0,0,0,1.52-1.56V79.53Z" transform="translate(0 0)"/><path class="cls-3" d="M117.16,99.35a1.59,1.59,0,0,0,1.23-1.68V63.11c-.06-1.24-.77-1.59-2.06-1.59h-4.85c-1.57,0-1.57,1.53-1.57,2.14V75.82H83.77V62.94a1.53,1.53,0,0,0-1.51-1.55H76.77a1.53,1.53,0,0,0-1.51,1.55v34.7a1.53,1.53,0,0,0,1.51,1.55h5.49a1.53,1.53,0,0,0,1.51-1.55v-13h26.14v13c0,1.35.83,1.74,1.26,1.74" transform="translate(0 0)"/></g><polygon class="cls-3" points="82.81 116.25 76.35 116.25 76.35 111.74 74.31 111.74 74.31 123.14 76.35 123.14 76.35 118.11 82.81 118.11 82.81 123.14 84.85 123.14 84.85 111.74 82.81 111.74 82.81 116.25"/><polygon class="cls-3" points="185.84 113.59 189.96 113.59 189.96 123.14 192 123.14 192 113.59 196.13 113.59 196.13 111.74 185.84 111.74 185.84 113.59"/><g class="cls-2"><path class="cls-3" d="M208.48,115.17v-3.43H206.6v3.61c0,.84-.44,1.11-1.25,1.11H201.2c-1,0-1.3-.5-1.28-1.62v-3.1h-2V116a2,2,0,0,0,1.81,2.26h5.74c.81,0,1.08.27,1.08,1.11l0,1.08c0,.83-.28,1.1-1.09,1.1H201c-.81,0-1.08-.27-1.08-1.1v-.54h-2v1.55c0,1.2,1.15,1.72,2.27,1.72h6.17c1.54,0,2.11-.73,2.11-2.31v-5.66" transform="translate(0 0)"/></g><polygon class="cls-3" points="0 111.74 0 123.14 2.04 123.14 2.04 113.59 8.5 113.59 8.5 123.14 10.55 123.14 10.55 111.74 0 111.74"/><g class="cls-2"><path class="cls-3" d="M21.14,116.27c0,1.06-.32,1.37-1.36,1.37H15V113.4h4.78c1,0,1.36.31,1.36,1.37Zm-.61-4.53H13v11.4h2v-3.91h5.53c1.87,0,2.65-.76,2.65-2.7v-2.09c0-1.94-.78-2.7-2.65-2.7" transform="translate(0 0)"/><path class="cls-3" d="M34,119.72c0,1.19-.43,1.63-1.6,1.63H28.63c-1.16,0-1.59-.41-1.59-1.63v-4.56c0-1.22.43-1.63,1.59-1.63h3.74c1.17,0,1.6.44,1.6,1.63Zm-.93-8H28c-2,0-3,.94-3,3v5.34c0,2.09.93,3,3,3H33c2.05,0,3-.94,3-3v-5.34c0-2.09-.93-3-3-3" transform="translate(0 0)"/></g><polygon class="cls-3" points="40.47 118.03 46.93 118.03 46.93 116.41 40.47 116.41 40.47 113.48 47.57 113.48 47.57 111.74 38.43 111.74 38.43 123.14 47.73 123.14 47.73 121.4 40.47 121.4 40.47 118.03"/><polygon class="cls-3" points="60.94 111.74 57.9 111.74 52.19 117.08 52.19 111.74 50.14 111.74 50.14 123.14 52.19 123.14 52.19 117.5 57.98 123.14 61 123.14 54.73 117.24 60.94 111.74"/><polygon class="cls-3" points="62.21 111.74 62.21 113.59 66.33 113.59 66.33 123.14 68.38 123.14 68.38 113.59 72.5 113.59 72.5 111.74 62.21 111.74"/><polygon class="cls-3" points="98.61 111.74 98.61 123.14 100.65 123.14 100.65 113.59 100.65 111.74 98.61 111.74"/><g class="cls-2"><path class="cls-3" d="M95.45,118.61c0-1.06-.32-1.37-1.36-1.37H89.31v4.24h4.78c1,0,1.36-.31,1.36-1.37Zm-.61,4.53H87.27v-11.4h2v3.91h5.53c1.87,0,2.65.76,2.65,2.7v2.09c0,1.94-.78,2.7-2.65,2.7" transform="translate(0 0)"/></g><polygon class="cls-3" points="143.87 116.25 137.41 116.25 137.41 111.74 135.37 111.74 135.37 123.14 137.41 123.14 137.41 118.11 143.87 118.11 143.87 123.14 145.91 123.14 145.91 111.74 143.87 111.74 143.87 116.25"/><polygon class="cls-3" points="161.16 111.74 161.16 113.59 165.28 113.59 165.28 123.14 167.32 123.14 167.32 113.59 171.44 113.59 171.44 111.74 161.16 111.74"/><g class="cls-2"><path class="cls-3" d="M157.3,119.92c-.05,1.2-.71,1.39-1.43,1.39h-3.71c-1.36,0-1.79-.12-1.79-1.89v-4.34c0-.94.29-1.5,1.3-1.55h4.13c1.37,0,1.46.79,1.5,1.63v.63h2v-1.26a2.53,2.53,0,0,0-2.47-2.79h-5.81a2.53,2.53,0,0,0-2.75,2.81v5.57c0,1.7.77,3,2.58,3h5.45c2.08,0,3-.93,3-3.21v-.71h-2Z" transform="translate(0 0)"/><path class="cls-3" d="M113.84,123.14h-2.37v-7.52a10.27,10.27,0,0,1,.18-2c-.28.53-.49.9-.61,1.13s-.26.47-.4.74l-4.19,7.67h-3.38v-11.4h2.36v7.49a9.56,9.56,0,0,1-.18,2c.34-.61.55-1,.65-1.19s.23-.42.37-.68l4.19-7.64h3.38Z" transform="translate(0 0)"/><path class="cls-3" d="M111.61,106.59,106,108a1,1,0,0,0-.74,1v1l5.57-1.39a1,1,0,0,0,.74-1Z" transform="translate(0 0)"/><path class="cls-3" d="M133,123.14h-2.36v-7.52a9.56,9.56,0,0,1,.18-2l-.62,1.13-.4.74-4.18,7.67h-3.39v-11.4h2.37v7.49a9.56,9.56,0,0,1-.18,2c.33-.61.54-1,.65-1.19s.22-.42.37-.68l4.18-7.64H133Z" transform="translate(0 0)"/><path class="cls-3" d="M184,123.14h-2.37v-7.52a9.56,9.56,0,0,1,.18-2c-.28.53-.49.9-.61,1.13l-.41.74-4.18,7.67h-3.39v-11.4h2.37v7.49a9.56,9.56,0,0,1-.18,2l.65-1.19.37-.68,4.18-7.64H184Z" transform="translate(0 0)"/></g><polygon class="cls-3" points="210.29 113.59 214.41 113.59 214.41 123.14 216.46 123.14 216.46 113.59 220.58 113.59 220.58 111.74 210.29 111.74 210.29 113.59"/></g></g></svg>