<svg width="311" height="55" xmlns="http://www.w3.org/2000/svg" xmlns:xlink="http://www.w3.org/1999/xlink">

 <g>
  <title>Layer 1</title>
  <g stroke="null" id="svg_1" data-name="Layer 1">
   <path stroke="null" id="svg_2" fill="#D8D8D8" d="m134.43632,14.89817l-7.97133,39.6828l1.84273,0l7.97133,-39.6828l-1.84273,0z"/>
   <clipPath stroke="null" transform="translate(-107.628 -80.682) translate(0.00000164795 7.93457e-7) scale(1.48371 1) translate(-0.00000164795 -7.93457e-7) translate(0.00000111069 7.93457e-7) scale(1 1.48657) translate(-0.00000111069 -7.93457e-7) translate(0.00000111069 5.33750e-7) scale(1 0.990692) translate(-0.00000111069 -5.33750e-7) translate(209.446 5.38765e-7) scale(0.999175 1) translate(-209.446 -5.38765e-7) translate(0.172959 5.38765e-7) scale(1 1) translate(-0.172959 -5.38765e-7)" id="a">
    <path stroke="null" id="svg_3" d="m-107.628,-80.682l425.197,0l0,198.425l-425.197,0l0,-198.425z"/>
   </clipPath>
   <g stroke="null" id="svg_4" fill="#D8D8D8" clip-path="url(#a)">
    <path stroke="null" id="svg_5" d="m93.82507,16.12643l-2.98128,0c-2.52023,0 -2.66848,2.02206 -2.66848,3.32838l0,11.95859c0,1.30631 0.14825,3.32838 2.66848,3.32838l2.9798,0c2.52023,0 2.67589,-2.02206 2.67589,-3.32838l0,-11.95859c0,-1.30631 -0.15418,-3.32838 -2.67441,-3.32838m-1.48842,16.31347c-0.44178,0 -0.80054,-0.32989 -0.80054,-0.73931c0,-0.00884 0.00445,-0.01767 0.00445,-0.02798l0,-12.53001l0.00445,-0.05302a0.77534,0.77024 0 0 1 0.78868,-0.65831c0.41065,0 0.75162,0.2916 0.79165,0.65831l0.00445,0.05302l0,12.53149l0.00296,0.02945c0,0.40795 -0.35876,0.73784 -0.7961,0.73784m-54.61038,-16.31494l6.8654,0l0,2.31219l-3.2674,0l0,16.30316l-3.598,0l0,-18.61535zm11.38105,11.62134l0.61968,-9.31209l0.2031,0l0.61671,9.31209l-1.4395,0zm-3.98196,6.99548l3.51794,0l0.33801,-4.94838l1.69745,0l0.33208,4.94838l3.52387,0l-1.87979,-18.61535l-5.65272,0l-1.87683,18.61535zm14.56099,-6.51832l0,3.50363c0,0.47864 0.3558,0.61413 0.56335,0.61413c0.33356,0 0.56483,-0.29455 0.56483,-0.61413l0,-4.32984c0,-0.5832 -0.09933,-1.21942 -1.44098,-1.21942l-1.45877,0l0,-2.04857l1.51065,0c1.02885,0 1.39057,-0.243 1.39057,-1.37848l0,-3.7054c0,-0.31664 -0.23275,-0.60824 -0.56631,-0.60824c-0.20755,0 -0.56335,0.13255 -0.56335,0.60824l0,3.03678l-3.60096,0l0,-2.63177c0,-1.30337 0.15714,-3.32543 2.67292,-3.32543l2.98425,0c2.52023,0 2.67292,2.02206 2.67292,3.32543l0,2.98081c0,2.01617 -1.36389,2.57434 -2.44462,2.52132l0,0.18851c2.41645,-0.05891 2.4461,1.85859 2.4461,2.52574l0,3.74516c0,1.30631 -0.15418,3.32838 -2.67441,3.32838l-2.98425,0c-2.51578,0 -2.67292,-2.02206 -2.67292,-3.32838l0,-3.18994l3.60096,0.00147zm7.09815,-12.0985l8.32861,0l0,18.61535l-3.35932,0l0,-16.30316l-1.61591,0l0,16.30316l-3.35339,0l0,-18.61535zm14.53134,10.2355l0,-7.9233l0.94583,0c0.38989,0 0.67305,0.34609 0.67305,0.92782l0,6.06766c0,0.58615 -0.28167,0.92782 -0.67305,0.92782l-0.94583,0zm-3.59651,8.37985l3.59651,0l0,-6.32833l2.05621,0c2.52023,0 2.92198,-2.01912 2.92198,-3.32838l0,-5.6332c0,-1.30337 -0.40027,-3.32838 -2.9205,-3.32838l-5.65421,0l0,18.61829zm30.26349,-18.61535l4.68169,0l0,18.61535l-3.59948,0l0,-11.67436l-0.13046,0l-1.85311,11.67436l-2.87603,0l-1.85163,-11.67436l-0.12601,0l0,11.67436l-3.60096,0l0,-18.61535l4.67576,0l2.3364,13.08229l2.34381,-13.08229zm-77.60375,-6.50064c-1.13559,-4.94838 -3.98937,-8.97042 -4.37927,-9.62578c-0.62116,0.9234 -2.89381,4.47269 -4.05015,8.41373a30.72899,30.52681 0 0 0 -1.01254,12.13238c0.43437,3.83647 2.06807,7.77603 2.06807,7.77603c0.86725,2.07066 2.1674,4.28418 3.0139,5.37253c1.23788,-1.60086 4.09463,-6.37693 4.98116,-12.61543c0.49367,-3.46829 0.51294,-6.50948 -0.62116,-11.45345m-4.37927,22.83767c-0.55742,-1.04564 -1.42912,-3.03383 -1.51065,-6.10742c-0.02224,-2.97787 1.17858,-5.5257 1.52993,-6.05882c0.31429,0.53313 1.34165,2.75254 1.46618,5.78784a13.10963,13.02338 0 0 1 -1.48545,6.37693m4.05164,-14.44309c-0.04299,1.88804 -0.26981,3.87918 -0.5589,5.0662c0.10526,-2.0471 -0.14528,-4.94102 -0.62116,-7.20167c-0.47291,-2.26065 -1.82049,-6.02937 -2.89381,-7.7775c-0.98734,1.66124 -2.21039,4.92482 -2.84934,7.75983c-0.6434,2.83207 -0.66267,6.25912 -0.66267,7.29003c-0.17049,-0.87333 -0.59744,-3.95723 -0.4744,-7.06323c0.10081,-2.56403 0.7027,-5.19433 1.03329,-6.40786c1.26011,-4.04265 2.68775,-6.6273 2.95311,-7.03966c0.26833,0.41237 2.06807,3.59347 2.99907,6.93657a31.20635,31.00103 0 0 1 1.0748,8.43729"/>
    <path stroke="null" id="svg_6" d="m19.02173,34.73883l0,5.85117l0.02668,-0.02356a5.28507,5.25029 0 0 1 7.45691,0a5.23318,5.19875 0 0 1 -0.02668,7.4049l0,0.00147a10.54938,10.47997 0 0 1 -7.45691,3.05592a10.54938,10.47997 0 0 1 -7.44802,-3.0515a10.46636,10.3975 0 0 1 0,-14.74206a10.52269,10.45346 0 0 1 7.44802,-3.0515l0,-13.95709c-10.35814,0 -18.76532,8.31211 -18.76532,18.55791c0,10.25464 8.40718,18.56675 18.76532,18.56675a18.73864,18.61535 0 0 0 13.69373,-5.87915l0,-12.73325l-13.69373,0zm57.39597,10.24581l-0.29205,0l0,3.76578l0.29205,0c0.42251,0 0.57521,-0.11929 0.57521,-0.59351l0,-2.59937c0,-0.47569 -0.1527,-0.57437 -0.57521,-0.57437m30.4325,2.51837l-0.42251,0l0,2.10895l0.42251,0c0.42547,0 0.55445,-0.10751 0.55445,-0.56848l0,-0.97348c0,-0.46244 -0.12898,-0.567 -0.55445,-0.567m-33.45084,-1.92192l0,2.58759c0,0.47422 0.1527,0.5832 0.57224,0.5832l0.30687,0l0,-3.76578l-0.30687,0c-0.41954,0 -0.57224,0.12076 -0.57224,0.59498m39.26664,-4.63911l-74.93972,0l0,12.41072l74.93972,0l0,-12.41072zm-66.80384,10.09853l-1.90055,0l0,-3.53751l-0.97548,0l0,3.53751l-1.90055,0l0,-8.08236l1.90055,0l0,3.11925l0.97548,0l0,-3.11925l1.90055,0l0,8.08236zm15.75439,-6.55514l-2.5988,0l0,1.58908l2.32602,0l0,1.53164l-2.3275,0l0,1.90572l2.60028,0l0,1.53459l-4.55865,0l0,-8.09561l4.55865,0l0,1.53459zm17.21909,3.673c0,1.64062 -0.83909,2.08244 -2.70999,2.08244l0,0.79969l-1.84718,0l0,-0.79969c-1.87683,0 -2.72778,-0.44182 -2.72778,-2.08244l0,-2.52574c0,-1.64946 0.81537,-2.06919 2.72778,-2.06919l0,-0.60529l1.84718,0l0,0.60382c1.89758,0 2.70999,0.4212 2.70999,2.07066l0,2.52574zm14.61584,-3.673l-1.4395,0l0,6.56103l-1.80863,0l0,-6.56103l-1.54179,0l0,-1.53459l4.78843,0l0.00148,1.53459zm15.85075,4.47122c0,1.76728 -0.81092,2.08392 -2.87603,2.08392l-1.89907,0l0,-8.08236l1.90055,0l0,3.11925l0.31725,0c1.86645,0 2.55729,0.43298 2.55729,2.0471l0,0.83209z"/>
   </g>
   <symbol stroke="null" id="b">
    <path stroke="null" id="svg_7" d="m0.423,0.571l-0.283,0l0,-0.571l-0.14,0l0,0.69l0.423,0l0,-0.119z"/>
   </symbol>
   <symbol stroke="null" id="c">
    <path stroke="null" id="svg_8" d="m0,0l0.24,0.69l0.134,0l0.24,-0.69l-0.149,0l-0.042,0.131l-0.231,0l-0.042,-0.131l-0.15,0m0.229,0.249l0.156,0l-0.078,0.243l-0.078,-0.243z"/>
   </symbol>
   <symbol stroke="null" id="d">
    <path stroke="null" id="svg_9" d="m0.185,0.426l0.075,0c0.04,0 0.068,0.008 0.085,0.023a0.079,0.079 0 0 1 0.025,0.061a0.077,0.077 0 0 1 -0.023,0.058c-0.015,0.015 -0.042,0.023 -0.08,0.023c-0.037,0 -0.065,-0.008 -0.083,-0.024a0.136,0.136 0 0 1 -0.04,-0.06l-0.123,0a0.201,0.201 0 0 0 0.081,0.147c0.023,0.017 0.048,0.03 0.077,0.04a0.333,0.333 0 0 0 0.183,0.002a0.232,0.232 0 0 0 0.076,-0.034a0.167,0.167 0 0 0 0.072,-0.139a0.159,0.159 0 0 0 -0.024,-0.09a0.201,0.201 0 0 0 -0.066,-0.061a0.182,0.182 0 0 0 0.081,-0.063a0.164,0.164 0 0 0 0.031,-0.102a0.196,0.196 0 0 0 -0.018,-0.085a0.172,0.172 0 0 0 -0.051,-0.065a0.238,0.238 0 0 0 -0.082,-0.042a0.369,0.369 0 0 0 -0.11,-0.015a0.304,0.304 0 0 0 -0.181,0.05a0.241,0.241 0 0 0 -0.09,0.159l0.134,0a0.159,0.159 0 0 1 0.048,-0.069a0.14,0.14 0 0 1 0.084,-0.022c0.084,0 0.126,0.032 0.126,0.095s-0.045,0.095 -0.134,0.095l-0.073,0l0,0.118z"/>
   </symbol>
   <symbol stroke="null" id="e">
    <path stroke="null" id="svg_10" d="m0.53,0.69l0,-0.69l-0.14,0l0,0.571l-0.25,0l0,-0.571l-0.14,0l0,0.69l0.53,0z"/>
   </symbol>
   <symbol stroke="null" id="f">
    <path stroke="null" id="svg_11" d="m0.14,0.243l0,-0.243l-0.14,0l0,0.69l0.247,0c0.08,0 0.142,-0.018 0.188,-0.055c0.047,-0.037 0.07,-0.092 0.07,-0.166c0,-0.073 -0.023,-0.13 -0.069,-0.168a0.282,0.282 0 0 0 -0.189,-0.058l-0.107,0m0.087,0.118c0.049,0 0.084,0.009 0.105,0.026c0.022,0.017 0.033,0.045 0.033,0.082c0,0.033 -0.011,0.059 -0.033,0.076c-0.021,0.017 -0.056,0.026 -0.105,0.026l-0.087,0l0,-0.21l0.087,0z"/>
   </symbol>
   <symbol stroke="null" id="g">
    <path stroke="null" id="svg_12" d="m0.529,0.305a0.421,0.421 0 0 0 -0.02,-0.137a0.259,0.259 0 0 0 -0.054,-0.095a0.217,0.217 0 0 0 -0.084,-0.055a0.308,0.308 0 0 0 -0.107,-0.018a0.308,0.308 0 0 0 -0.107,0.018a0.218,0.218 0 0 0 -0.083,0.055a0.27,0.27 0 0 0 -0.055,0.095a0.442,0.442 0 0 0 -0.019,0.137l0,0.098c0,0.053 0.006,0.099 0.019,0.137c0.013,0.039 0.032,0.07 0.055,0.095a0.204,0.204 0 0 0 0.083,0.055a0.308,0.308 0 0 0 0.107,0.018a0.308,0.308 0 0 0 0.107,-0.018a0.203,0.203 0 0 0 0.084,-0.055a0.248,0.248 0 0 0 0.054,-0.095a0.415,0.415 0 0 0 0.02,-0.137l0,-0.098m-0.389,0c0,-0.066 0.01,-0.114 0.031,-0.143a0.108,0.108 0 0 1 0.093,-0.044c0.04,0 0.072,0.015 0.093,0.044c0.021,0.03 0.032,0.077 0.032,0.143l0,0.098c0,0.066 -0.01,0.114 -0.032,0.143a0.108,0.108 0 0 1 -0.093,0.044a0.108,0.108 0 0 1 -0.093,-0.044c-0.02,-0.03 -0.031,-0.077 -0.031,-0.143l0,-0.098z"/>
   </symbol>
   <symbol stroke="null" id="h">
    <path stroke="null" id="svg_13" d="m0.325,0.314l0.192,0.376l0.133,0l0,-0.69l-0.134,0l0,0.428l-0.15,-0.304l-0.085,0l-0.148,0.301l0,-0.425l-0.133,0l0,0.69l0.131,0l0.194,-0.376z"/>
   </symbol>
   <symbol stroke="null" id="i">
    <path stroke="null" id="svg_14" d="m0.14,0.416l0.239,0l0,0.274l0.14,0l0,-0.69l-0.14,0l0,0.298l-0.239,0l0,-0.298l-0.14,0l0,0.69l0.14,0l0,-0.274z"/>
   </symbol>
   <symbol stroke="null" id="j">
    <path stroke="null" id="svg_15" d="m0.43,0.69l0,-0.119l-0.29,0l0,-0.155l0.26,0l0,-0.118l-0.26,0l0,-0.18l0.29,0l0,-0.118l-0.43,0l0,0.69l0.43,0z"/>
   </symbol>
   <symbol stroke="null" id="k">
    <path stroke="null" id="svg_16" d="m0.28,0.69l0.14,0l0,-0.05c0.04,0 0.077,-0.005 0.111,-0.014a0.207,0.207 0 0 0 0.147,-0.132a0.349,0.349 0 0 0 0.022,-0.133l0,-0.032a0.357,0.357 0 0 0 -0.022,-0.134a0.218,0.218 0 0 0 -0.059,-0.086a0.222,0.222 0 0 0 -0.088,-0.046a0.449,0.449 0 0 0 -0.111,-0.013l0,-0.05l-0.14,0l0,0.05a0.46,0.46 0 0 0 -0.112,0.013a0.231,0.231 0 0 0 -0.089,0.046a0.223,0.223 0 0 0 -0.058,0.086a0.372,0.372 0 0 0 -0.021,0.134l0,0.032c0,0.053 0.007,0.098 0.021,0.133a0.213,0.213 0 0 0 0.058,0.086a0.214,0.214 0 0 0 0.089,0.046a0.43,0.43 0 0 0 0.112,0.014l0,0.05m0.14,-0.522c0.023,0 0.044,0.002 0.061,0.007a0.097,0.097 0 0 1 0.043,0.026a0.112,0.112 0 0 1 0.027,0.049a0.29,0.29 0 0 1 0.009,0.079l0,0.032a0.29,0.29 0 0 1 -0.009,0.079a0.112,0.112 0 0 1 -0.027,0.049a0.09,0.09 0 0 1 -0.043,0.025a0.208,0.208 0 0 1 -0.061,0.008l0,-0.354m-0.14,0.354a0.208,0.208 0 0 1 -0.061,-0.008a0.096,0.096 0 0 1 -0.044,-0.025a0.118,0.118 0 0 1 -0.026,-0.049a0.29,0.29 0 0 1 -0.009,-0.079l0,-0.032a0.29,0.29 0 0 1 0.009,-0.079a0.118,0.118 0 0 1 0.026,-0.049a0.105,0.105 0 0 1 0.044,-0.026a0.236,0.236 0 0 1 0.061,-0.007l0,0.354z"/>
   </symbol>
   <symbol stroke="null" id="l">
    <path stroke="null" id="svg_17" d="m0.52,0.69l0,-0.119l-0.19,0l0,-0.571l-0.14,0l0,0.571l-0.19,0l0,0.119l0.52,0z"/>
   </symbol>
   <symbol stroke="null" id="m">
    <path stroke="null" id="svg_18" d="m0.14,0.69l0,-0.253l0.107,0a0.353,0.353 0 0 0 0.117,-0.017a0.214,0.214 0 0 0 0.08,-0.047a0.173,0.173 0 0 0 0.046,-0.07a0.24,0.24 0 0 0 0,-0.17a0.175,0.175 0 0 0 -0.046,-0.069a0.233,0.233 0 0 0 -0.08,-0.047a0.353,0.353 0 0 0 -0.117,-0.017l-0.247,0l0,0.69l0.14,0m0,-0.371l0,-0.201l0.099,0c0.046,0 0.078,0.009 0.097,0.027c0.02,0.018 0.029,0.042 0.029,0.073c0,0.031 -0.01,0.056 -0.029,0.074c-0.019,0.018 -0.051,0.027 -0.097,0.027l-0.099,0z"/>
   </symbol>
   <symbol stroke="null" id="n">
    <path stroke="null" id="svg_19" d="m0,0l0.16,0.289a0.2,0.2 0 0 0 -0.098,0.069a0.205,0.205 0 0 0 -0.034,0.123c0,0.07 0.023,0.122 0.07,0.157a0.317,0.317 0 0 0 0.191,0.052l0.244,0l0,-0.69l-0.14,0l0,0.271l-0.096,0l-0.143,-0.271l-0.154,0m0.393,0.389l0,0.182l-0.094,0a0.196,0.196 0 0 1 -0.098,-0.02c-0.022,-0.013 -0.033,-0.036 -0.033,-0.07a0.12,0.12 0 0 1 0.006,-0.04a0.064,0.064 0 0 1 0.021,-0.029a0.111,0.111 0 0 1 0.04,-0.017a0.282,0.282 0 0 1 0.064,-0.006l0.094,0z"/>
   </symbol>
   <symbol stroke="null" id="o">
    <path stroke="null" id="svg_20" d="m0.454,0.571l-0.314,0l0,-0.134l0.107,0a0.353,0.353 0 0 0 0.117,-0.017a0.214,0.214 0 0 0 0.08,-0.047a0.173,0.173 0 0 0 0.046,-0.07a0.24,0.24 0 0 0 0,-0.169a0.173,0.173 0 0 0 -0.046,-0.07a0.233,0.233 0 0 0 -0.08,-0.047a0.353,0.353 0 0 0 -0.117,-0.017l-0.247,0l0,0.69l0.454,0l0,-0.119m-0.314,-0.252l0,-0.201l0.099,0c0.046,0 0.078,0.009 0.097,0.027c0.02,0.018 0.029,0.043 0.029,0.074c0,0.03 -0.01,0.055 -0.029,0.073c-0.019,0.018 -0.051,0.027 -0.097,0.027l-0.099,0z"/>
   </symbol>
   <symbol stroke="null" id="p">
    <path stroke="null" id="svg_21" d="m0.383,0.485a0.144,0.144 0 0 1 -0.039,0.077a0.11,0.11 0 0 1 -0.08,0.028a0.108,0.108 0 0 1 -0.093,-0.044c-0.02,-0.03 -0.031,-0.077 -0.031,-0.143l0,-0.098c0,-0.065 0.01,-0.112 0.031,-0.142a0.107,0.107 0 0 1 0.093,-0.045c0.035,0 0.062,0.009 0.08,0.026a0.145,0.145 0 0 1 0.039,0.079l0.133,0c-0.011,-0.078 -0.038,-0.135 -0.081,-0.17a0.26,0.26 0 0 0 -0.171,-0.053a0.308,0.308 0 0 0 -0.107,0.018a0.218,0.218 0 0 0 -0.083,0.055a0.27,0.27 0 0 0 -0.055,0.095a0.442,0.442 0 0 0 -0.019,0.137l0,0.098c0,0.053 0.006,0.099 0.019,0.137c0.013,0.039 0.032,0.07 0.055,0.095a0.204,0.204 0 0 0 0.083,0.055a0.308,0.308 0 0 0 0.107,0.018a0.255,0.255 0 0 0 0.169,-0.055a0.254,0.254 0 0 0 0.084,-0.168l-0.134,0z"/>
   </symbol>
   <symbol stroke="null" id="q">
    <path stroke="null" id="svg_22" d="m0.14,0.383l0.214,0.307l0.172,0l-0.255,-0.336l0.272,-0.354l-0.177,0l-0.226,0.303l0,-0.303l-0.14,0l0,0.69l0.14,0l0,-0.307z"/>
   </symbol>
   <use stroke="null" x="-9.78605" y="7.33599" id="svg_23" fill="#D8D8D8" transform="matrix(16.3045 0 0 -16.1973 310.547 149.939)" xlink:href="#b"/>
   <use stroke="null" x="-9.78605" y="7.33599" id="svg_24" fill="#D8D8D8" transform="matrix(16.3045 0 0 -16.1973 316.954 149.939)" xlink:href="#c"/>
   <use stroke="null" x="-9.78605" y="7.33599" id="svg_25" fill="#D8D8D8" transform="matrix(16.3045 0 0 -16.1973 327.634 150.086)" xlink:href="#d"/>
   <use stroke="null" x="-9.78605" y="7.33599" id="svg_26" fill="#D8D8D8" transform="matrix(16.3045 0 0 -16.1973 338.346 149.939)" xlink:href="#e"/>
   <use stroke="null" x="-9.78605" y="7.33599" id="svg_27" fill="#D8D8D8" transform="matrix(16.3045 0 0 -16.1973 349.597 149.939)" xlink:href="#f"/>
   <use stroke="null" x="-9.78605" y="7.33599" id="svg_28" fill="#D8D8D8" transform="matrix(16.3045 0 0 -16.1973 359.264 150.086)" xlink:href="#g"/>
   <use stroke="null" x="-9.78605" y="7.33599" id="svg_29" fill="#D8D8D8" transform="matrix(16.3045 0 0 -16.1973 370.156 149.939)" xlink:href="#h"/>
   <use stroke="null" x="-9.78605" y="7.33599" id="svg_30" fill="#D8D8D8" transform="matrix(16.3045 0 0 -16.1973 383.364 149.939)" xlink:href="#i"/>
   <use stroke="null" x="-9.78605" y="7.33599" id="svg_31" fill="#D8D8D8" transform="matrix(16.3045 0 0 -16.1973 394.45 149.939)" xlink:href="#j"/>
   <use stroke="null" x="-9.78605" y="7.33599" id="svg_32" fill="#D8D8D8" transform="matrix(16.3045 0 0 -16.1973 403.026 149.939)" xlink:href="#k"/>
   <use stroke="null" x="-9.78605" y="7.33599" id="svg_33" fill="#D8D8D8" transform="matrix(16.3045 0 0 -16.1973 415.337 149.939)" xlink:href="#l"/>
   <use stroke="null" x="-9.78605" y="7.33599" id="svg_34" fill="#D8D8D8" transform="matrix(16.3045 0 0 -16.1973 425.446 149.939)" xlink:href="#m"/>
   <use stroke="null" x="-9.78605" y="7.33599" id="svg_35" fill="#D8D8D8" transform="matrix(16.3045 0 0 -16.1973 310.547 168.485)" xlink:href="#i"/>
   <use stroke="null" x="-9.78605" y="7.33599" id="svg_36" fill="#D8D8D8" transform="matrix(16.3045 0 0 -16.1973 321.292 168.631)" xlink:href="#g"/>
   <use stroke="null" x="-9.78605" y="7.33599" id="svg_37" fill="#D8D8D8" transform="matrix(16.3045 0 0 -16.1973 331.287 168.485)" xlink:href="#n"/>
   <use stroke="null" x="-9.78605" y="7.33599" id="svg_38" fill="#D8D8D8" transform="matrix(16.3045 0 0 -16.1973 342.585 168.485)" xlink:href="#o"/>
   <use stroke="null" x="-9.78605" y="7.33599" id="svg_39" fill="#D8D8D8" transform="matrix(16.3045 0 0 -16.1973 352.694 168.485)" xlink:href="#f"/>
   <use stroke="null" x="-9.78605" y="7.33599" id="svg_40" fill="#D8D8D8" transform="matrix(16.3045 0 0 -16.1973 362.705 168.485)" xlink:href="#m"/>
   <use stroke="null" x="-9.78605" y="7.33599" id="svg_41" fill="#D8D8D8" transform="matrix(16.3045 0 0 -16.1973 372.521 168.631)" xlink:href="#p"/>
   <use stroke="null" x="-9.78605" y="7.33599" id="svg_42" fill="#D8D8D8" transform="matrix(16.3045 0 0 -16.1973 382.94 168.485)" xlink:href="#q"/>
   <use stroke="null" x="-9.78605" y="7.33599" id="svg_43" fill="#D8D8D8" transform="matrix(16.3045 0 0 -16.1973 393.489 168.485)" xlink:href="#i"/>
   <use stroke="null" x="-9.78605" y="7.33599" id="svg_44" fill="#D8D8D8" transform="matrix(16.3045 0 0 -16.1973 404.575 168.485)" xlink:href="#j"/>
   <use stroke="null" x="-9.78605" y="7.33599" id="svg_45" fill="#D8D8D8" transform="matrix(16.3045 0 0 -16.1973 413.151 168.485)" xlink:href="#k"/>
   <use stroke="null" x="-9.78605" y="7.33599" id="svg_46" fill="#D8D8D8" transform="matrix(16.3045 0 0 -16.1973 425.462 168.485)" xlink:href="#l"/>
   <use stroke="null" x="-9.78605" y="7.33599" id="svg_47" fill="#D8D8D8" transform="matrix(16.3045 0 0 -16.1973 435.571 168.485)" xlink:href="#j"/>
   <use stroke="null" x="-9.78605" y="7.33599" id="svg_48" fill="#D8D8D8" transform="matrix(16.3045 0 0 -16.1973 444.555 168.485)" xlink:href="#b"/>
   <use stroke="null" x="-9.78605" y="7.33599" id="svg_49" fill="#D8D8D8" transform="matrix(16.3045 0 0 -16.1973 450.962 168.485)" xlink:href="#c"/>
   <use stroke="null" x="-9.78605" y="7.33599" id="svg_50" fill="#D8D8D8" transform="matrix(16.3045 0 0 -16.1973 461.639 168.631)" xlink:href="#d"/>
  </g>
 </g>
</svg>