<svg xmlns="http://www.w3.org/2000/svg" xmlns:xlink="http://www.w3.org/1999/xlink" width="186" height="30" viewBox="0 0 186 30">
  <defs>
    <rect id="rect-1" width="186" height="30" x="0" y="0"/>
    <path id="path-2" fill-rule="evenodd" d="M0 .28605405h39.85840292V29.9995892H0V.28605405z"/>
    <mask id="mask-3" maskContentUnits="userSpaceOnUse" maskUnits="userSpaceOnUse">
      <rect width="186" height="30" x="0" y="0" fill="black"/>
      <use fill="white" xlink:href="#path-2"/>
    </mask>
    <path id="path-6" fill-rule="evenodd" d="M.19506445.28605405h30.07243669v29.71312433H.19506445V.28605405z"/>
    <mask id="mask-7" maskContentUnits="userSpaceOnUse" maskUnits="userSpaceOnUse">
      <rect width="186" height="30" x="0" y="0" fill="black"/>
      <use fill="white" xlink:href="#path-6"/>
    </mask>
  </defs>
  <g>
    <g>
      <use fill="none" xlink:href="#path-2"/>
      <g mask="url(#mask-3)">
        <path fill="rgb(255,255,254)" fill-rule="evenodd" d="M21.80667249.64715676c-.1380786-.20951352-.41829694-.36151352-.66805677-.36151352h-2.42043668c-.2517904 0-.53606987.15610811-.67414847.37178379L.12427074 28.74456216c-.150262.23005406-.16650655.5854054-.03655022.82778379.12995634.24443243.43251092.42724324.70663756.42724324H6.1591179c.25382096 0 .53810044-.1561081.67414848-.37178378l13.095131-20.51794595 13.1012227 20.52821622c.14010918.2095135.42032752.3615135.66805678.3615135h5.36679039c.27209607 0 .57465065-.1828108.70663755-.42724323.12792577-.24032433.1137118-.59362163-.03248908-.82367568L21.8066725.64715676z"/>
      </g>
    </g>
    <path fill="rgb(255,255,254)" fill-rule="evenodd" d="M185.87888227 28.77108771L167.97377624 1.16394653c-.13584442-.20380976-.41767092-.35313572-.66502942-.35313572h-2.41681422c-.2473585 0-.529185.14932596-.66705694.35313572-.00202753.00403583-.00405506.00807167-.0060826.01008959l-17.89496838 27.59301576c-.15003712.22600685-.16422982.57510673-.03446799.8132211.12976184.2421502.43186362.41972702.70558.41972702h5.35673084c.25141356 0 .53729511-.1533618.67313954-.3632253L166.1003397 9.4777702l13.08161523 20.16909409c.13787195.20380975.41767092.35313571.66705695.35313571h5.35673085c.27371637 0 .57581815-.17757682.70557999-.41972702.12976184-.23609645.11556913-.5831784-.03244046-.80918527"/>
    <g transform="translate(50.3580786)">
      <use fill="none" xlink:href="#path-6"/>
      <g mask="url(#mask-7)">
        <path fill="rgb(255,255,254)" fill-rule="evenodd" d="M29.45473258 24.03215135H6.41325834L6.39062428 1.09658378c-.00205764-.41491892-.3971249-.81135135-.81276856-.81135135h-4.5700227c-.20164892 0-.43416245.0985946-.57613974.24032433-.1419773.14172973-.23662883.37383783-.23662883.57308108l.028807 28.08918919.00617292.0267027c0 .01027027-.00617293.02054054-.00617293.03081081 0 .41491892.33745328.75383784.75515459.75383784H29.51440419c.41564367 0 .75309695-.33891892.75309695-.75383784 0-.01027027-.00411529-.02054054-.00617293-.03081081.00205764-.00821622.00617293-.01848649.00617293-.01848649v-4.35048648c0-.41697298-.39506725-.8134054-.81276856-.8134054"/>
      </g>
    </g>
    <path fill="rgb(255,255,254)" fill-rule="evenodd" d="M133.21902592.81081081h-2.91077345c-.13745319 0-.30522693.0484267-.42246642.12106673l-.03638467.02219557-16.1366003 11.251135L97.53779474.93187754C97.42055525.8592375 97.2527815.81081081 97.1153283.81081081h-2.91077345c-.40831683 0-.79844132.38943132-.79844132.79904043v27.59110833c0 .40759133.3901245.79904043.79844132.79904043h4.4874424c.4103382 0 .8004627-.3914491.8004627-.79904043V9.70114453L113.25395 19.29568307c.25469267.17756455.65896676.17756455.91568081 0l13.76149002-9.59453854v19.49981504c0 .40759133.3901245.79904043.79844133.79904043h4.48946377c.4103382 0 .79844133-.3914491.79844133-.79904043V1.60985124c0-.4096091-.38810313-.79904043-.79844133-.79904043"/>
  </g>
</svg>
