<svg width="162" height="49" viewBox="0 0 162 49" fill="none" xmlns="http://www.w3.org/2000/svg">
<path d="M0 47.7929H23.441V24.2852C18.5487 33.6506 9.39723 39.7385 0 42.0742C0.0297852 43.8448 0 47.7929 0 47.7929Z" fill="#D8D8D8"/>
<path d="M7.49219 35.9718C12.9691 33.0384 17.5149 28.5981 20.6051 23.1631C20.6051 23.1631 20.6051 20.4506 20.6051 20.3904C15.6917 18.7459 11.2126 15.9915 7.50708 12.3359C7.50708 18.778 7.50708 35.9718 7.50708 35.9718" fill="#D8D8D8"/>
<path d="M8.75781 0.44671V9.41281C10.5511 11.2126 12.5308 12.8116 14.6627 14.1822V4.55303C12.5448 3.42039 10.5676 2.03687 8.77271 0.431641" fill="#D8D8D8"/>
<path d="M41.0171 8.65015C41.0217 8.90236 41.0042 9.15449 40.965 9.4036C40.9312 9.66354 40.8311 9.91007 40.6744 10.1188C40.5177 10.3276 40.3098 10.4914 40.0714 10.5941C39.3301 10.8849 38.5249 10.9682 37.7407 10.8352V7.16584C38.5886 6.98266 39.472 7.07495 40.265 7.42955C40.4978 7.53554 40.6935 7.71025 40.8263 7.93077C40.9592 8.15129 41.0231 8.4073 41.0097 8.66522M43.5265 8.00971C43.4571 7.41739 43.2156 6.85923 42.8325 6.40588C42.4494 5.95254 41.942 5.62441 41.3745 5.46304C40.7183 5.25295 40.037 5.13383 39.3491 5.10891C38.8721 5.08584 38.3941 5.10096 37.9194 5.15412C37.8551 5.14665 37.7902 5.14665 37.7258 5.15412V2.3362H39.9597L42.4617 2.69786L42.5585 0.4375H34.8888L35.1941 3.29309V9.67485L34.8516 12.6887H35.2909C35.2909 12.6887 36.3483 12.6887 36.8472 12.6887C37.1152 12.6887 37.3908 12.6887 37.6514 12.7263C38.0311 12.7263 38.396 12.7715 38.7907 12.7715H39.0587C40.2801 12.8055 41.476 12.4145 42.4468 11.664C42.9292 11.2041 43.2815 10.6222 43.4674 9.97851C43.6533 9.33478 43.666 8.65252 43.5042 8.00218" fill="#D8D8D8"/>
<path d="M51.2171 6.92503C50.815 6.92503 50.4129 6.92503 49.9959 6.92503C49.5789 6.92503 49.1842 6.92503 48.797 6.92503C49.0353 6.33734 49.2736 5.76471 49.5416 5.16948L50.0852 3.86601L51.2171 6.92503ZM51.9617 1.84675L51.5819 0.339844H49.0427L48.7449 1.67346L45.677 9.71281L44.3516 12.6211L47.0173 12.6588L47.479 10.4663L48.1194 8.7936H51.9393L52.8106 10.9183L53.2871 12.6287H56.7273L55.5657 10.6245L51.9617 1.84675Z" fill="#D8D8D8"/>
<path d="M78.1382 12.6591L81.638 12.6214L76.0681 6.23212L81.2805 0.400391H78.2127L77.2968 1.70387C77.2968 1.70387 74.9363 4.31835 73.6555 5.75745V2.60801L74.0129 0.445599H70.7961L70.9897 2.57787L71.027 10.1124L70.7812 12.6289H73.9906L73.6406 10.1425V7.12873L78.1084 12.6365L78.1382 12.6591Z" fill="#D8D8D8"/>
<path d="M67.8523 8.98836C67.8523 8.17463 67.897 2.66688 67.8523 2.66688L68.1278 0.466797H64.9482L65.2089 2.59154V5.16835H60.7411C60.663 3.76301 60.7757 2.35348 61.0762 0.979146L61.1953 0.481866H57.8892L57.9487 0.933937C57.9487 1.09216 58.1572 2.78744 58.187 3.57856C58.2242 5.22109 58.187 6.89376 58.187 8.52875V8.89041C58.187 9.59112 58.0232 11.7159 57.9562 12.1001L57.8594 12.5748H61.0538L60.9943 12.1378C60.9943 11.859 60.9273 11.5802 60.8975 11.2939C60.8156 10.661 60.7485 10.0583 60.7039 9.4555C60.6592 8.85274 60.7039 8.20477 60.7039 7.59447V7.165H65.2908V8.07668C65.3772 9.42145 65.2693 10.7718 64.9706 12.0851L64.8291 12.5899H68.1874L68.1055 12.1077C67.928 11.0879 67.8433 10.0539 67.8523 9.0185" fill="#D8D8D8"/>
<path d="M106.408 18.6795L106.505 18.1973H99.6839L99.736 18.6493C99.9892 20.7138 100.153 22.6577 100.265 24.579C100.347 25.9578 100.332 27.3969 100.309 28.7607C100.309 29.2504 100.309 29.7402 100.309 30.2676H87.5464C87.4794 26.5003 87.4347 22.5673 88.4102 18.7398L88.5368 18.2349H81.5L81.5596 18.687C81.5596 18.687 82.0883 23.3434 82.1553 25.5359C82.2819 29.7477 82.2372 34.0499 82.2148 38.2165V39.196C82.2148 41.0118 81.783 46.5347 81.5968 47.484L81.5 47.9587H88.291L88.2389 47.5142C88.1495 46.7607 88.0676 46.0751 87.9708 45.3593C87.7772 43.7846 87.5687 42.1722 87.4868 40.5673C87.4049 38.9624 87.4198 37.335 87.4421 35.7603C87.4421 35.1801 87.4421 34.6075 87.4421 34.0273H100.421C100.421 35.0144 100.421 36.0089 100.421 36.9809C100.473 40.605 100.518 44.0257 99.5871 47.4539L99.4456 47.9738H106.505L106.408 47.4991C105.951 44.842 105.727 42.1492 105.738 39.4522C105.738 37.2521 105.738 27.51 105.835 24.8051C105.871 22.7514 106.062 20.7035 106.408 18.6795Z" fill="#D8D8D8"/>
<path d="M64.7737 44.3502V33.8019C68.0352 33.8998 74.2454 34.3895 74.3199 34.3895H74.7443V29.575L64.7737 30.1476V21.8596C67.7522 21.8144 73.3146 21.7843 76.2187 22.7035L76.6803 22.8391L76.7473 22.3644C76.8611 21.112 76.881 19.8526 76.8069 18.5972V18.2129H58.7422L58.8092 18.68C59.3067 22.5613 59.4835 26.4777 59.3379 30.3887C59.3379 31.2778 59.3379 32.1593 59.3379 33.0635C59.3975 38.737 58.772 47.4318 58.772 47.5147V47.9517L76.6952 48.0346V47.6428C76.7399 46.6708 76.8218 44.079 76.859 43.7173L76.9335 43.1673L76.3899 43.2803C72.5847 44.0411 68.7117 44.3996 64.8333 44.3502" fill="#D8D8D8"/>
<path d="M49.474 31.2994L49.7197 31.1487C51.3504 30.0336 53.212 28.391 53.3163 25.5957C53.4726 21.7305 51.3877 19.003 47.5975 18.0612C44.1845 17.2964 40.6354 17.4234 37.2844 18.4304C35.5047 18.9352 35.2143 19.101 35.2664 19.5229C35.3632 20.2763 35.5196 21.1805 35.6685 22.0394C35.7802 22.6573 35.8919 23.2902 35.9738 23.9005C35.9907 24.0095 36.0373 24.1117 36.1083 24.1955C36.1793 24.2793 36.272 24.3415 36.3759 24.3751C36.4812 24.406 36.5928 24.4076 36.6989 24.3797C36.8051 24.3519 36.9018 24.2956 36.9791 24.2169L37.2024 23.9833C38.0786 23.0649 39.144 22.3531 40.3229 21.8986C41.5018 21.4441 42.7652 21.2581 44.0233 21.3538C44.8533 21.3494 45.661 21.6258 46.3181 22.1391C46.9751 22.6524 47.4438 23.3731 47.6496 24.1868C48.1262 26.4471 47.3294 28.376 45.6093 29.152C44.6673 29.55 43.6827 29.8357 42.6755 30.0034C41.566 30.1993 39.3693 30.3576 39.3395 30.3576H38.9523L39.1236 34.1248H39.5108C39.5108 34.1248 41.4841 34.0344 43.1223 34.0344C43.8669 34.0344 46.2199 34.2077 47.4262 34.9385C47.9438 35.2385 48.3934 35.645 48.7461 36.1316C49.0988 36.6183 49.3468 37.1744 49.474 37.764C49.7942 39.4517 50.0846 43.4827 45.7508 44.4396C42.0277 45.2684 38.93 44.4396 36.6514 41.9532L36.0259 41.2751L35.7876 41.0265C35.7182 40.9505 35.6285 40.8966 35.5294 40.8711C35.4303 40.8457 35.326 40.85 35.2292 40.8833C35.134 40.9176 35.0501 40.978 34.9869 41.0579C34.9238 41.1378 34.8839 41.2338 34.8718 41.3354L34.7601 42.2621C34.6484 43.1738 34.5516 44.0327 34.4101 44.8766C34.3375 45.195 34.3783 45.5291 34.5255 45.82C34.6726 46.1109 34.9166 46.3398 35.2143 46.4664C37.7674 47.8731 40.6323 48.5992 43.5393 48.5761C44.1126 48.5761 44.6934 48.5761 45.2742 48.5007C47.5938 48.3495 49.8136 47.4905 51.6408 46.0369C54.2247 43.8971 55.364 41.2977 55.1108 38.314C54.8055 34.9159 52.8769 32.5802 49.4442 31.3596" fill="#D8D8D8"/>
<path d="M135.387 34.9998V31.3607C135.387 27.1413 135.343 22.7864 136.095 18.6951L136.177 18.2129H129.147L129.229 18.6951C129.468 19.9609 129.676 21.3096 129.847 22.711C129.889 22.8661 129.89 23.0295 129.851 23.1852C129.812 23.3409 129.734 23.4838 129.624 23.6001C127.39 26.0187 125.201 28.4749 123.094 30.8558C121.157 33.0333 119.177 35.2635 117.136 37.4712C117.181 35.6026 117.136 33.7491 117.136 31.9333C117.04 27.4126 116.958 23.0651 118.082 18.7328L118.209 18.228H111.016L111.165 18.7478C111.727 20.9351 111.958 23.1961 111.85 25.4536V27.6763C111.85 31.5566 111.85 35.5649 111.85 39.498C111.85 40.0857 111.85 40.696 111.85 41.2686C111.903 42.3711 111.885 43.476 111.797 44.5762C111.708 45.2436 111.582 45.9052 111.418 46.5578C111.351 46.8667 111.284 47.1907 111.209 47.4996L111.112 47.9894H118.075L118.008 47.5222C117.859 46.5578 117.762 45.6009 117.658 44.6591C117.606 44.1091 117.553 43.5741 117.479 43.0241C117.461 42.7725 117.535 42.5231 117.688 42.3234C119.661 40.161 121.619 37.9684 123.496 35.8286C125.633 33.4251 127.844 30.9237 130.093 28.4749V32.5662C130.093 33.8923 130.093 35.2259 130.093 36.5218C130.093 38.5109 130.138 40.5679 130.056 42.5947C129.974 43.7246 129.83 44.849 129.624 45.9626C129.542 46.4825 129.445 47.0024 129.371 47.5222L129.304 47.9894H136.206L136.095 47.5448C135.35 43.6043 135.35 39.2569 135.387 35.0451" fill="#D8D8D8"/>
<path d="M153.122 22.1741C153.117 22.0913 153.117 22.0083 153.122 21.9255L161.998 23.0783L161.44 18.1582H139.257L138.766 23.0783L148.267 21.9255V40.7091L147.351 47.9724H154.053L153.211 40.8296C153.234 40.7091 153.144 28.3223 153.122 22.1741Z" fill="#D8D8D8"/>
</svg>
