<?xml version="1.0" encoding="UTF-8"?>
<svg width="275px" height="55px" viewBox="0 0 275 55" version="1.1" xmlns="http://www.w3.org/2000/svg" xmlns:xlink="http://www.w3.org/1999/xlink">
    <title>img / Logo / GPN / orb</title>
    <defs>
        <rect id="path-1" x="0" y="0" width="275" height="55"></rect>
    </defs>
    <g id="img-/-Logo-/-GPN-/-orb" stroke="none" stroke-width="1" fill="none" fill-rule="evenodd">
        <mask id="mask-2" fill="white">
            <use xlink:href="#path-1"></use>
        </mask>
        <use id="Mask" fill-opacity="0" fill="#FFFFFF" xlink:href="#path-1"></use>
        <g id="Group" mask="url(#mask-2)" fill="#D8D8D8">
            <g id="logo">
                <polygon id="Fill-98" points="121.898872 13.6477699 114.657112 50 116.331188 50 123.572948 13.6477699"></polygon>
                <path d="M85.0044153,14.7737514 L82.2959945,14.7737514 C80.0064293,14.7737514 79.871749,16.6261029 79.871749,17.8214295 L79.871749,28.7776908 C79.871749,29.9743666 80.0064293,31.8267181 82.2959945,31.8267181 L85.0044153,31.8267181 C87.2939805,31.8267181 87.434048,29.9743666 87.434048,28.7776908 L87.434048,17.8214295 C87.434048,16.6261029 87.2939805,14.7737514 85.0044153,14.7737514 M83.6522251,29.7180324 C83.2508778,29.7180324 82.9249515,29.415828 82.9249515,29.0407706 C82.9249515,29.0326759 82.9289919,29.0245811 82.9289919,29.0151372 L82.9289919,17.5866814 L82.9289919,17.5354146 L82.9330323,17.486846 C82.9707428,17.1509134 83.2751203,16.8837862 83.6495315,16.8837862 C84.0225959,16.8837862 84.3323606,17.1509134 84.3687243,17.486846 L84.3727647,17.5354146 L84.3727647,17.5866814 L84.3727647,29.0151372 C84.3727647,29.0245811 84.3754583,29.0326759 84.3754583,29.0407706 C84.3754583,29.415828 84.049532,29.7180324 83.6522251,29.7180324" id="Fill-100"></path>
                <polygon id="Fill-102" points="34.0407157 14.7737514 40.2777605 14.7737514 40.2777605 16.891881 37.3094066 16.891881 37.3094066 31.8267181 34.0407157 31.8267181"></polygon>
                <path d="M44.3794491,25.4197134 L44.9424127,16.8891827 L45.1269247,16.8891827 L45.6871948,25.4197134 L44.3794491,25.4197134 Z M40.7619361,31.8267181 L43.9578997,31.8267181 L44.2649708,27.293651 L45.8070603,27.293651 L46.1087441,31.8267181 L49.3100949,31.8267181 L47.6023487,14.7737514 L42.4669888,14.7737514 L40.7619361,31.8267181 Z" id="Fill-104"></path>
                <path d="M53.9913128,25.8557513 L53.9913128,29.0653247 C53.9913128,29.503791 54.3131988,29.6279107 54.503098,29.6279107 C54.8061287,29.6279107 55.0162299,29.3580853 55.0162299,29.0653247 L55.0162299,25.1002401 C55.0162299,24.5646367 54.9246473,23.9818138 53.7057906,23.9818138 L52.3805364,23.9818138 L52.3805364,22.1051779 L53.7529287,22.1051779 C54.68761,22.1051779 55.0162299,21.882572 55.0162299,20.842395 L55.0162299,17.4479911 C55.0162299,17.1579288 54.8061287,16.8908017 54.503098,16.8908017 C54.3131988,16.8908017 53.9913128,17.0122231 53.9913128,17.4479911 L53.9913128,20.2298913 L50.7199283,20.2298913 L50.7199283,17.8203502 C50.7199283,16.6263727 50.8626894,14.7740212 53.1482142,14.7740212 L55.8593286,14.7740212 C58.1488938,14.7740212 58.2876145,16.6263727 58.2876145,17.8203502 L58.2876145,20.5509835 C58.2876145,22.3979385 57.0485557,22.9092577 56.0667363,22.8606891 L56.0667363,23.0333774 C58.2606784,22.9807614 58.2876145,24.7359758 58.2876145,25.3471304 L58.2876145,28.7779607 C58.2876145,29.9746364 58.1488938,31.8269879 55.8593286,31.8269879 L53.1482142,31.8269879 C50.8626894,31.8269879 50.7199283,29.9746364 50.7199283,28.7779607 L50.7199283,25.8557513 L53.9913128,25.8557513 Z" id="Fill-106"></path>
                <polygon id="Fill-108" points="60.4384589 14.7737514 68.0047983 14.7737514 68.0047983 31.8267181 64.9542894 31.8267181 64.9542894 16.891881 63.4862741 16.891881 63.4862741 31.8267181 60.4384589 31.8267181"></polygon>
                <path d="M73.6404955,24.1495103 L73.6404955,16.8912064 L74.4997558,16.8912064 C74.853965,16.8912064 75.1112044,17.2082513 75.1112044,17.7411565 L75.1112044,23.2995602 C75.1112044,23.8365128 74.853965,24.1495103 74.4997558,24.1495103 L73.6404955,24.1495103 Z M70.3731514,31.8273927 L73.6404955,31.8273927 L73.6404955,26.0288443 L75.5085113,26.0288443 C77.7980764,26.0288443 78.16306,24.1791911 78.16306,22.9798171 L78.16306,17.820755 C78.16306,16.6267775 77.7980764,14.7730768 75.5085113,14.7730768 L70.3731514,14.7730768 L70.3731514,31.8273927 Z" id="Fill-110"></path>
                <polygon id="Fill-112" points="97.8674616 14.7737514 102.120666 14.7737514 102.120666 31.8267181 98.849281 31.8267181 98.849281 21.1321875 98.7321092 21.1321875 97.0486054 31.8267181 94.4358075 31.8267181 92.7536506 21.1321875 92.6391723 21.1321875 92.6391723 31.8267181 89.3677878 31.8267181 89.3677878 14.7737514 93.6142577 14.7737514 95.7368192 26.7580475"></polygon>
                <path d="M27.3655559,8.81789482 C26.3339048,4.28617684 23.7413089,0.600361566 23.3870998,0 C22.8227893,0.845902701 20.7581403,4.09729905 19.7076339,7.70756321 C18.5628513,11.7333585 18.3931542,15.3031489 18.7877674,18.8216724 C19.1823807,22.3361485 20.6665577,25.9450635 20.6665577,25.9450635 C21.4544374,27.8419363 22.6355837,29.8696743 23.4046082,30.8666793 C24.5291887,29.4001781 27.1244781,25.026308 27.9298663,19.3100564 C28.3783517,16.132862 28.3958602,13.3469145 27.3655559,8.81789482 M23.3870998,29.738809 C22.8807018,28.7822779 22.0887816,26.9596071 22.0147075,24.1439788 C21.9945054,21.4160438 23.0854159,19.0820539 23.4046082,18.5936699 C23.6901304,19.0820539 24.6234649,21.1151885 24.7365964,23.8970886 C24.8133642,26.6196271 23.9136997,28.762041 23.3870998,29.738809 M27.0679124,16.5065702 C27.0288551,18.2361512 26.8227943,20.0601711 26.5601677,21.1489167 C26.6557907,19.2722808 26.428181,16.6212461 25.9958572,14.5503359 C25.566227,12.4794258 24.3419831,9.02700952 23.3668977,7.42559564 C22.4699269,8.94741103 21.3588144,11.9370767 20.7783423,14.5341464 C20.1938298,17.1285178 20.1763214,20.2692858 20.1763214,21.2123256 C20.021439,20.4122932 19.6335597,17.5872211 19.7453444,14.741912 C19.836927,12.3930817 20.383729,9.98354065 20.6840661,8.87185991 C21.8288487,5.16850598 23.12582,2.80078789 23.3668977,2.4230323 C23.6106691,2.80078789 25.2456879,5.71625159 26.0914802,8.77877014 C26.9332321,11.8453361 27.1015825,14.7783384 27.0679124,16.5065702" id="Fill-114"></path>
                <path d="M17.0478326,31.82375 L17.0478326,37.1838321 C17.0545666,37.1770864 17.0613007,37.1689917 17.0720751,37.162246 C18.9414377,35.2950541 21.9744381,35.2950541 23.8451475,37.162246 C25.7185505,39.0253906 25.7185505,42.0582283 23.8451475,43.922722 C23.8384134,43.9308168 23.8316794,43.9375624 23.8222518,43.9456572 L23.8222518,43.9470063 C23.8114774,43.955101 23.8033966,43.9631958 23.7953157,43.9726397 C21.9259532,45.8195947 19.4868929,46.7464451 17.0478326,46.7464451 C14.6020383,46.7464451 12.14951,45.8101508 10.2814943,43.9510537 C6.98990767,40.6632309 6.59529439,35.5797199 9.10842882,31.865573 C9.44512958,31.3636977 9.83570245,30.8874558 10.2814943,30.4449421 C12.14951,28.5804484 14.6020383,27.6508999 17.0478326,27.6508999 L17.0478326,14.8652222 C7.63771992,14.8652222 -1.77329677e-15,22.4796956 -1.77329677e-15,31.865573 C-1.77329677e-15,41.2595451 7.63771992,48.8740185 17.0478326,48.8740185 C21.96097,48.8740185 26.3798307,46.799061 29.4882521,43.4883031 L29.4882521,31.82375 L17.0478326,31.82375 Z" id="Fill-116"></path>
                <path d="M69.190389,41.2089528 L68.9250688,41.2089528 L68.9250688,44.6586708 L69.190389,44.6586708 C69.5742278,44.6586708 69.7129485,44.5493915 69.7129485,44.1149726 L69.7129485,41.7337633 C69.7129485,41.2979952 69.5742278,41.2089528 69.190389,41.2089528 L69.190389,41.2089528 Z M96.8375613,43.514611 L96.4537225,43.514611 L96.4537225,45.4465611 L96.8375613,45.4465611 C97.2240926,45.4465611 97.3412657,45.3480748 97.3412657,44.925798 L97.3412657,44.034025 C97.3412657,43.6103991 97.2240926,43.514611 96.8375613,43.514611 L96.8375613,43.514611 Z M66.448298,41.7540002 L66.448298,44.1244165 C66.448298,44.5588354 66.5870187,44.6586708 66.968164,44.6586708 L67.2469522,44.6586708 L67.2469522,41.2089528 L66.968164,41.2089528 C66.5870187,41.2089528 66.448298,41.3195812 66.448298,41.7540002 L66.448298,41.7540002 Z M34.0415238,48.8733439 L102.12107,48.8733439 L102.12107,37.5055989 L34.0415238,37.5055989 L34.0415238,48.8733439 Z M41.4314319,46.7552144 L39.7048305,46.7552144 L39.7048305,43.514611 L38.8186341,43.514611 L38.8186341,46.7552144 L37.0920326,46.7552144 L37.0920326,39.3512048 L38.8186341,39.3512048 L38.8186341,42.208656 L39.7048305,42.208656 L39.7048305,39.3512048 L41.4314319,39.3512048 L41.4314319,46.7552144 Z M55.7439076,40.7502496 L53.3829619,40.7502496 L53.3829619,42.2059577 L55.4960959,42.2059577 L55.4960959,43.6103991 L53.3829619,43.6103991 L53.3829619,45.3548204 L55.7439076,45.3548204 L55.7439076,46.7606109 L51.6024883,46.7606109 L51.6024883,39.3444591 L55.7439076,39.3444591 L55.7439076,40.7502496 Z M71.3870247,44.1149726 C71.3870247,45.6179002 70.6247342,46.0226384 68.9250688,46.0226384 L68.9250688,46.7552144 L67.2469522,46.7552144 L67.2469522,46.0226384 C65.5418996,46.0226384 64.7701815,45.6179002 64.7701815,44.1149726 L64.7701815,41.8012196 C64.7701815,40.2901972 65.5109231,39.905696 67.2469522,39.905696 L67.2469522,39.3512048 L68.9250688,39.3512048 L68.9250688,39.905696 C70.6503234,39.905696 71.3870247,40.2901972 71.3870247,41.8012196 L71.3870247,44.1149726 Z M84.6651557,40.7502496 L83.3574099,40.7502496 L83.3574099,46.7606109 L81.715657,46.7606109 L81.715657,40.7502496 L80.3149819,40.7502496 L80.3149819,39.3444591 L84.6651557,39.3444591 L84.6651557,40.7502496 Z M99.0651735,44.8461995 C99.0651735,46.4665012 98.3284723,46.7552144 96.4537225,46.7552144 L94.727121,46.7552144 L94.727121,39.3512048 L96.4537225,39.3512048 L96.4537225,42.208656 L96.7419383,42.208656 C98.4375633,42.208656 99.0651735,42.6052994 99.0651735,44.0852918 L99.0651735,44.8461995 Z" id="Fill-118"></path>
                <path d="M85.0046447,14.7737912 L82.2962165,14.7737912 C80.0066452,14.7737912 79.8719645,16.6261478 79.8719645,17.8214776 L79.8719645,28.7777685 C79.8719645,29.9744475 80.0066452,31.826804 82.2962165,31.826804 L85.0046447,31.826804 C87.294216,31.826804 87.4342839,29.9744475 87.4342839,28.7777685 L87.4342839,17.8214776 C87.4342839,16.6261478 87.294216,14.7737912 85.0046447,14.7737912 M83.6524508,29.7181126 C83.2511024,29.7181126 82.9251752,29.4159073 82.9251752,29.040849 C82.9251752,29.0327542 82.9292156,29.0246594 82.9292156,29.0152155 L82.9292156,17.5867289 L82.9292156,17.5354619 L82.9332561,17.4868932 C82.9709667,17.1509596 83.275345,16.8838317 83.6497572,16.8838317 C84.0228227,16.8838317 84.3325882,17.1509596 84.368952,17.4868932 L84.3729924,17.5354619 L84.3729924,17.5867289 L84.3729924,29.0152155 C84.3729924,29.0246594 84.375686,29.0327542 84.375686,29.040849 C84.375686,29.4159073 84.0497588,29.7181126 83.6524508,29.7181126" id="Fill-2"></path>
                <polygon id="Fill-4" points="34.0406728 14.7737912 40.2777345 14.7737912 40.2777345 16.8919265 37.3093726 16.8919265 37.3093726 31.826804 34.0406728 31.826804"></polygon>
                <path d="M44.3795688,25.4196471 L44.942534,16.8890934 L45.1270465,16.8890934 L45.6873181,25.4196471 L44.3795688,25.4196471 Z M40.7620461,31.8266691 L43.9580183,31.8266691 L44.2650902,27.2935897 L45.8071839,27.2935897 L46.1088685,31.8266691 L49.310228,31.8266691 L47.6024771,14.7736563 L42.4671034,14.7736563 L40.7620461,31.8266691 Z" id="Fill-6"></path>
                <path d="M53.9913238,25.8558211 L53.9913238,29.0654032 C53.9913238,29.5038707 54.3132106,29.6279907 54.5031104,29.6279907 C54.8061419,29.6279907 55.0162437,29.3581645 55.0162437,29.0654032 L55.0162437,25.1003079 C55.0162437,24.564703 54.9246609,23.9818785 53.7058008,23.9818785 L52.3805431,23.9818785 L52.3805431,22.1052376 L53.7529391,22.1052376 C54.6876229,22.1052376 55.0162437,21.882631 55.0162437,20.8424512 L55.0162437,17.4480382 C55.0162437,17.1579751 54.8061419,16.8908472 54.5031104,16.8908472 C54.3132106,16.8908472 53.9913238,17.012269 53.9913238,17.4480382 L53.9913238,20.2299458 L50.7199305,20.2299458 L50.7199305,17.8203983 C50.7199305,16.6264176 50.862692,14.7740611 53.1482229,14.7740611 L55.8593447,14.7740611 C58.148916,14.7740611 58.2876371,16.6264176 58.2876371,17.8203983 L58.2876371,20.551039 C58.2876371,22.397999 57.048575,22.9093195 56.0667529,22.8607508 L56.0667529,23.0334396 C58.2607009,22.9808235 58.2876371,24.7360426 58.2876371,25.3471988 L58.2876371,28.7780383 C58.2876371,29.9747173 58.148916,31.8270738 55.8593447,31.8270738 L53.1482229,31.8270738 C50.862692,31.8270738 50.7199305,29.9747173 50.7199305,28.7780383 L50.7199305,25.8558211 L53.9913238,25.8558211 Z" id="Fill-8"></path>
                <polygon id="Fill-10" points="60.4384873 14.7737912 68.0048471 14.7737912 68.0048471 31.826804 64.95433 31.826804 64.95433 16.8919265 63.4863108 16.8919265 63.4863108 31.826804 60.4384873 31.826804"></polygon>
                <path d="M73.6406942,24.1495754 L73.6406942,16.891252 L74.4999568,16.891252 C74.854167,16.891252 75.1114071,17.2082977 75.1114071,17.7412043 L75.1114071,23.2996231 C75.1114071,23.8365771 74.854167,24.1495754 74.4999568,24.1495754 L73.6406942,24.1495754 Z M70.3733413,31.8274786 L73.6406942,31.8274786 L73.6406942,26.0289146 L75.508715,26.0289146 C77.7982863,26.0289146 78.1632709,24.1792563 78.1632709,22.9798791 L78.1632709,17.8208031 C78.1632709,16.6268223 77.7982863,14.7731167 75.508715,14.7731167 L70.3733413,14.7731167 L70.3733413,31.8274786 Z" id="Fill-12"></path>
                <polygon id="Fill-14" points="97.867591 14.7737912 102.120806 14.7737912 102.120806 31.826804 98.8494131 31.826804 98.8494131 21.1322445 98.7322409 21.1322445 97.0487326 31.826804 94.4359277 31.826804 92.7537661 21.1322445 92.6392876 21.1322445 92.6392876 31.826804 89.3678942 31.826804 89.3678942 14.7737912 93.6143756 14.7737912 95.7369429 26.7581197"></polygon>
                <path d="M27.3656297,8.81791862 C26.3339758,4.28618841 23.741373,0.600363186 23.3871629,0 C22.8228509,0.845904983 20.7581963,4.0973101 19.7076871,7.707584 C18.5629014,11.7333902 18.3932038,15.3031902 18.7878181,18.8217232 C19.1824325,22.3362088 20.6666134,25.9451336 20.6666134,25.9451336 C21.4544953,27.8420114 22.6356447,29.8697549 23.4046713,30.8667625 C24.5292549,29.4002574 27.1245513,25.0263755 27.9299417,19.3101085 C28.3784283,16.1329056 28.3959368,13.3469506 27.3656297,8.81791862 M23.3871629,29.7388892 C22.8807636,28.7823555 22.0888412,26.9596799 22.0147669,24.144044 C21.9945648,21.4161016 23.0854782,19.0821054 23.4046713,18.5937201 C23.6901944,19.0821054 24.6235314,21.1152454 24.7366631,23.8971531 C24.8134311,26.6196989 23.9137643,28.7621186 23.3871629,29.7388892 M27.0679854,16.5066148 C27.028928,18.2362004 26.8228666,20.0602252 26.5602393,21.1489737 C26.6558626,19.2723328 26.4282523,16.6212909 25.9959273,14.5503752 C25.566296,12.4794595 24.3420488,9.02703388 23.3669608,7.42561568 C22.4699875,8.94743517 21.358872,11.9371089 20.7783984,14.5341856 C20.1938843,17.1285641 20.1763758,20.2693405 20.1763758,21.2123829 C20.021493,20.4123483 19.6336127,17.5872685 19.7453977,14.7419518 C19.8369805,12.3931151 20.383784,9.98356759 20.6841219,8.87188385 C21.8289076,5.16851992 23.1258824,2.80079545 23.3669608,2.42303884 C23.6107328,2.80079545 25.245756,5.71626701 26.0915506,8.77879382 C26.9333048,11.845368 27.1016556,14.7783783 27.0679854,16.5066148" id="Fill-16"></path>
                <path d="M17.0478786,31.8238359 L17.0478786,37.1839324 C17.0546127,37.1771867 17.0613467,37.169092 17.0721211,37.1623463 C18.9414888,35.2951493 21.9744974,35.2951493 23.8452118,37.1623463 C25.7186199,39.0254959 25.7186199,42.0583418 23.8452118,43.9228405 C23.8384778,43.9309353 23.8317437,43.937681 23.8223161,43.9457757 L23.8223161,43.9471249 C23.8115416,43.9552197 23.8034608,43.9633144 23.79538,43.9727584 C21.9260123,45.8197184 19.4869455,46.7465712 17.0478786,46.7465712 C14.6020777,46.7465712 12.1495428,45.8102744 10.281522,43.9511723 C6.98992653,40.6633406 6.59531218,35.5798159 9.1084534,31.865659 C9.44515506,31.3637823 9.83572899,30.8875392 10.281522,30.4450243 C12.1495428,28.5805256 14.6020777,27.6509745 17.0478786,27.6509745 L17.0478786,14.8652623 C7.63774053,14.8652623 5.31989031e-15,22.4797563 5.31989031e-15,31.865659 C5.31989031e-15,41.2596564 7.63774053,48.8741504 17.0478786,48.8741504 C21.9610293,48.8741504 26.3799019,46.7991873 29.4883317,43.4884204 L29.4883317,31.8238359 L17.0478786,31.8238359 Z" id="Fill-18"></path>
                <path d="M69.190441,41.209064 L68.9251201,41.209064 L68.9251201,44.6587913 L69.190441,44.6587913 C69.5742809,44.6587913 69.713002,44.5495117 69.713002,44.1150916 L69.713002,41.7338759 C69.713002,41.2981066 69.5742809,41.209064 69.190441,41.209064 L69.190441,41.209064 Z M96.837688,43.5147285 L96.4538481,43.5147285 L96.4538481,45.4466837 L96.837688,45.4466837 C97.2242175,45.4466837 97.3413936,45.3481972 97.3413936,44.9259192 L97.3413936,44.0341438 C97.3413936,43.6105167 97.2242175,43.5147285 96.837688,43.5147285 L96.837688,43.5147285 Z M66.4483426,41.7541128 L66.4483426,44.1245356 C66.4483426,44.5589557 66.5870637,44.6587913 66.96821,44.6587913 L67.246999,44.6587913 L67.246999,41.209064 L66.96821,41.209064 C66.5870637,41.209064 66.4483426,41.3196927 66.4483426,41.7541128 L66.4483426,41.7541128 Z M34.0414809,48.8734758 L102.12121,48.8734758 L102.12121,37.5057001 L34.0414809,37.5057001 L34.0414809,48.8734758 Z M41.431409,46.7553405 L39.7048029,46.7553405 L39.7048029,43.5147285 L38.8186041,43.5147285 L38.8186041,46.7553405 L37.091998,46.7553405 L37.091998,39.351311 L38.8186041,39.351311 L38.8186041,42.2087699 L39.7048029,42.2087699 L39.7048029,39.351311 L41.431409,39.351311 L41.431409,46.7553405 Z M55.7439233,40.7503595 L53.3829713,40.7503595 L53.3829713,42.2060716 L55.4961109,42.2060716 L55.4961109,43.6105167 L53.3829713,43.6105167 L53.3829713,45.3549428 L55.7439233,45.3549428 L55.7439233,46.7607371 L51.6024929,46.7607371 L51.6024929,39.3445653 L55.7439233,39.3445653 L55.7439233,40.7503595 Z M71.3870826,44.1150916 C71.3870826,45.6180233 70.6247901,46.0227625 68.9251201,46.0227625 L68.9251201,46.7553405 L67.246999,46.7553405 L67.246999,46.0227625 C65.5419418,46.0227625 64.7702215,45.6180233 64.7702215,44.1150916 L64.7702215,41.8013324 C64.7702215,40.290306 65.5109652,39.9058037 67.246999,39.9058037 L67.246999,39.351311 L68.9251201,39.351311 L68.9251201,39.9058037 C70.6503794,39.9058037 71.3870826,40.290306 71.3870826,41.8013324 L71.3870826,44.1150916 Z M84.6652494,40.7503595 L83.3575002,40.7503595 L83.3575002,46.7607371 L81.7157429,46.7607371 L81.7157429,40.7503595 L80.3150639,40.7503595 L80.3150639,39.3445653 L84.6652494,39.3445653 L84.6652494,40.7503595 Z M99.0653062,44.8463205 C99.0653062,46.4666266 98.3286029,46.7553405 96.4538481,46.7553405 L94.7272419,46.7553405 L94.7272419,39.351311 L96.4538481,39.351311 L96.4538481,42.2087699 L96.7420647,42.2087699 C98.4376943,42.2087699 99.0653062,42.6054143 99.0653062,44.0854108 L99.0653062,44.8463205 Z" id="Fill-20"></path>
                <polygon id="Fill-1" points="121.899066 13.6476718 114.657287 50 116.331367 50 123.573147 13.6476718"></polygon>
            </g>
        </g>
        <g id="txt" mask="url(#mask-2)" fill="#D8D8D8" fill-rule="nonzero">
            <g transform="translate(136.885000, 18.515000)">
                <polygon id="Path" points="6.66 1.92 2.415 1.92 2.415 10.485 0.315 10.485 0.315 0.135 6.66 0.135"></polygon>
                <path d="M6.23,10.485 L9.83,0.135 L11.84,0.135 L15.44,10.485 L13.205,10.485 L12.575,8.52 L9.11,8.52 L8.48,10.485 L6.23,10.485 Z M9.665,6.75 L12.005,6.75 L10.835,3.105 L9.665,6.75 Z" id="Shape"></path>
                <path d="M18.85,4.23 L19.975,4.23 C20.575,4.23 21,4.115 21.25,3.885 C21.5,3.655 21.625,3.35 21.625,2.97 C21.625,2.61 21.51,2.3175 21.28,2.0925 C21.05,1.8675 20.65,1.755 20.08,1.755 C19.52,1.755 19.105,1.8725 18.835,2.1075 C18.565,2.3425 18.365,2.645 18.235,3.015 L16.39,3.015 C16.43,2.555 16.5575,2.1375 16.7725,1.7625 C16.9875,1.3875 17.265,1.07 17.605,0.81 C17.945,0.55 18.3325,0.35 18.7675,0.21 C19.2025,0.07 19.665,0 20.155,0 C20.625,0 21.075,0.0575 21.505,0.1725 C21.935,0.2875 22.315,0.46 22.645,0.69 C22.975,0.92 23.2375,1.21 23.4325,1.56 C23.6275,1.91 23.725,2.315 23.725,2.775 C23.725,3.315 23.605,3.765 23.365,4.125 C23.125,4.485 22.795,4.79 22.375,5.04 C22.885,5.25 23.2925,5.5625 23.5975,5.9775 C23.9025,6.3925 24.055,6.905 24.055,7.515 C24.055,7.985 23.9675,8.41 23.7925,8.79 C23.6175,9.17 23.3625,9.495 23.0275,9.765 C22.6925,10.035 22.2825,10.245 21.7975,10.395 C21.3125,10.545 20.76,10.62 20.14,10.62 C19.03,10.62 18.125,10.3675 17.425,9.8625 C16.725,9.3575 16.275,8.565 16.075,7.485 L18.085,7.485 C18.275,7.955 18.5175,8.3 18.8125,8.52 C19.1075,8.74 19.525,8.85 20.065,8.85 C21.325,8.85 21.955,8.375 21.955,7.425 C21.955,6.475 21.285,6 19.945,6 L18.85,6 L18.85,4.23 Z" id="Path"></path>
                <polygon id="Path" points="33.9 0.135 33.9 10.485 31.8 10.485 31.8 1.92 28.05 1.92 28.05 10.485 25.95 10.485 25.95 0.135"></polygon>
                <path d="M38.42,6.84 L38.42,10.485 L36.32,10.485 L36.32,0.135 L40.025,0.135 C41.215,0.135 42.1575,0.41 42.8525,0.96 C43.5475,1.51 43.895,2.34 43.895,3.45 C43.895,4.55 43.5525,5.39 42.8675,5.97 C42.1825,6.55 41.235,6.84 40.025,6.84 L38.42,6.84 Z M39.725,5.07 C40.455,5.07 40.9825,4.94 41.3075,4.68 C41.6325,4.42 41.795,4.01 41.795,3.45 C41.795,2.95 41.6325,2.57 41.3075,2.31 C40.9825,2.05 40.455,1.92 39.725,1.92 L38.42,1.92 L38.42,5.07 L39.725,5.07 Z" id="Shape"></path>
                <path d="M53.17,6.045 C53.17,6.835 53.0725,7.5175 52.8775,8.0925 C52.6825,8.6675 52.41,9.1425 52.06,9.5175 C51.71,9.8925 51.29,10.17 50.8,10.35 C50.31,10.53 49.775,10.62 49.195,10.62 C48.615,10.62 48.0825,10.53 47.5975,10.35 C47.1125,10.17 46.695,9.8925 46.345,9.5175 C45.995,9.1425 45.7225,8.6675 45.5275,8.0925 C45.3325,7.5175 45.235,6.835 45.235,6.045 L45.235,4.575 C45.235,3.775 45.3325,3.0875 45.5275,2.5125 C45.7225,1.9375 45.995,1.4625 46.345,1.0875 C46.695,0.7125 47.1125,0.4375 47.5975,0.2625 C48.0825,0.0875 48.615,0 49.195,0 C49.775,0 50.31,0.0875 50.8,0.2625 C51.29,0.4375 51.71,0.7125 52.06,1.0875 C52.41,1.4625 52.6825,1.9375 52.8775,2.5125 C53.0725,3.0875 53.17,3.775 53.17,4.575 L53.17,6.045 Z M47.335,6.045 C47.335,7.035 47.4925,7.75 47.8075,8.19 C48.1225,8.63 48.585,8.85 49.195,8.85 C49.805,8.85 50.27,8.63 50.59,8.19 C50.91,7.75 51.07,7.035 51.07,6.045 L51.07,4.575 C51.07,3.585 50.91,2.87 50.59,2.43 C50.27,1.99 49.805,1.77 49.195,1.77 C48.585,1.77 48.1225,1.99 47.8075,2.43 C47.4925,2.87 47.335,3.585 47.335,4.575 L47.335,6.045 Z" id="Shape"></path>
                <polygon id="Path" points="60.15 5.775 63.03 0.135 65.025 0.135 65.025 10.485 63.015 10.485 63.015 4.065 60.765 8.625 59.49 8.625 57.27 4.11 57.27 10.485 55.275 10.485 55.275 0.135 57.24 0.135"></polygon>
                <polygon id="Path" points="69.545 4.245 73.13 4.245 73.13 0.135 75.23 0.135 75.23 10.485 73.13 10.485 73.13 6.015 69.545 6.015 69.545 10.485 67.445 10.485 67.445 0.135 69.545 0.135"></polygon>
                <polygon id="Path" points="84.115 0.135 84.115 1.92 79.765 1.92 79.765 4.245 83.665 4.245 83.665 6.015 79.765 6.015 79.765 8.715 84.115 8.715 84.115 10.485 77.665 10.485 77.665 0.135"></polygon>
                <path d="M89.775,0.135 L91.875,0.135 L91.875,0.885 C92.475,0.885 93.03,0.9525 93.54,1.0875 C94.05,1.2225 94.4925,1.4525 94.8675,1.7775 C95.2425,2.1025 95.5375,2.5325 95.7525,3.0675 C95.9675,3.6025 96.075,4.27 96.075,5.07 L96.075,5.55 C96.075,6.35 95.9675,7.0175 95.7525,7.5525 C95.5375,8.0875 95.2425,8.5175 94.8675,8.8425 C94.4925,9.1675 94.05,9.3975 93.54,9.5325 C93.03,9.6675 92.475,9.735 91.875,9.735 L91.875,10.485 L89.775,10.485 L89.775,9.735 C89.175,9.735 88.6175,9.6675 88.1025,9.5325 C87.5875,9.3975 87.1425,9.1675 86.7675,8.8425 C86.3925,8.5175 86.1,8.0875 85.89,7.5525 C85.68,7.0175 85.575,6.35 85.575,5.55 L85.575,5.07 C85.575,4.27 85.68,3.6025 85.89,3.0675 C86.1,2.5325 86.3925,2.1025 86.7675,1.7775 C87.1425,1.4525 87.5875,1.2225 88.1025,1.0875 C88.6175,0.9525 89.175,0.885 89.775,0.885 L89.775,0.135 Z M91.875,7.965 C92.225,7.965 92.53,7.9275 92.79,7.8525 C93.05,7.7775 93.2675,7.65 93.4425,7.47 C93.6175,7.29 93.75,7.045 93.84,6.735 C93.93,6.425 93.975,6.03 93.975,5.55 L93.975,5.07 C93.975,4.59 93.93,4.195 93.84,3.885 C93.75,3.575 93.6175,3.33 93.4425,3.15 C93.2675,2.97 93.05,2.8425 92.79,2.7675 C92.53,2.6925 92.225,2.655 91.875,2.655 L91.875,7.965 Z M89.775,2.655 C89.425,2.655 89.12,2.6925 88.86,2.7675 C88.6,2.8425 88.3825,2.97 88.2075,3.15 C88.0325,3.33 87.9,3.575 87.81,3.885 C87.72,4.195 87.675,4.59 87.675,5.07 L87.675,5.55 C87.675,6.03 87.72,6.425 87.81,6.735 C87.9,7.045 88.0325,7.29 88.2075,7.47 C88.3825,7.65 88.6,7.7775 88.86,7.8525 C89.12,7.9275 89.425,7.965 89.775,7.965 L89.775,2.655 Z" id="Shape"></path>
                <polygon id="Path" points="104.72 0.135 104.72 1.92 101.87 1.92 101.87 10.485 99.77 10.485 99.77 1.92 96.92 1.92 96.92 0.135"></polygon>
                <path d="M108.34,0.135 L108.34,3.93 L109.945,3.93 C110.635,3.93 111.2225,4.015 111.7075,4.185 C112.1925,4.355 112.5925,4.59 112.9075,4.89 C113.2225,5.19 113.4525,5.54 113.5975,5.94 C113.7425,6.34 113.815,6.765 113.815,7.215 C113.815,7.665 113.7425,8.0875 113.5975,8.4825 C113.4525,8.8775 113.2225,9.2225 112.9075,9.5175 C112.5925,9.8125 112.1925,10.0475 111.7075,10.2225 C111.2225,10.3975 110.635,10.485 109.945,10.485 L106.24,10.485 L106.24,0.135 L108.34,0.135 Z M108.34,5.7 L108.34,8.715 L109.825,8.715 C110.515,8.715 111.0025,8.58 111.2875,8.31 C111.5725,8.04 111.715,7.675 111.715,7.215 C111.715,6.745 111.5725,6.375 111.2875,6.105 C111.0025,5.835 110.515,5.7 109.825,5.7 L108.34,5.7 Z" id="Shape"></path>
                <path d="M7.935,23.045 C7.935,23.835 7.8375,24.5175 7.6425,25.0925 C7.4475,25.6675 7.175,26.1425 6.825,26.5175 C6.475,26.8925 6.055,27.17 5.565,27.35 C5.075,27.53 4.54,27.62 3.96,27.62 C3.38,27.62 2.8475,27.53 2.3625,27.35 C1.8775,27.17 1.46,26.8925 1.11,26.5175 C0.76,26.1425 0.4875,25.6675 0.2925,25.0925 C0.0975,24.5175 0,23.835 0,23.045 L0,21.575 C0,20.775 0.0975,20.0875 0.2925,19.5125 C0.4875,18.9375 0.76,18.4625 1.11,18.0875 C1.46,17.7125 1.8775,17.4375 2.3625,17.2625 C2.8475,17.0875 3.38,17 3.96,17 C4.54,17 5.075,17.0875 5.565,17.2625 C6.055,17.4375 6.475,17.7125 6.825,18.0875 C7.175,18.4625 7.4475,18.9375 7.6425,19.5125 C7.8375,20.0875 7.935,20.775 7.935,21.575 L7.935,23.045 Z M2.1,23.045 C2.1,24.035 2.2575,24.75 2.5725,25.19 C2.8875,25.63 3.35,25.85 3.96,25.85 C4.57,25.85 5.035,25.63 5.355,25.19 C5.675,24.75 5.835,24.035 5.835,23.045 L5.835,21.575 C5.835,20.585 5.675,19.87 5.355,19.43 C5.035,18.99 4.57,18.77 3.96,18.77 C3.35,18.77 2.8875,18.99 2.5725,19.43 C2.2575,19.87 2.1,20.585 2.1,21.575 L2.1,23.045 Z" id="Shape"></path>
                <path d="M12.14,23.84 L12.14,27.485 L10.04,27.485 L10.04,17.135 L13.745,17.135 C14.935,17.135 15.8775,17.41 16.5725,17.96 C17.2675,18.51 17.615,19.34 17.615,20.45 C17.615,21.55 17.2725,22.39 16.5875,22.97 C15.9025,23.55 14.955,23.84 13.745,23.84 L12.14,23.84 Z M13.445,22.07 C14.175,22.07 14.7025,21.94 15.0275,21.68 C15.3525,21.42 15.515,21.01 15.515,20.45 C15.515,19.95 15.3525,19.57 15.0275,19.31 C14.7025,19.05 14.175,18.92 13.445,18.92 L12.14,18.92 L12.14,22.07 L13.445,22.07 Z" id="Shape"></path>
                <polygon id="Path" points="25.72 17.135 25.72 18.92 21.37 18.92 21.37 21.245 25.27 21.245 25.27 23.015 21.37 23.015 21.37 25.715 25.72 25.715 25.72 27.485 19.27 27.485 19.27 17.135"></polygon>
                <polygon id="Path" points="29.655 21.245 33.24 21.245 33.24 17.135 35.34 17.135 35.34 27.485 33.24 27.485 33.24 23.015 29.655 23.015 29.655 27.485 27.555 27.485 27.555 17.135 29.655 17.135"></polygon>
                <path d="M44.585,18.92 L39.875,18.92 L39.875,20.93 L41.48,20.93 C42.17,20.93 42.7575,21.015 43.2425,21.185 C43.7275,21.355 44.1275,21.59 44.4425,21.89 C44.7575,22.19 44.9875,22.5375 45.1325,22.9325 C45.2775,23.3275 45.35,23.75 45.35,24.2 C45.35,24.65 45.2775,25.075 45.1325,25.475 C44.9875,25.875 44.7575,26.2225 44.4425,26.5175 C44.1275,26.8125 43.7275,27.0475 43.2425,27.2225 C42.7575,27.3975 42.17,27.485 41.48,27.485 L37.775,27.485 L37.775,17.135 L44.585,17.135 L44.585,18.92 Z M39.875,22.7 L39.875,25.715 L41.36,25.715 C42.05,25.715 42.5375,25.58 42.8225,25.31 C43.1075,25.04 43.25,24.67 43.25,24.2 C43.25,23.74 43.1075,23.375 42.8225,23.105 C42.5375,22.835 42.05,22.7 41.36,22.7 L39.875,22.7 Z" id="Shape"></path>
                <path d="M54.7,17.135 L51.52,25.385 C51.35,25.835 51.155,26.2025 50.935,26.4875 C50.715,26.7725 50.46,27 50.17,27.17 C49.88,27.34 49.54,27.4575 49.15,27.5225 C48.76,27.5875 48.305,27.62 47.785,27.62 L47.785,25.79 C48.055,25.79 48.29,25.78 48.49,25.76 C48.69,25.74 48.865,25.7 49.015,25.64 C49.165,25.58 49.2925,25.5 49.3975,25.4 C49.5025,25.3 49.595,25.175 49.675,25.025 L46.135,17.135 L48.46,17.135 L50.68,22.295 L52.54,17.135 L54.7,17.135 Z" id="Path"></path>
                <path d="M58.2,23.84 L58.2,27.485 L56.1,27.485 L56.1,17.135 L59.805,17.135 C60.995,17.135 61.9375,17.41 62.6325,17.96 C63.3275,18.51 63.675,19.34 63.675,20.45 C63.675,21.55 63.3325,22.39 62.6475,22.97 C61.9625,23.55 61.015,23.84 59.805,23.84 L58.2,23.84 Z M59.505,22.07 C60.235,22.07 60.7625,21.94 61.0875,21.68 C61.4125,21.42 61.575,21.01 61.575,20.45 C61.575,19.95 61.4125,19.57 61.0875,19.31 C60.7625,19.05 60.235,18.92 59.505,18.92 L58.2,18.92 L58.2,22.07 L59.505,22.07 Z" id="Shape"></path>
                <polygon id="Path" points="71.675 18.92 67.43 18.92 67.43 27.485 65.33 27.485 65.33 17.135 71.675 17.135"></polygon>
            </g>
        </g>
    </g>
</svg>