<svg width="239" height="51" viewBox="0 0 239 51" fill="none" xmlns="http://www.w3.org/2000/svg">
<path fill-rule="evenodd" clip-rule="evenodd" d="M0 25.3785C0 39.3024 11.2985 50.6008 25.2223 50.6008C39.1461 50.6008 50.4446 39.3024 50.4446 25.3785C50.4446 11.4547 39.1461 0.15625 25.2223 0.15625C11.2985 0.15625 0 11.4547 0 25.3785ZM0.89075 25.3785C0.89075 11.9235 11.8142 1.00012 25.2692 1.00012C38.7242 1.00012 49.6476 11.9235 49.6476 25.3785C49.6476 38.7867 38.7242 49.7101 25.2692 49.7101C11.8142 49.7569 0.89075 38.8335 0.89075 25.3785Z" fill="#D8D8D8"/>
<path fill-rule="evenodd" clip-rule="evenodd" d="M7.87715 18.4878C14.3468 14.2685 21.4728 11.7837 33.5682 13.8934C34.2246 13.5183 34.5996 13.1433 34.7872 12.3463C31.7867 11.268 28.505 10.893 24.2857 10.9399C20.4883 11.0336 13.6436 12.4401 9.98682 14.5966L11.112 13.1902C13.6905 11.69 20.3476 9.72094 25.3171 9.5803C28.8332 9.53342 30.6616 9.72094 34.834 10.8461C34.459 10.1429 33.6151 9.76782 32.3493 9.20524C28.3175 7.37686 20.7227 7.23622 14.5343 9.95535C15.3313 9.43965 16.0814 8.97084 17.1128 8.50202C19.1756 7.56439 22.5042 6.67364 26.6767 6.72052C30.0052 6.7674 33.9902 7.93944 36.428 10.3304C36.8499 10.7992 37.0844 11.3149 37.1781 11.7368C39.1003 12.7214 40.2254 13.6121 40.8349 14.6904C41.0693 15.253 41.2099 15.8624 41.0693 16.5188C41.8663 16.9876 42.2413 17.4095 42.6633 17.9252C42.9445 18.3471 43.179 18.8628 43.2258 19.3317C43.3196 19.9411 43.3665 20.5975 42.757 21.3944C43.4134 21.7226 43.9291 22.6134 44.0228 23.0353C44.3041 24.4886 43.4134 25.8951 42.1476 27.0202C40.7411 28.286 37.6001 29.7394 35.0685 30.3957C30.0052 31.6615 25.5515 32.2241 21.9885 32.8804C23.5825 33.2555 25.739 33.7712 29.302 33.7712C36.8499 33.7712 43.5071 30.2082 43.5071 30.2082C43.5071 30.2082 43.3665 30.677 43.2258 31.0989C38.4439 34.0056 30.8022 35.2245 27.5674 35.0839C24.2388 34.9432 21.4728 34.4275 18.7537 33.5837C17.9098 33.8181 17.1128 34.0525 16.3158 34.4275C20.4414 36.3028 23.5825 36.7247 27.1455 37.006C30.7553 37.2873 36.7093 36.3965 41.7725 34.5682C41.5381 34.8026 41.4443 35.1776 41.2099 35.3652C38.6314 36.7247 33.1463 38.0843 30.4272 38.178C27.708 38.2718 24.3795 38.178 21.4728 37.6623C18.9881 37.1935 16.9253 36.3965 14.8156 35.4589C14.4406 35.7402 14.253 36.1153 14.1593 36.5372C22.2698 40.8503 30.0521 40.9441 38.9127 38.178L38.1157 38.975C28.3644 42.9131 20.7696 41.366 14.8625 38.5531C14.675 38.4593 14.4406 38.3656 14.253 38.2718C14.8156 39.2094 19.3162 42.4911 24.3326 42.9131C27.8018 43.1944 32.0211 42.5849 34.5528 41.6004L33.0525 42.3505C31.8336 42.96 28.5988 44.3195 24.0982 43.9914C18.0973 43.5694 14.7219 40.9441 13.1748 39.5376C12.4715 38.8813 12.1434 38.1312 11.909 37.1935C10.5494 36.4903 9.70553 35.7402 9.0023 34.6619C8.58037 34.0056 8.67413 33.3024 8.7679 32.6929L8.90854 32.1303C8.2522 31.6615 7.59586 31.1458 7.31457 30.6301C6.70511 29.5518 7.08016 28.6611 7.50209 27.911C7.12704 27.4891 6.79887 27.114 6.65823 26.6921C6.51758 26.1764 6.4707 25.7076 6.51758 25.1919C6.61134 24.3011 7.12704 23.4572 7.7365 22.754C9.04918 21.2538 11.112 20.0818 14.675 18.9097C18.1442 17.7846 19.5038 17.597 22.1291 16.9876C25.1764 16.2844 28.8332 16.05 31.8805 14.9717C23.3949 13.4715 14.5343 14.831 7.36145 19.8005L7.87715 18.4878ZM36.8031 13.2371C36.7093 13.659 36.2405 14.1278 35.9592 14.456C36.8968 14.6904 37.8345 15.0186 38.7252 15.3936C38.5846 14.5497 37.6469 13.7528 36.8031 13.2371ZM10.6432 30.2082C10.0806 29.88 9.70553 29.6925 9.28359 29.3643C9.04918 29.88 9.518 30.4895 9.98682 30.7708C10.1743 30.5832 10.4088 30.3957 10.6432 30.2082ZM39.2878 19.0973C39.8972 19.3785 40.4598 19.6129 40.9755 19.988C41.3506 19.2379 41.1162 18.7691 40.3192 18.1127C40.0379 18.4878 39.6628 18.816 39.2878 19.0973ZM37.4594 20.2224C36.2405 20.785 34.4121 21.3944 31.8805 22.0508C29.8177 22.5665 24.7076 23.3166 19.2225 24.4886C17.4879 24.8637 12.7997 25.9888 10.5025 27.911C11.1589 28.4267 11.5339 28.5673 12.284 28.9424C13.2216 28.3329 14.5343 27.7703 16.4565 27.2546C19.8319 26.3639 22.3167 25.9888 25.364 25.4731C28.3644 25.0043 33.9902 23.8323 37.1312 22.7071C38.1626 22.3321 39.1003 21.8633 39.8035 21.3007C39.5691 21.1132 37.5532 20.1286 37.4594 20.2224ZM13.8311 33.3024C14.2999 33.0211 14.8625 32.7398 15.472 32.5054C14.5812 32.1303 13.6905 31.7553 12.7997 31.3333C12.3778 31.5677 12.0027 31.849 11.7214 32.1303C12.4247 32.5054 13.081 32.9273 13.8311 33.3024ZM10.9244 33.5837C10.9244 34.1462 11.2526 34.6619 12.0027 35.2714C12.0965 34.9432 12.2371 34.7557 12.4715 34.4744C11.909 34.1931 11.4401 33.8649 10.9244 33.5837ZM15.1907 23.1759C21.3322 21.3944 27.8018 20.8319 34.3652 19.0973C31.7867 18.394 30.4272 18.1127 27.708 18.4409C23.77 18.9097 19.4569 19.7536 15.7532 20.8319C14.2999 21.2538 6.65823 23.4104 8.86166 26.4577C8.86166 26.5045 10.1743 24.6762 15.1907 23.1759ZM38.2564 16.8938C37.2719 16.425 36.0061 16.0031 34.6465 15.628C34.0371 16.0968 33.3807 16.5188 32.3493 16.8938C33.9902 17.1751 35.256 17.6439 36.6624 18.0659C36.9437 18.2065 38.0689 17.1282 38.2564 16.8938ZM41.3037 22.8009C41.1162 22.9415 40.9286 23.1291 40.6942 23.2697C39.2878 24.348 37.0844 25.1919 34.0371 26.0357C27.708 27.7235 23.1137 28.0047 17.8629 29.2706C16.8315 29.505 15.8001 29.88 14.8156 30.2551C15.8001 30.7708 16.8315 31.1927 17.9098 31.6146C20.0195 31.0052 21.0509 30.7239 24.145 30.2082C25.3171 30.0207 28.927 29.3643 31.5523 28.8017C36.2405 27.8641 43.1321 25.6607 41.3037 22.8009Z" fill="#D8D8D8"/>
<path fill-rule="evenodd" clip-rule="evenodd" d="M74.5859 36.3468H79.7898L80.3992 32.5494H83.9622L84.5717 36.3468H89.7756L85.3687 14.2656H78.899L74.5859 36.3468ZM82.2276 20.9228L83.2121 27.6738H81.29L82.2276 20.9228Z" fill="#D8D8D8"/>
<path fill-rule="evenodd" clip-rule="evenodd" d="M94.7427 22.845C95.5865 22.845 97.0867 22.3293 97.0867 20.6885C97.0867 18.7663 95.3052 18.6257 94.8364 18.6257C94.227 18.6257 93.1487 18.7194 92.0235 19.2351L91.9766 14.4532C93.7113 14.0313 94.9771 13.8906 96.4304 13.8906C100.603 13.8906 102.525 16.8442 102.525 19.7039C102.525 22.5168 100.884 24.2046 99.337 24.8609V25.0953C100.837 25.5641 102.853 27.0175 102.853 30.3929C102.853 34.5654 99.9465 36.8626 96.2429 36.8626C94.227 36.8626 92.9612 36.5813 91.4141 35.7374L91.5078 31.143C92.9612 31.7525 93.9457 31.7994 94.9302 31.7994C96.571 31.7994 97.2274 30.5805 97.2274 29.6897C97.2274 28.4708 96.4304 27.6269 94.6958 27.6269H92.5861V22.845H94.7427Z" fill="#D8D8D8"/>
<path fill-rule="evenodd" clip-rule="evenodd" d="M119.26 36.3468H114.103V19.5632H110.399V36.3468H105.242V14.2656H119.26V36.3468Z" fill="#D8D8D8"/>
<path fill-rule="evenodd" clip-rule="evenodd" d="M122.172 36.3468H127.282V29.0802H129.017C134.08 29.0802 135.674 24.5327 135.674 21.626C135.674 18.7663 133.892 14.2656 129.017 14.2656H122.172V36.3468ZM127.282 19.1413H128.501C129.673 19.1413 130.376 19.8445 130.376 21.6729C130.376 24.0639 129.157 24.2045 128.501 24.2045H127.282V19.1413Z" fill="#D8D8D8"/>
<path fill-rule="evenodd" clip-rule="evenodd" d="M145.142 36.6282C151.236 36.6282 153.252 30.9555 153.252 25.2828C153.252 19.6102 151.189 13.9375 145.142 13.9375C139.047 13.9375 137.031 19.6102 137.031 25.2828C137.031 30.9555 139.094 36.6282 145.142 36.6282ZM145.142 31.2837C143.36 31.2837 142.423 29.174 142.423 25.2828C142.423 21.3917 143.36 19.282 145.142 19.282C146.97 19.282 147.861 21.3917 147.861 25.2828C147.908 29.174 146.97 31.2837 145.142 31.2837Z" fill="#D8D8D8"/>
<path fill-rule="evenodd" clip-rule="evenodd" d="M175.57 36.3468H181.712C183.024 36.3468 188.556 35.7843 188.603 29.1271C188.603 23.5013 184.29 22.5168 181.524 22.5168H180.634V19.6101H187.431V14.2656H175.617V36.3468H175.57ZM180.634 31.94V26.9236H181.384C181.993 26.9236 183.587 26.9705 183.587 29.2208C183.587 31.5649 181.946 31.94 181.384 31.94H180.634Z" fill="#D8D8D8"/>
<path fill-rule="evenodd" clip-rule="evenodd" d="M220.627 36.3468H215.657V27.5331H212.048V36.3468H207.031V14.2656H212.048V22.2355H215.657V14.2656H220.627V36.3468Z" fill="#D8D8D8"/>
<path fill-rule="evenodd" clip-rule="evenodd" d="M238.44 14.2656L234.501 24.7671L239.002 36.3468H233.095L230.235 27.4862H229.016V36.3468H224V14.2656H229.016V22.2355H230.095L233.001 14.2656H238.44Z" fill="#D8D8D8"/>
<path fill-rule="evenodd" clip-rule="evenodd" d="M64.6953 14.2656H75.1968V19.7976H69.8992V36.3468H64.6953V14.2656Z" fill="#D8D8D8"/>
<path fill-rule="evenodd" clip-rule="evenodd" d="M167.041 36.3468V22.8918L163.946 26.7361L160.852 22.8918V36.3468H155.742V14.2656H160.102L163.946 19.4695L167.791 14.2656H172.151V36.3468H167.041Z" fill="#D8D8D8"/>
<path fill-rule="evenodd" clip-rule="evenodd" d="M189.586 36.3937H194.79L195.399 32.5963H198.962L199.619 36.3937H204.822L200.416 14.3125H193.946L189.586 36.3937ZM197.228 20.9697L198.212 27.7206H196.29L197.228 20.9697Z" fill="#D8D8D8"/>
</svg>
