<svg width="302" height="106" viewBox="0 0 302 106" fill="none" xmlns="http://www.w3.org/2000/svg">
<mask id="mask0_714_2764" style="mask-type:luminance" maskUnits="userSpaceOnUse" x="0" y="0" width="302" height="106">
<path d="M302 0H0V105.965H302V0Z" fill="white"/>
</mask>
<g mask="url(#mask0_714_2764)">
<path d="M97.5135 0V0.0196087L88.0786 9.37078V0H78.6406L62.9141 15.5827V56.0985H69.2047V18.7004L81.7872 6.23356V56.0985H88.0786V18.7004L100.659 6.23356V56.0985H106.95V0H97.5135Z" fill="#D8D8D8"/>
<path d="M0.00380088 56.0972H25.1682V-0.00126586H15.7301L0 15.5818L0.00380088 15.5854V56.0972ZM18.8767 6.2323V49.8638H6.29516V18.6984L18.8767 6.2323Z" fill="#D8D8D8"/>
<path d="M56.6244 0H31.4609V56.0981H56.6244V0ZM37.7513 6.23323H50.3333V49.8655H37.7513V6.23323Z" fill="#D8D8D8"/>
<path d="M0 68.5676H106.947V62.334H0V68.5676Z" fill="#D8D8D8"/>
<path d="M0 74.7988V105.964H6.29137V99.7316H44.0373V74.7988H0ZM37.7461 93.4982H6.29137V81.0322H37.7461V93.4982Z" fill="#D8D8D8"/>
<path d="M50.3359 74.7988V99.7316H75.5005V105.964H81.7908V99.7316H106.955V74.7988H50.3359ZM56.6263 81.0322H75.4994V93.4982H56.6263V81.0322ZM100.664 93.4982H81.7908V81.0322H100.664V93.4982Z" fill="#D8D8D8"/>
<path d="M206.351 70.1183H195.047V42.0752H213.726V46.9581H200.562V52.6282H206.351C212.023 52.6282 215.51 56.2562 215.51 61.3738C215.51 66.4959 212.062 70.1183 206.351 70.1183ZM206.074 57.5151H200.562V65.2373H206.074C208.532 65.2373 209.999 63.7008 209.999 61.3738C209.999 59.0916 208.532 57.5151 206.074 57.5151Z" fill="#D8D8D8"/>
<path d="M239.069 70.1183L237.401 65.1578H227.368L225.661 70.1183H219.914L230.185 42.0752H234.507L244.818 70.1183H239.069ZM232.484 50.3471L228.915 60.5475H235.933L232.484 50.3471Z" fill="#D8D8D8"/>
<path d="M265.676 70.1183V58.3784H256.12V70.1183H250.609V42.0752H256.12V53.5348H265.676V42.0752H271.192V70.1183H265.676Z" fill="#D8D8D8"/>
<path d="M279.836 70.1183V42.0752H285.346V55.3889L294.47 42.0752H301.055L291.574 55.2329L302.004 70.1183H295.264L285.346 55.4654V70.1183H279.836Z" fill="#D8D8D8"/>
<path d="M157.267 105.955H150.977V0.015625H157.267V105.955Z" fill="#D8D8D8"/>
</g>
</svg>
