<svg width="143" height="78" viewBox="0 0 143 78" fill="none" xmlns="http://www.w3.org/2000/svg">
<path d="M66.5111 0.401947C61.4677 0.598145 57.5668 0.87513 53.5851 1.32523C41.2131 2.73324 30.5838 5.57234 21.9626 9.78482C16.4576 12.4739 12.7413 14.9898 9.16363 18.4521C6.24374 21.2912 4.24714 23.9572 2.6891 27.1426C0.830989 30.9049 0.103903 33.8941 0.0115749 38.0835C-0.0807535 42.1459 0.369347 44.9042 1.71965 48.355C3.18536 52.1058 5.44741 55.4527 8.73661 58.7304C19.5621 69.5213 38.9395 75.9958 63.9721 77.1961C67.0997 77.3461 75.8478 77.3461 78.9754 77.1961C99.4839 76.2151 115.988 71.7718 127.621 64.097C133.08 60.4962 137.385 55.9375 139.912 51.0787C141.978 47.1201 142.901 43.3462 142.901 38.8221C142.901 34.4134 142.082 30.9396 140.131 26.9925C137.35 21.372 132.468 16.3863 125.832 12.37C114.637 5.60696 99.38 1.65992 80.2449 0.563522C78.156 0.43657 68.4384 0.332701 66.5111 0.401947ZM80.0141 4.14125C100.072 5.23765 115.988 9.71557 126.409 17.1711C135.1 23.3802 139.451 31.5512 138.816 40.4263C138.585 43.5885 137.869 46.2084 136.45 49.0936C135.123 51.7942 133.715 53.7677 131.487 56.0644C122.866 64.9279 107.816 70.7792 88.0351 72.9143C82.0453 73.5606 76.9673 73.7799 69.5118 73.6991C63.7989 73.6414 62.3448 73.5722 57.9707 73.2144C32.5573 71.0793 13.7223 62.5389 6.8785 50.0169C4.76649 46.1507 3.91245 42.5383 4.05094 38.0142C4.21252 32.3937 6.2322 27.4542 10.26 22.78C16.8038 15.186 28.7142 9.40396 44.006 6.40329C51.0345 5.02991 57.9707 4.29128 66.915 3.97967C68.9001 3.91043 77.7752 4.01429 80.0141 4.14125Z" fill="#D8D8D8"/>
<path d="M65.5892 7.38515C53.4827 7.81217 42.2879 9.67027 33.3205 12.7517C18.7787 17.749 10.1114 25.5854 8.34564 35.3837C8.24177 35.9492 8.12636 37.2072 8.09174 38.1882C7.83784 45.2282 11.1386 51.622 17.7516 56.8847C26.6267 63.9478 41.2953 68.5527 59.4725 69.9722C65.5084 70.4454 75.9415 70.5147 81.689 70.1107C96.2653 69.0836 107.772 66.4061 117.062 61.8473C127.034 56.9655 132.862 50.5371 134.455 42.6661C134.685 41.5236 134.72 41.0273 134.709 38.7652C134.709 35.8223 134.559 34.8644 133.739 32.4061C129.48 19.6071 112.065 10.582 86.6516 8.0199C80.2117 7.36206 72.6062 7.13124 65.5892 7.38515ZM79.1499 8.19302C108.13 9.5664 128.592 18.9147 133.15 32.8678C133.854 35.0029 134.028 36.2378 134.016 38.9384C134.016 40.9927 133.97 41.5466 133.751 42.5738C132.158 50.087 126.664 56.2038 117.247 60.9702C108.949 65.1712 97.9157 67.9641 85.0936 69.1067C80.1425 69.5568 78.042 69.6375 71.4752 69.6375C63.835 69.6375 60.0726 69.4413 53.9328 68.7143C35.0862 66.4753 20.9254 60.5778 13.7353 51.9797C9.76519 47.2248 8.09174 41.4428 9.0381 35.7069C10.4461 27.155 17.5208 19.9649 29.408 14.9907C41.9647 9.72798 59.911 7.28128 79.1499 8.19302Z" fill="#D8D8D8"/>
<path d="M20.2891 38.2443V50.3047H23.8668H27.4445V45.5152V40.7256H31.2531H35.0616V45.5152V50.3047H38.6393H42.2171V38.2443V26.1839H38.6393H35.0616V30.6272V35.0705H31.2531H27.4445V30.6272V26.1839H23.8668H20.2891V38.2443Z" fill="#D8D8D8"/>
<path d="M49.3725 33.5596C49.3725 39.4917 49.3378 41.1075 49.2109 41.7999C48.8069 43.9235 47.8029 44.6621 45.6101 44.489L44.6406 44.4082V47.3512C44.6406 50.0518 44.6522 50.2941 44.8484 50.3518C45.3793 50.525 47.6298 50.6288 48.6569 50.525C50.9997 50.3057 52.3962 49.7056 53.7927 48.3322C54.8198 47.305 55.4084 46.2086 55.8239 44.5352C56.2394 42.8271 56.3086 41.823 56.3779 36.8257L56.4471 31.9554H58.6745H60.9135V41.1306V50.3057H64.3758H67.8381V38.2453V26.1849H58.6053H49.3725V33.5596Z" fill="#D8D8D8"/>
<path d="M73.7929 26.4955C73.7583 26.6802 73.3082 29.854 72.8004 33.5702C72.281 37.2864 71.554 42.5491 71.1847 45.2728C70.8038 47.9849 70.4922 50.2354 70.4922 50.2585C70.4922 50.2816 72.0041 50.3047 73.8391 50.3047C75.6857 50.3047 77.186 50.2816 77.186 50.2585C77.186 50.0392 78.8248 37.6672 78.8594 37.6326C78.8825 37.6095 79.0095 37.9673 79.148 38.4405C79.2865 38.9021 79.4942 39.5946 79.6096 39.9755C79.725 40.3563 80.0828 41.545 80.4059 42.6299C80.7176 43.7032 81.3177 45.7344 81.7332 47.1309C82.1486 48.5274 82.518 49.8084 82.5641 49.9815L82.6334 50.3047H85.0454H87.446L87.7922 49.1737C87.9769 48.562 88.8194 45.746 89.6503 42.9184C90.4813 40.0909 91.1853 37.7596 91.2199 37.7365C91.243 37.7134 91.2892 37.7134 91.3007 37.7365C91.3238 37.7596 91.7046 40.564 92.1317 43.9571C92.5587 47.3502 92.9511 50.1662 92.9972 50.2239C93.0319 50.2701 94.5437 50.2931 96.3557 50.2816L99.6449 50.247L98.4792 41.822C97.8329 37.1825 97.0828 31.7698 96.8058 29.7847L96.3095 26.1839H92.7202H89.131L88 30.1886C87.3652 32.4045 86.465 35.5899 85.9803 37.2979C85.5071 38.9945 85.0685 40.3448 85.0339 40.2986C84.9877 40.2409 84.8954 39.9985 84.8377 39.7446C84.7108 39.2484 81.5947 28.2497 81.2138 26.9571L80.983 26.1839H77.4168H73.8622L73.7929 26.4955Z" fill="#D8D8D8"/>
<path d="M102.227 38.2443V50.3047H105.862H109.497L109.521 45.4921L109.555 40.6795L112.21 44.7073C113.664 46.9116 115.083 49.0813 115.36 49.5084L115.868 50.3047H120.196H124.524L124.178 49.8661C123.197 48.6082 115.476 38.4982 115.36 38.3135C115.233 38.0943 115.707 37.4364 123.035 27.8227L124.282 26.1839H120.323L116.364 26.1954L114.356 29.0461C113.248 30.6157 111.713 32.7854 110.952 33.8702L109.555 35.8438L109.521 31.0081L109.497 26.1839H105.862H102.227V38.2443Z" fill="#D8D8D8"/>
</svg>
