<svg width="484" height="151" viewBox="0 0 484 151" fill="none" xmlns="http://www.w3.org/2000/svg">
<path d="M31.688 128.35C11.1534 128.35 0 113.538 0 94.9783C0 76.4187 13.1284 60.8486 34.6843 60.8486C40.4064 60.8486 45.371 61.5994 49.6862 63.8517V75.9452C43.9641 72.5701 39.3783 71.9073 35.1578 71.9073C20.5346 71.9073 15.1372 82.6954 15.1372 94.0381C15.1372 106.693 21.9347 116.724 33.8388 116.724C39.0942 116.724 43.3215 115.269 48.3808 112.55L52.0264 122.351C44.4376 127.133 37.9647 128.35 31.6812 128.35M262.587 128.35C247.396 128.35 239.618 117.197 239.618 103.886C239.618 88.9789 249.933 79.1309 263.71 79.1309C269.804 79.1309 272.99 80.3484 275.52 81.8499V92.5434C272.145 90.1017 269.426 89.2562 265.678 89.2562C257.9 89.2562 252.888 94.9783 252.888 103.23C252.888 110.636 256.771 117.853 265.489 117.853C267.924 117.853 271.15 116.798 274.613 115.019L277.86 123.853C273.923 126.477 267.363 128.35 262.581 128.35M304.827 90.7577V127.417H291.326V90.7577H278.205V80.0711H319.646L316.717 90.7577H304.834H304.827ZM370.11 85.6038C370.11 102.1 369.454 110.731 366.458 114.667C364.956 116.636 362.616 117.955 360.174 118.32L363.921 128.35C367.012 128.256 371.801 126.944 375.081 123.663C379.397 119.443 380.797 114.099 381.453 108.472C382.014 103.69 382.393 98.0693 382.393 93.098V90.751H392.951V127.41H406.451V80.0643H370.11V85.597V85.6038ZM217.034 79.1309C211.785 79.1309 207.754 81.6673 204.284 84.3863L202.783 80.0711H191.44V150.481L204.94 146.355V126.382C207.382 127.694 210.568 128.35 214.038 128.35C228.005 128.35 236.439 116.446 236.439 102.385C236.439 87.3827 227.91 79.1309 217.034 79.1309ZM210.757 118.604C208.315 118.604 206.442 117.758 204.94 116.73V94.3222C206.537 91.8873 210.757 88.9789 214.315 88.9789C219.753 88.9789 222.939 92.4487 222.939 102.202C222.939 110.264 219.942 118.604 210.757 118.604ZM339.044 79.1309C332.666 79.1309 326.491 80.1184 320.011 84.3119L324.103 92.4825C327.282 90.6901 331.374 89.2968 336.163 89.2968C340.952 89.2968 345.03 91.3665 345.03 96.3446V97.1495L336.846 97.4606C324.901 97.8596 316.832 103.041 316.832 113.004C316.832 122.378 323.596 128.35 332.565 128.35C338.652 128.35 342.832 126.064 345.916 123.271L348.013 127.417H358.578V96.6692C358.578 84.2105 351.605 79.1309 339.044 79.1309ZM345.03 115.696C343.738 116.69 341.04 117.887 337.455 117.887C332.862 117.887 330.279 115.594 330.279 112.016C330.279 108.438 333.065 106.436 338.848 106.233L345.03 106.037V115.696ZM432.674 95.445H425.735V78.0082L412.234 81.6267V127.417H429.489C442.049 127.417 453.77 124.035 453.77 111.008C453.77 99.9496 444.301 95.445 432.674 95.445ZM430.422 118.076H425.735V104.86H430.239C435.015 104.86 440.27 105.611 440.27 111.231C440.27 116.852 435.765 118.076 430.422 118.076ZM130.79 101.634V101.255C135.193 100.322 138.852 97.4132 138.852 91.2244C138.852 83.8385 132.65 81.1465 126.556 80.3281C124.689 80.0779 120.597 80.0711 118.318 80.0711H99.0207V127.417H115.227C117.019 127.417 119.691 127.41 121.774 127.349C130.296 126.944 140.82 123.9 140.82 112.882C140.82 106.132 137.161 102.757 130.79 101.634ZM112.785 89.0871H118.318C123.843 89.0871 125.913 90.778 125.913 93.6864C125.913 97.3388 122.538 98.4616 116.911 98.4616H112.785V89.0871ZM118.033 118.435H112.501V106.808H117.377C123.843 106.808 127.313 108.31 127.313 112.53C127.313 117.028 122.721 118.435 118.033 118.435ZM94.5769 103.325C94.5769 88.6948 85.5744 79.1309 72.6355 79.1309C58.479 79.1309 50.5114 90.5684 50.5114 103.886C50.5114 116.352 57.4509 128.35 74.3264 128.35C80.0417 128.35 86.4131 127.045 92.9807 122.912L89.9776 114.383C84.6343 116.92 81.1645 117.758 76.5719 117.758C70.2885 117.758 64.289 113.822 64.005 107.444H94.5769V103.325ZM63.7277 98.1708C63.7277 93.8555 66.8254 88.9789 72.2567 88.9789C77.9856 88.9789 80.5084 93.6661 80.7925 98.1708H63.7277ZM187.578 103.325C187.578 88.6948 178.575 79.1309 165.636 79.1309C151.48 79.1309 143.512 90.5684 143.512 103.886C143.512 116.352 150.452 128.35 167.327 128.35C173.043 128.35 179.421 127.045 185.982 122.912L182.979 114.383C177.642 116.92 174.165 117.758 169.573 117.758C163.296 117.758 157.297 113.822 157.013 107.444H187.578V103.325ZM156.729 98.1708C156.729 93.8555 159.826 88.9789 165.258 88.9789C170.98 88.9789 173.509 93.6661 173.793 98.1708H156.729Z" fill="#D8D8D8"/>
<path d="M477.818 46.623C477.047 47.1573 476.256 47.5767 475.451 47.8337C472.779 48.6792 469.486 47.9013 466.53 46.6839C464.42 45.8114 462.208 44.6818 459.888 43.2547C461.099 40.2989 462.235 36.9239 463.202 33.1903C464.704 27.3938 465.421 22.2872 465.569 17.8028C465.664 15.0297 465.529 12.4933 465.224 10.1869C464.805 7.01473 463.831 3.78844 461.761 1.88784C461.105 1.2994 460.307 0.805649 459.414 0.399827C463.642 -0.0601054 467.396 -0.0939239 470.71 0.14957C474.193 0.447173 477.737 1.30616 479.807 3.33528C481.877 5.36439 482.79 8.90181 483.155 12.3716C483.493 15.6858 483.52 19.4397 483.128 23.6873C482.729 27.874 481.917 32.5274 480.585 37.6882C479.753 40.8806 478.799 43.9311 477.825 46.623H477.818ZM426.773 43.9987C426.692 43.0653 426.725 42.1657 426.908 41.3406C427.51 38.6012 429.83 36.146 432.366 34.1845C434.179 32.798 436.255 31.4452 438.657 30.1466C440.611 32.6762 442.965 35.3411 445.718 38.0466C449.986 42.2469 454.051 45.4191 457.859 47.7864C460.212 49.2541 462.472 50.4039 464.622 51.2967C467.578 52.5142 470.859 53.292 473.544 52.4466C474.382 52.1692 475.208 51.7296 476.006 51.1615C474.288 55.0506 472.441 58.3242 470.574 61.0703C468.572 63.9381 466.063 66.5827 463.27 67.3538C460.476 68.1316 456.959 67.1576 453.773 65.7372C450.737 64.3777 447.47 62.5177 443.986 60.0557C440.564 57.6208 436.932 54.5907 433.131 50.8503C430.777 48.5371 428.612 46.1834 426.773 43.9987ZM454.497 1.09649C455.349 1.49555 456.107 1.97577 456.729 2.54392C458.799 4.43776 459.766 7.67758 460.199 10.8498C460.497 13.1088 460.625 15.5911 460.551 18.3169C457.378 18.743 453.895 19.4464 450.175 20.4813C444.406 22.0775 439.624 24.0119 435.667 26.129C433.219 27.4344 431.088 28.8142 429.248 30.2345C426.712 32.1825 424.399 34.6377 423.79 37.3838C423.607 38.2495 423.573 39.1829 423.675 40.1569C421.166 36.7277 419.251 33.4879 417.811 30.4983C416.323 27.3329 415.295 23.8361 416.018 21.0291C416.742 18.2222 419.346 15.6588 422.167 13.6161C424.865 11.6614 428.105 9.7608 431.981 7.98194C435.802 6.23691 440.246 4.60685 445.38 3.18647C448.559 2.30719 451.683 1.60377 454.497 1.11002V1.09649Z" fill="#D8D8D8"/>
</svg>
