<svg width="97" height="40" viewBox="0 0 97 40" fill="none" xmlns="http://www.w3.org/2000/svg">
<path d="M25.5118 25.4258C24.0215 26.9396 21.9445 27.8896 19.6512 27.8896C15.1109 27.8896 11.4278 24.2055 11.4278 19.664C11.4278 15.1149 15.1109 11.4385 19.6512 11.4385C22.1761 11.4385 24.4385 12.5739 25.9442 14.3812L34.2448 6.0784C30.6929 2.40973 25.7512 0.092682 20.2612 0H19.6898C8.78705 0.1313 0 9.0056 0 19.9344C0 30.9403 8.91832 39.8687 19.9292 39.8687C25.535 39.8687 30.5925 37.5439 34.2139 33.8289C31.7276 31.396 27.3804 27.1713 25.5118 25.4258Z" fill="#D8D8D8"/>
<path d="M57.332 25.5507C55.8418 27.0645 53.7724 28.0145 51.4637 28.0145C46.9312 28.0145 43.2403 24.3304 43.2403 19.789C43.2403 15.2476 46.9312 11.5635 51.4637 11.5635C53.9886 11.5635 56.251 12.7065 57.7644 14.4984L66.0496 6.20339C62.4359 2.45749 57.3552 0.125 51.7339 0.125C40.7308 0.125 31.8125 9.04564 31.8125 20.0593C31.8125 31.0576 40.7308 40.0014 51.7339 40.0014C57.3397 40.0014 62.405 37.6766 66.0264 33.9539C63.5401 31.521 59.1929 27.2962 57.332 25.5507Z" fill="#D8D8D8"/>
<path d="M59.8711 20.1436L78.6189 1.76172L96.8493 1.86985L77.7541 19.8965L96.9188 39.1821H78.4104L59.8711 20.1436Z" fill="#D8D8D8"/>
</svg>
